<svg xmlns="http://www.w3.org/2000/svg" xmlns:xlink="http://www.w3.org/1999/xlink" contentStyleType="text/css" data-diagram-type="SEQUENCE" height="553px" preserveAspectRatio="none" style="width:976px;height:553px;background:#FFFFFF;" version="1.1" viewBox="0 0 976 553" width="976px" zoomAndPan="magnify"><title>Alur Proses Pembaruan Pesanan dengan Info Pengiriman</title><defs/><g><text fill="#000000" font-family="sans-serif" font-size="14" font-weight="bold" lengthAdjust="spacing" textLength="451.7598" x="263.9109" y="27.9951">Alur Proses Pembaruan Pesanan dengan Info Pengiriman</text><g><title>main-app .PHP.</title><rect fill="#FFFFFF" height="305.4609" style="stroke:#181818;stroke-width:1;" width="10" x="444.6982" y="149.7266"/></g><g><title>postgres-db</title><rect fill="#FFFFFF" height="243.1953" style="stroke:#181818;stroke-width:1;" width="10" x="925.7764" y="220.9922"/></g><g><title>postgres-db</title><rect fill="#FFFFFF" height="29.1328" style="stroke:#181818;stroke-width:1;" width="10" x="930.7764" y="265.2578"/></g><g><title>postgres-db</title><rect fill="#FFFFFF" height="29.1328" style="stroke:#181818;stroke-width:1;" width="10" x="930.7764" y="338.6563"/></g><g><title>postgres-db</title><rect fill="#FFFFFF" height="29.1328" style="stroke:#181818;stroke-width:1;" width="10" x="930.7764" y="396.9219"/></g><g><title>User .Pemilik.Pegawai.</title><rect fill="#000000" fill-opacity="0.00000" height="354.5938" width="8" x="84.4556" y="118.5938"/><line style="stroke:#181818;stroke-width:0.5;stroke-dasharray:5,5;" x1="88" x2="88" y1="118.5938" y2="473.1875"/></g><g><title>main-app .PHP.</title><rect fill="#000000" fill-opacity="0.00000" height="354.5938" width="8" x="445.6982" y="118.5938"/><line style="stroke:#181818;stroke-width:0.5;stroke-dasharray:5,5;" x1="449.1133" x2="449.1133" y1="118.5938" y2="473.1875"/></g><g><title>postgres-db</title><rect fill="#000000" fill-opacity="0.00000" height="354.5938" width="8" x="926.7764" y="118.5938"/><line style="stroke:#181818;stroke-width:0.5;stroke-dasharray:5,5;" x1="929.9712" x2="929.9712" y1="118.5938" y2="473.1875"/></g><g class="participant participant-head" data-participant="User"><text fill="#000000" font-family="sans-serif" font-size="14" lengthAdjust="spacing" textLength="160.9111" x="5" y="115.292">User (Pemilik/Pegawai)</text><ellipse cx="88.4556" cy="50.7969" fill="#E2E2F0" rx="8" ry="8" style="stroke:#181818;stroke-width:0.5;"/><path d="M88.4556,58.7969 L88.4556,85.7969 M75.4556,66.7969 L101.4556,66.7969 M88.4556,85.7969 L75.4556,100.7969 M88.4556,85.7969 L101.4556,100.7969" fill="none" style="stroke:#181818;stroke-width:0.5;"/></g><g class="participant participant-tail" data-participant="User"><text fill="#000000" font-family="sans-serif" font-size="14" lengthAdjust="spacing" textLength="160.9111" x="5" y="485.1826">User (Pemilik/Pegawai)</text><ellipse cx="88.4556" cy="496.9844" fill="#E2E2F0" rx="8" ry="8" style="stroke:#181818;stroke-width:0.5;"/><path d="M88.4556,504.9844 L88.4556,531.9844 M75.4556,512.9844 L101.4556,512.9844 M88.4556,531.9844 L75.4556,546.9844 M88.4556,531.9844 L101.4556,546.9844" fill="none" style="stroke:#181818;stroke-width:0.5;"/></g><g class="participant participant-head" data-participant="App"><rect fill="#E2E2F0" height="30.2969" rx="2.5" ry="2.5" style="stroke:#181818;stroke-width:0.5;" width="123.1699" x="388.1133" y="87.2969"/><text fill="#000000" font-family="sans-serif" font-size="14" lengthAdjust="spacing" textLength="109.1699" x="395.1133" y="107.292">main-app (PHP)</text></g><g class="participant participant-tail" data-participant="App"><rect fill="#E2E2F0" height="30.2969" rx="2.5" ry="2.5" style="stroke:#181818;stroke-width:0.5;" width="123.1699" x="388.1133" y="472.1875"/><text fill="#000000" font-family="sans-serif" font-size="14" lengthAdjust="spacing" textLength="109.1699" x="395.1133" y="492.1826">main-app (PHP)</text></g><g class="participant participant-head" data-participant="DB"><text fill="#000000" font-family="sans-serif" font-size="14" lengthAdjust="spacing" textLength="83.6104" x="885.9712" y="115.292">postgres-db</text><path d="M912.7764,66.2969 C912.7764,56.2969 930.7764,56.2969 930.7764,56.2969 C930.7764,56.2969 948.7764,56.2969 948.7764,66.2969 L948.7764,92.2969 C948.7764,102.2969 930.7764,102.2969 930.7764,102.2969 C930.7764,102.2969 912.7764,102.2969 912.7764,92.2969 L912.7764,66.2969" fill="#E2E2F0" style="stroke:#181818;stroke-width:0.5;"/><path d="M912.7764,66.2969 C912.7764,76.2969 930.7764,76.2969 930.7764,76.2969 C930.7764,76.2969 948.7764,76.2969 948.7764,66.2969" fill="none" style="stroke:#181818;stroke-width:0.5;"/></g><g class="participant participant-tail" data-participant="DB"><text fill="#000000" font-family="sans-serif" font-size="14" lengthAdjust="spacing" textLength="83.6104" x="885.9712" y="485.1826">postgres-db</text><path d="M912.7764,498.4844 C912.7764,488.4844 930.7764,488.4844 930.7764,488.4844 C930.7764,488.4844 948.7764,488.4844 948.7764,498.4844 L948.7764,524.4844 C948.7764,534.4844 930.7764,534.4844 930.7764,534.4844 C930.7764,534.4844 912.7764,534.4844 912.7764,524.4844 L912.7764,498.4844" fill="#E2E2F0" style="stroke:#181818;stroke-width:0.5;"/><path d="M912.7764,498.4844 C912.7764,508.4844 930.7764,508.4844 930.7764,508.4844 C930.7764,508.4844 948.7764,508.4844 948.7764,498.4844" fill="none" style="stroke:#181818;stroke-width:0.5;"/></g><g><title>main-app .PHP.</title><rect fill="#FFFFFF" height="305.4609" style="stroke:#181818;stroke-width:1;" width="10" x="444.6982" y="149.7266"/></g><g><title>postgres-db</title><rect fill="#FFFFFF" height="243.1953" style="stroke:#181818;stroke-width:1;" width="10" x="925.7764" y="220.9922"/></g><g><title>postgres-db</title><rect fill="#FFFFFF" height="29.1328" style="stroke:#181818;stroke-width:1;" width="10" x="930.7764" y="265.2578"/></g><g><title>postgres-db</title><rect fill="#FFFFFF" height="29.1328" style="stroke:#181818;stroke-width:1;" width="10" x="930.7764" y="338.6563"/></g><g><title>postgres-db</title><rect fill="#FFFFFF" height="29.1328" style="stroke:#181818;stroke-width:1;" width="10" x="930.7764" y="396.9219"/></g><g class="message" data-participant-1="User" data-participant-2="App"><polygon fill="#181818" points="432.6982,145.7266,442.6982,149.7266,432.6982,153.7266,436.6982,149.7266" style="stroke:#181818;stroke-width:1;"/><line style="stroke:#181818;stroke-width:1;" x1="88.4556" x2="438.6982" y1="149.7266" y2="149.7266"/><text fill="#000000" font-family="sans-serif" font-size="13" lengthAdjust="spacing" textLength="307.3853" x="95.4556" y="144.6606">1. POST /orders/{id}/ship (nama_kurir, no_resi)</text></g><g class="message" data-participant-1="App" data-participant-2="App"><line style="stroke:#181818;stroke-width:1;" x1="454.6982" x2="496.6982" y1="178.8594" y2="178.8594"/><line style="stroke:#181818;stroke-width:1;" x1="496.6982" x2="496.6982" y1="178.8594" y2="191.8594"/><line style="stroke:#181818;stroke-width:1;" x1="455.6982" x2="496.6982" y1="191.8594" y2="191.8594"/><polygon fill="#181818" points="465.6982,187.8594,455.6982,191.8594,465.6982,195.8594,461.6982,191.8594" style="stroke:#181818;stroke-width:1;"/><text fill="#000000" font-family="sans-serif" font-size="13" lengthAdjust="spacing" textLength="303.8179" x="461.6982" y="173.7935">2. Validasi data input (resi tidak boleh kosong)</text></g><g class="message" data-participant-1="App" data-participant-2="DB"><polygon fill="#181818" points="913.7764,216.9922,923.7764,220.9922,913.7764,224.9922,917.7764,220.9922" style="stroke:#181818;stroke-width:1;"/><line style="stroke:#181818;stroke-width:1;" x1="454.6982" x2="919.7764" y1="220.9922" y2="220.9922"/><text fill="#000000" font-family="sans-serif" font-size="13" lengthAdjust="spacing" textLength="156.2729" x="461.6982" y="215.9263">3. START TRANSACTION</text></g><g class="message" data-participant-1="App" data-participant-2="DB"><polygon fill="#181818" points="918.7764,261.2578,928.7764,265.2578,918.7764,269.2578,922.7764,265.2578" style="stroke:#181818;stroke-width:1;"/><line style="stroke:#181818;stroke-width:1;" x1="454.6982" x2="924.7764" y1="265.2578" y2="265.2578"/><text fill="#000000" font-family="sans-serif" font-size="13" lengthAdjust="spacing" textLength="262.1201" x="461.6982" y="245.0591">4. Buat Catatan Pengiriman (shipments)</text><text fill="#000000" font-family="sans-serif" font-size="13" lengthAdjust="spacing" textLength="340.1074" x="461.6982" y="260.1919">INSERT INTO shipments (order_id, courier_name, ...)</text></g><g class="message" data-participant-1="DB" data-participant-2="App"><polygon fill="#181818" points="465.6982,290.3906,455.6982,294.3906,465.6982,298.3906,461.6982,294.3906" style="stroke:#181818;stroke-width:1;"/><line style="stroke:#181818;stroke-width:1;stroke-dasharray:2,2;" x1="459.6982" x2="924.7764" y1="294.3906" y2="294.3906"/><text fill="#000000" font-family="sans-serif" font-size="13" lengthAdjust="spacing" textLength="196.3584" x="471.6982" y="289.3247">5. Konfirmasi shipment dibuat</text></g><g class="message" data-participant-1="App" data-participant-2="DB"><polygon fill="#181818" points="918.7764,334.6563,928.7764,338.6563,918.7764,342.6563,922.7764,338.6563" style="stroke:#181818;stroke-width:1;"/><line style="stroke:#181818;stroke-width:1;" x1="454.6982" x2="924.7764" y1="338.6563" y2="338.6563"/><text fill="#000000" font-family="sans-serif" font-size="13" lengthAdjust="spacing" textLength="231.7847" x="461.6982" y="318.4575">6. Perbarui Status Pesanan (orders)</text><text fill="#000000" font-family="sans-serif" font-size="13" lengthAdjust="spacing" textLength="447.0781" x="461.6982" y="333.5903">UPDATE orders SET order_status = 'shipped' WHERE order_id = {id}</text></g><g class="message" data-participant-1="DB" data-participant-2="App"><polygon fill="#181818" points="465.6982,363.7891,455.6982,367.7891,465.6982,371.7891,461.6982,367.7891" style="stroke:#181818;stroke-width:1;"/><line style="stroke:#181818;stroke-width:1;stroke-dasharray:2,2;" x1="459.6982" x2="924.7764" y1="367.7891" y2="367.7891"/><text fill="#000000" font-family="sans-serif" font-size="13" lengthAdjust="spacing" textLength="200.8843" x="471.6982" y="362.7231">7. Konfirmasi status diperbarui</text></g><g class="message" data-participant-1="App" data-participant-2="DB"><polygon fill="#181818" points="918.7764,392.9219,928.7764,396.9219,918.7764,400.9219,922.7764,396.9219" style="stroke:#181818;stroke-width:1;"/><line style="stroke:#181818;stroke-width:1;" x1="454.6982" x2="924.7764" y1="396.9219" y2="396.9219"/><text fill="#000000" font-family="sans-serif" font-size="13" lengthAdjust="spacing" textLength="167.7305" x="461.6982" y="391.856">8. COMMIT TRANSACTION</text></g><g class="message" data-participant-1="DB" data-participant-2="App"><polygon fill="#181818" points="465.6982,422.0547,455.6982,426.0547,465.6982,430.0547,461.6982,426.0547" style="stroke:#181818;stroke-width:1;"/><line style="stroke:#181818;stroke-width:1;stroke-dasharray:2,2;" x1="459.6982" x2="924.7764" y1="426.0547" y2="426.0547"/><text fill="#000000" font-family="sans-serif" font-size="13" lengthAdjust="spacing" textLength="128.375" x="471.6982" y="420.9888">9. Transaksi Sukses</text></g><g class="message" data-participant-1="App" data-participant-2="User"><polygon fill="#181818" points="99.4556,451.1875,89.4556,455.1875,99.4556,459.1875,95.4556,455.1875" style="stroke:#181818;stroke-width:1;"/><line style="stroke:#181818;stroke-width:1;stroke-dasharray:2,2;" x1="93.4556" x2="448.6982" y1="455.1875" y2="455.1875"/><text fill="#000000" font-family="sans-serif" font-size="13" lengthAdjust="spacing" textLength="332.2427" x="105.4556" y="450.1216">10. Response (Redirect kembali ke detail pesanan)</text></g><!--SRC=[VLDBYzim4BxxLmov98R4wVi5BJWFs50sCRRJNWfX4ccpWsr9I79xAFtl7TdPD85DJv96yprcD1h2Wl1eiO6jRJqgQ9LlAqZhra8ccptQbeChzQ3vg8vagK4LHPvyBKzPLZlfBf8pwL3nAZZ_EImUlBOms3ffOSGmggcQPlA8lv3Y0Q23S1KPj9uEP51v63H8QeB6CE0kwvDIOoA17lVe90oCTlvefPk8VNUxc4LHfp3v4ZBX4xnC8DiK9Kor5TAwwMyIVwRkaPXJOOExghLanw3qZcae3ZRf9thP2KM1uqprAe5lM9D0Hn0i02dJUXW587YELx3NjNo4IZkjZl4PlfWn-dK2HPdc9PHvkYxIURdQhF-f1UENsMyIcBNeOSuwlklkKoTX5DmtKdaN_r2hTR5apjMwtC0v3gEks1s9CHmq5yXxBbQE8KcI-4gKnIRd0jycy5Mh1x9DAF693WJjsKeav4stxxZ9qeP182ZOSElEuz1R2LQtsI8jbz2VeLYM_NRdUi1d60P58yKGljyjyrCc5y5NuTLk-tv_xRld4sHEblxd_4C2yytz_UhsirmfVKoWjAWSLYnKj1L_WMVP6T2D8S_VYmHowOnMFA-ZN0goyk2X2l-c9bxvmtYa6apViFYIZxd-0W00]--></g></svg>