<svg xmlns="http://www.w3.org/2000/svg" xmlns:xlink="http://www.w3.org/1999/xlink" contentStyleType="text/css" data-diagram-type="SEQUENCE" height="747px" preserveAspectRatio="none" style="width:1039px;height:747px;background:#FFFFFF;" version="1.1" viewBox="0 0 1039 747" width="1039px" zoomAndPan="magnify"><title>Alur Proses Pembaruan Pengaturan Toko &amp; Landing Page</title><defs/><g><text fill="#000000" font-family="sans-serif" font-size="14" font-weight="bold" lengthAdjust="spacing" textLength="454.5078" x="293.75" y="27.9951">Alur Proses Pembaruan Pengaturan Toko &amp; Landing Page</text><g><title>main-app .PHP.</title><rect fill="#FFFFFF" height="499.3906" style="stroke:#181818;stroke-width:1;" width="10" x="496.5044" y="149.7266"/></g><g><title>File Storage .Host.</title><rect fill="#FFFFFF" height="29.1328" style="stroke:#181818;stroke-width:1;" width="10" x="716.4844" y="245.125"/></g><g><title>postgres-db</title><rect fill="#FFFFFF" height="347.7266" style="stroke:#181818;stroke-width:1;" width="10" x="973.2026" y="310.3906"/></g><g><title>postgres-db</title><rect fill="#FFFFFF" height="29.1328" style="stroke:#181818;stroke-width:1;" width="10" x="978.2026" y="378.7891"/></g><g><title>postgres-db</title><rect fill="#FFFFFF" height="29.1328" style="stroke:#181818;stroke-width:1;" width="10" x="978.2026" y="459.1875"/></g><g><title>postgres-db</title><rect fill="#FFFFFF" height="29.1328" style="stroke:#181818;stroke-width:1;" width="10" x="978.2026" y="532.5859"/></g><g><title>postgres-db</title><rect fill="#FFFFFF" height="29.1328" style="stroke:#181818;stroke-width:1;" width="10" x="978.2026" y="590.8516"/></g><rect fill="none" height="75.3984" style="stroke:#000000;stroke-width:1.5;" width="390.3184" x="429.9194" y="206.8594"/><rect fill="none" height="90.5313" style="stroke:#000000;stroke-width:1.5;" width="603.0884" x="429.9194" y="325.3906"/><g><title>User .Pemilik.</title><rect fill="#000000" fill-opacity="0.00000" height="548.5234" width="8" x="52.877" y="118.5938"/><line style="stroke:#181818;stroke-width:0.5;stroke-dasharray:5,5;" x1="56" x2="56" y1="118.5938" y2="667.1172"/></g><g><title>main-app .PHP.</title><rect fill="#000000" fill-opacity="0.00000" height="548.5234" width="8" x="497.5044" y="118.5938"/><line style="stroke:#181818;stroke-width:0.5;stroke-dasharray:5,5;" x1="500.9194" x2="500.9194" y1="118.5938" y2="667.1172"/></g><g><title>File Storage .Host.</title><rect fill="#000000" fill-opacity="0.00000" height="548.5234" width="8" x="717.4844" y="118.5938"/><line style="stroke:#181818;stroke-width:0.5;stroke-dasharray:5,5;" x1="721.0234" x2="721.0234" y1="118.5938" y2="667.1172"/></g><g><title>postgres-db</title><rect fill="#000000" fill-opacity="0.00000" height="548.5234" width="8" x="974.2026" y="118.5938"/><line style="stroke:#181818;stroke-width:0.5;stroke-dasharray:5,5;" x1="977.3975" x2="977.3975" y1="118.5938" y2="667.1172"/></g><g class="participant participant-head" data-participant="User"><text fill="#000000" font-family="sans-serif" font-size="14" lengthAdjust="spacing" textLength="97.7539" x="5" y="115.292">User (Pemilik)</text><ellipse cx="56.877" cy="50.7969" fill="#E2E2F0" rx="8" ry="8" style="stroke:#181818;stroke-width:0.5;"/><path d="M56.877,58.7969 L56.877,85.7969 M43.877,66.7969 L69.877,66.7969 M56.877,85.7969 L43.877,100.7969 M56.877,85.7969 L69.877,100.7969" fill="none" style="stroke:#181818;stroke-width:0.5;"/></g><g class="participant participant-tail" data-participant="User"><text fill="#000000" font-family="sans-serif" font-size="14" lengthAdjust="spacing" textLength="97.7539" x="5" y="679.1123">User (Pemilik)</text><ellipse cx="56.877" cy="690.9141" fill="#E2E2F0" rx="8" ry="8" style="stroke:#181818;stroke-width:0.5;"/><path d="M56.877,698.9141 L56.877,725.9141 M43.877,706.9141 L69.877,706.9141 M56.877,725.9141 L43.877,740.9141 M56.877,725.9141 L69.877,740.9141" fill="none" style="stroke:#181818;stroke-width:0.5;"/></g><g class="participant participant-head" data-participant="App"><rect fill="#E2E2F0" height="30.2969" rx="2.5" ry="2.5" style="stroke:#181818;stroke-width:0.5;" width="123.1699" x="439.9194" y="87.2969"/><text fill="#000000" font-family="sans-serif" font-size="14" lengthAdjust="spacing" textLength="109.1699" x="446.9194" y="107.292">main-app (PHP)</text></g><g class="participant participant-tail" data-participant="App"><rect fill="#E2E2F0" height="30.2969" rx="2.5" ry="2.5" style="stroke:#181818;stroke-width:0.5;" width="123.1699" x="439.9194" y="666.1172"/><text fill="#000000" font-family="sans-serif" font-size="14" lengthAdjust="spacing" textLength="109.1699" x="446.9194" y="686.1123">main-app (PHP)</text></g><g class="participant participant-head" data-participant="Storage"><rect fill="#E2E2F0" height="30.2969" rx="2.5" ry="2.5" style="stroke:#181818;stroke-width:0.5;" width="144.9219" x="649.0234" y="87.2969"/><text fill="#000000" font-family="sans-serif" font-size="14" lengthAdjust="spacing" textLength="130.9219" x="656.0234" y="107.292">File Storage (Host)</text></g><g class="participant participant-tail" data-participant="Storage"><rect fill="#E2E2F0" height="30.2969" rx="2.5" ry="2.5" style="stroke:#181818;stroke-width:0.5;" width="144.9219" x="649.0234" y="666.1172"/><text fill="#000000" font-family="sans-serif" font-size="14" lengthAdjust="spacing" textLength="130.9219" x="656.0234" y="686.1123">File Storage (Host)</text></g><g class="participant participant-head" data-participant="DB"><text fill="#000000" font-family="sans-serif" font-size="14" lengthAdjust="spacing" textLength="83.6104" x="933.3975" y="115.292">postgres-db</text><path d="M960.2026,66.2969 C960.2026,56.2969 978.2026,56.2969 978.2026,56.2969 C978.2026,56.2969 996.2026,56.2969 996.2026,66.2969 L996.2026,92.2969 C996.2026,102.2969 978.2026,102.2969 978.2026,102.2969 C978.2026,102.2969 960.2026,102.2969 960.2026,92.2969 L960.2026,66.2969" fill="#E2E2F0" style="stroke:#181818;stroke-width:0.5;"/><path d="M960.2026,66.2969 C960.2026,76.2969 978.2026,76.2969 978.2026,76.2969 C978.2026,76.2969 996.2026,76.2969 996.2026,66.2969" fill="none" style="stroke:#181818;stroke-width:0.5;"/></g><g class="participant participant-tail" data-participant="DB"><text fill="#000000" font-family="sans-serif" font-size="14" lengthAdjust="spacing" textLength="83.6104" x="933.3975" y="679.1123">postgres-db</text><path d="M960.2026,692.4141 C960.2026,682.4141 978.2026,682.4141 978.2026,682.4141 C978.2026,682.4141 996.2026,682.4141 996.2026,692.4141 L996.2026,718.4141 C996.2026,728.4141 978.2026,728.4141 978.2026,728.4141 C978.2026,728.4141 960.2026,728.4141 960.2026,718.4141 L960.2026,692.4141" fill="#E2E2F0" style="stroke:#181818;stroke-width:0.5;"/><path d="M960.2026,692.4141 C960.2026,702.4141 978.2026,702.4141 978.2026,702.4141 C978.2026,702.4141 996.2026,702.4141 996.2026,692.4141" fill="none" style="stroke:#181818;stroke-width:0.5;"/></g><g><title>main-app .PHP.</title><rect fill="#FFFFFF" height="499.3906" style="stroke:#181818;stroke-width:1;" width="10" x="496.5044" y="149.7266"/></g><g><title>File Storage .Host.</title><rect fill="#FFFFFF" height="29.1328" style="stroke:#181818;stroke-width:1;" width="10" x="716.4844" y="245.125"/></g><g><title>postgres-db</title><rect fill="#FFFFFF" height="347.7266" style="stroke:#181818;stroke-width:1;" width="10" x="973.2026" y="310.3906"/></g><g><title>postgres-db</title><rect fill="#FFFFFF" height="29.1328" style="stroke:#181818;stroke-width:1;" width="10" x="978.2026" y="378.7891"/></g><g><title>postgres-db</title><rect fill="#FFFFFF" height="29.1328" style="stroke:#181818;stroke-width:1;" width="10" x="978.2026" y="459.1875"/></g><g><title>postgres-db</title><rect fill="#FFFFFF" height="29.1328" style="stroke:#181818;stroke-width:1;" width="10" x="978.2026" y="532.5859"/></g><g><title>postgres-db</title><rect fill="#FFFFFF" height="29.1328" style="stroke:#181818;stroke-width:1;" width="10" x="978.2026" y="590.8516"/></g><g class="message" data-participant-1="User" data-participant-2="App"><polygon fill="#181818" points="484.5044,145.7266,494.5044,149.7266,484.5044,153.7266,488.5044,149.7266" style="stroke:#181818;stroke-width:1;"/><line style="stroke:#181818;stroke-width:1;" x1="56.877" x2="490.5044" y1="149.7266" y2="149.7266"/><text fill="#000000" font-family="sans-serif" font-size="13" lengthAdjust="spacing" textLength="420.6274" x="63.877" y="144.6606">1. POST /settings/store/update (data toko &amp; layout, file opsional)</text></g><g class="message" data-participant-1="App" data-participant-2="App"><line style="stroke:#181818;stroke-width:1;" x1="506.5044" x2="548.5044" y1="178.8594" y2="178.8594"/><line style="stroke:#181818;stroke-width:1;" x1="548.5044" x2="548.5044" y1="178.8594" y2="191.8594"/><line style="stroke:#181818;stroke-width:1;" x1="507.5044" x2="548.5044" y1="191.8594" y2="191.8594"/><polygon fill="#181818" points="517.5044,187.8594,507.5044,191.8594,517.5044,195.8594,513.5044,191.8594" style="stroke:#181818;stroke-width:1;"/><text fill="#000000" font-family="sans-serif" font-size="13" lengthAdjust="spacing" textLength="185.98" x="513.5044" y="173.7935">2. Validasi semua data input</text></g><path d="M429.9194,206.8594 L499.3706,206.8594 L499.3706,213.9922 L489.3706,223.9922 L429.9194,223.9922 L429.9194,206.8594" fill="#EEEEEE" style="stroke:#000000;stroke-width:1.5;"/><rect fill="none" height="75.3984" style="stroke:#000000;stroke-width:1.5;" width="390.3184" x="429.9194" y="206.8594"/><text fill="#000000" font-family="sans-serif" font-size="13" font-weight="bold" lengthAdjust="spacing" textLength="24.4512" x="444.9194" y="219.9263">opt</text><text fill="#000000" font-family="sans-serif" font-size="11" font-weight="bold" lengthAdjust="spacing" textLength="300.8672" x="514.3706" y="219.0698">[jika ada file baru yang diunggah (logo/favicon)]</text><g class="message" data-participant-1="App" data-participant-2="Storage"><polygon fill="#181818" points="704.4844,241.125,714.4844,245.125,704.4844,249.125,708.4844,245.125" style="stroke:#181818;stroke-width:1;"/><line style="stroke:#181818;stroke-width:1;" x1="506.5044" x2="710.4844" y1="245.125" y2="245.125"/><text fill="#000000" font-family="sans-serif" font-size="13" lengthAdjust="spacing" textLength="173.3418" x="513.5044" y="240.0591">3. Simpan file baru ke disk</text></g><g class="message" data-participant-1="Storage" data-participant-2="App"><polygon fill="#181818" points="517.5044,270.2578,507.5044,274.2578,517.5044,278.2578,513.5044,274.2578" style="stroke:#181818;stroke-width:1;"/><line style="stroke:#181818;stroke-width:1;stroke-dasharray:2,2;" x1="511.5044" x2="720.4844" y1="274.2578" y2="274.2578"/><text fill="#000000" font-family="sans-serif" font-size="13" lengthAdjust="spacing" textLength="139.6865" x="523.5044" y="269.1919">4. Path file tersimpan</text></g><g class="message" data-participant-1="App" data-participant-2="DB"><polygon fill="#181818" points="961.2026,306.3906,971.2026,310.3906,961.2026,314.3906,965.2026,310.3906" style="stroke:#181818;stroke-width:1;"/><line style="stroke:#181818;stroke-width:1;" x1="506.5044" x2="967.2026" y1="310.3906" y2="310.3906"/><text fill="#000000" font-family="sans-serif" font-size="13" lengthAdjust="spacing" textLength="156.2729" x="513.5044" y="305.3247">5. START TRANSACTION</text></g><path d="M429.9194,325.3906 L499.3706,325.3906 L499.3706,332.5234 L489.3706,342.5234 L429.9194,342.5234 L429.9194,325.3906" fill="#EEEEEE" style="stroke:#000000;stroke-width:1.5;"/><rect fill="none" height="90.5313" style="stroke:#000000;stroke-width:1.5;" width="603.0884" x="429.9194" y="325.3906"/><text fill="#000000" font-family="sans-serif" font-size="13" font-weight="bold" lengthAdjust="spacing" textLength="24.4512" x="444.9194" y="338.4575">opt</text><text fill="#000000" font-family="sans-serif" font-size="11" font-weight="bold" lengthAdjust="spacing" textLength="211.1484" x="514.3706" y="337.6011">[jika ada file baru yang diunggah]</text><g class="message" data-participant-1="App" data-participant-2="DB"><polygon fill="#181818" points="966.2026,374.7891,976.2026,378.7891,966.2026,382.7891,970.2026,378.7891" style="stroke:#181818;stroke-width:1;"/><line style="stroke:#181818;stroke-width:1;" x1="506.5044" x2="972.2026" y1="378.7891" y2="378.7891"/><text fill="#000000" font-family="sans-serif" font-size="13" lengthAdjust="spacing" textLength="194.105" x="513.5044" y="358.5903">6. Masukkan data file (media)</text><text fill="#000000" font-family="sans-serif" font-size="13" lengthAdjust="spacing" textLength="144.0156" x="513.5044" y="373.7231">INSERT INTO media ...</text></g><g class="message" data-participant-1="DB" data-participant-2="App"><polygon fill="#181818" points="517.5044,403.9219,507.5044,407.9219,517.5044,411.9219,513.5044,407.9219" style="stroke:#181818;stroke-width:1;"/><line style="stroke:#181818;stroke-width:1;stroke-dasharray:2,2;" x1="511.5044" x2="972.2026" y1="407.9219" y2="407.9219"/><text fill="#000000" font-family="sans-serif" font-size="13" lengthAdjust="spacing" textLength="109.3257" x="523.5044" y="402.856">7. media_id baru</text></g><g class="message" data-participant-1="App" data-participant-2="DB"><polygon fill="#181818" points="966.2026,455.1875,976.2026,459.1875,966.2026,463.1875,970.2026,459.1875" style="stroke:#181818;stroke-width:1;"/><line style="stroke:#181818;stroke-width:1;" x1="506.5044" x2="972.2026" y1="459.1875" y2="459.1875"/><text fill="#000000" font-family="sans-serif" font-size="13" lengthAdjust="spacing" textLength="191.4263" x="513.5044" y="438.9888">8. Perbarui data toko (stores)</text><text fill="#000000" font-family="sans-serif" font-size="13" lengthAdjust="spacing" textLength="359.1948" x="513.5044" y="454.1216">UPDATE stores SET store_name=?, logo_media_id=? ...</text></g><g class="message" data-participant-1="DB" data-participant-2="App"><polygon fill="#181818" points="517.5044,484.3203,507.5044,488.3203,517.5044,492.3203,513.5044,488.3203" style="stroke:#181818;stroke-width:1;"/><line style="stroke:#181818;stroke-width:1;stroke-dasharray:2,2;" x1="511.5044" x2="972.2026" y1="488.3203" y2="488.3203"/><text fill="#000000" font-family="sans-serif" font-size="13" lengthAdjust="spacing" textLength="189.4712" x="523.5044" y="483.2544">9. Konfirmasi toko diperbarui</text></g><g class="message" data-participant-1="App" data-participant-2="DB"><polygon fill="#181818" points="966.2026,528.5859,976.2026,532.5859,966.2026,536.5859,970.2026,532.5859" style="stroke:#181818;stroke-width:1;"/><line style="stroke:#181818;stroke-width:1;" x1="506.5044" x2="972.2026" y1="532.5859" y2="532.5859"/><text fill="#000000" font-family="sans-serif" font-size="13" lengthAdjust="spacing" textLength="258.7876" x="513.5044" y="512.3872">10. Perbarui data layout (store_layouts)</text><text fill="#000000" font-family="sans-serif" font-size="13" lengthAdjust="spacing" textLength="442.6982" x="513.5044" y="527.52">UPDATE store_layouts SET head_title=?, seo_meta_description=? ...</text></g><g class="message" data-participant-1="DB" data-participant-2="App"><polygon fill="#181818" points="517.5044,557.7188,507.5044,561.7188,517.5044,565.7188,513.5044,561.7188" style="stroke:#181818;stroke-width:1;"/><line style="stroke:#181818;stroke-width:1;stroke-dasharray:2,2;" x1="511.5044" x2="972.2026" y1="561.7188" y2="561.7188"/><text fill="#000000" font-family="sans-serif" font-size="13" lengthAdjust="spacing" textLength="209.771" x="523.5044" y="556.6528">11. Konfirmasi layout diperbarui</text></g><g class="message" data-participant-1="App" data-participant-2="DB"><polygon fill="#181818" points="966.2026,586.8516,976.2026,590.8516,966.2026,594.8516,970.2026,590.8516" style="stroke:#181818;stroke-width:1;"/><line style="stroke:#181818;stroke-width:1;" x1="506.5044" x2="972.2026" y1="590.8516" y2="590.8516"/><text fill="#000000" font-family="sans-serif" font-size="13" lengthAdjust="spacing" textLength="176.0015" x="513.5044" y="585.7856">12. COMMIT TRANSACTION</text></g><g class="message" data-participant-1="DB" data-participant-2="App"><polygon fill="#181818" points="517.5044,615.9844,507.5044,619.9844,517.5044,623.9844,513.5044,619.9844" style="stroke:#181818;stroke-width:1;"/><line style="stroke:#181818;stroke-width:1;stroke-dasharray:2,2;" x1="511.5044" x2="972.2026" y1="619.9844" y2="619.9844"/><text fill="#000000" font-family="sans-serif" font-size="13" lengthAdjust="spacing" textLength="136.646" x="523.5044" y="614.9185">13. Transaksi Sukses</text></g><g class="message" data-participant-1="App" data-participant-2="User"><polygon fill="#181818" points="67.877,645.1172,57.877,649.1172,67.877,653.1172,63.877,649.1172" style="stroke:#181818;stroke-width:1;"/><line style="stroke:#181818;stroke-width:1;stroke-dasharray:2,2;" x1="61.877" x2="500.5044" y1="649.1172" y2="649.1172"/><text fill="#000000" font-family="sans-serif" font-size="13" lengthAdjust="spacing" textLength="294.8613" x="73.877" y="644.0513">14. Response (Sukses: Pengaturan disimpan)</text></g><!--SRC=[ZPHjJzim4CVV-rES-c9h9Pgk6tj2OgXG9ggDjY9XhoPLHss2byIs_834jz_PQKi3GwElailT_tx_wzblOIgnjDZ0jGqU5GJbGmMJEbXOYkO6RQ3WKgWIVR3qMEXAC-QbhyKcosedtCl9y0P-ek9IbR34KZ26QwyjzAwTiD2dCbdBQj03T113pA3rSYqDAW-z1gKQeZ6KUB5iaoR6T7E-IqB9IPFKeN-XdMyJDo76qUCDEW4zGzzAAzoGtwICwIbZ2MFuBSh24OmpM2xo0aPEU4_8RkH8HOo28HLIZrhWMrSrFkZW3-0szjV6IQsm7aHxyZucHr0MPNVgxpFuXRNaw2GuqGI4f2UL2PunRJpyaHK2Scn5uq3X0MboN0PLbdW7_LgNUdIBztAjrO01_JOjjXCuWWyPvBAXuUofL88qN9KATeJR2SNWjdouepsaMQ2_QqMyi2vffcGkdca8nNTkfwTK_f4eYibL0SNLP9vFpehPOluud3ZwrnZUTvXaFsLmYIvK5TbBqqk5_KPmYOFVQZRFpwddR5ui8CKWoxAkQseTtqdjqUldhCrUIPuWdhgaccS6lz1yX8tP4XxtefyMnX7AzN8wASwXVOVyl6WVLmeRSNno0F6VN6sx7fyaqFs67S2l6VpGwbRQ9YvFwiIbsRHdNT8EvVZTKynsRpUWg_RjAUysdB3l1F9LEl4Hsub8xN75XLjRQJpj_V_en-CE_eRWbGRer9mjBYzdBszIjnUjVq6NZyEAMkMXejlfd_fKaGu_bT2gNmbdjA9Rej-M7EtVOtHqql8FzeL8v2y0]--></g></svg>