<svg xmlns="http://www.w3.org/2000/svg" xmlns:xlink="http://www.w3.org/1999/xlink" contentStyleType="text/css" data-diagram-type="SEQUENCE" height="537px" preserveAspectRatio="none" style="width:1020px;height:537px;background:#FFFFFF;" version="1.1" viewBox="0 0 1020 537" width="1020px" zoomAndPan="magnify"><title>Alur Proses Menghasilkan Laporan Stok (Inventori)</title><defs/><g><text fill="#000000" font-family="sans-serif" font-size="14" font-weight="bold" lengthAdjust="spacing" textLength="403.9082" x="309.9656" y="27.9951">Alur Proses Menghasilkan Laporan Stok (Inventori)</text><g><title>main-app .PHP.</title><rect fill="#FFFFFF" height="289.4609" style="stroke:#181818;stroke-width:1;" width="10" x="509.9395" y="149.7266"/></g><g><title>postgres-db</title><rect fill="#FFFFFF" height="29.1328" style="stroke:#181818;stroke-width:1;" width="10" x="970.0342" y="338.7891"/></g><g><title>User .Pemilik.Pegawai.</title><rect fill="#000000" fill-opacity="0.00000" height="338.5938" width="8" x="84.4556" y="118.5938"/><line style="stroke:#181818;stroke-width:0.5;stroke-dasharray:5,5;" x1="88" x2="88" y1="118.5938" y2="457.1875"/></g><g><title>main-app .PHP.</title><rect fill="#000000" fill-opacity="0.00000" height="338.5938" width="8" x="510.9395" y="118.5938"/><line style="stroke:#181818;stroke-width:0.5;stroke-dasharray:5,5;" x1="514.3545" x2="514.3545" y1="118.5938" y2="457.1875"/></g><g><title>postgres-db</title><rect fill="#000000" fill-opacity="0.00000" height="338.5938" width="8" x="971.0342" y="118.5938"/><line style="stroke:#181818;stroke-width:0.5;stroke-dasharray:5,5;" x1="974.229" x2="974.229" y1="118.5938" y2="457.1875"/></g><g class="participant participant-head" data-participant="User"><text fill="#000000" font-family="sans-serif" font-size="14" lengthAdjust="spacing" textLength="160.9111" x="5" y="115.292">User (Pemilik/Pegawai)</text><ellipse cx="88.4556" cy="50.7969" fill="#E2E2F0" rx="8" ry="8" style="stroke:#181818;stroke-width:0.5;"/><path d="M88.4556,58.7969 L88.4556,85.7969 M75.4556,66.7969 L101.4556,66.7969 M88.4556,85.7969 L75.4556,100.7969 M88.4556,85.7969 L101.4556,100.7969" fill="none" style="stroke:#181818;stroke-width:0.5;"/></g><g class="participant participant-tail" data-participant="User"><text fill="#000000" font-family="sans-serif" font-size="14" lengthAdjust="spacing" textLength="160.9111" x="5" y="469.1826">User (Pemilik/Pegawai)</text><ellipse cx="88.4556" cy="480.9844" fill="#E2E2F0" rx="8" ry="8" style="stroke:#181818;stroke-width:0.5;"/><path d="M88.4556,488.9844 L88.4556,515.9844 M75.4556,496.9844 L101.4556,496.9844 M88.4556,515.9844 L75.4556,530.9844 M88.4556,515.9844 L101.4556,530.9844" fill="none" style="stroke:#181818;stroke-width:0.5;"/></g><g class="participant participant-head" data-participant="App"><rect fill="#E2E2F0" height="30.2969" rx="2.5" ry="2.5" style="stroke:#181818;stroke-width:0.5;" width="123.1699" x="453.3545" y="87.2969"/><text fill="#000000" font-family="sans-serif" font-size="14" lengthAdjust="spacing" textLength="109.1699" x="460.3545" y="107.292">main-app (PHP)</text></g><g class="participant participant-tail" data-participant="App"><rect fill="#E2E2F0" height="30.2969" rx="2.5" ry="2.5" style="stroke:#181818;stroke-width:0.5;" width="123.1699" x="453.3545" y="456.1875"/><text fill="#000000" font-family="sans-serif" font-size="14" lengthAdjust="spacing" textLength="109.1699" x="460.3545" y="476.1826">main-app (PHP)</text></g><g class="participant participant-head" data-participant="DB"><text fill="#000000" font-family="sans-serif" font-size="14" lengthAdjust="spacing" textLength="83.6104" x="930.229" y="115.292">postgres-db</text><path d="M957.0342,66.2969 C957.0342,56.2969 975.0342,56.2969 975.0342,56.2969 C975.0342,56.2969 993.0342,56.2969 993.0342,66.2969 L993.0342,92.2969 C993.0342,102.2969 975.0342,102.2969 975.0342,102.2969 C975.0342,102.2969 957.0342,102.2969 957.0342,92.2969 L957.0342,66.2969" fill="#E2E2F0" style="stroke:#181818;stroke-width:0.5;"/><path d="M957.0342,66.2969 C957.0342,76.2969 975.0342,76.2969 975.0342,76.2969 C975.0342,76.2969 993.0342,76.2969 993.0342,66.2969" fill="none" style="stroke:#181818;stroke-width:0.5;"/></g><g class="participant participant-tail" data-participant="DB"><text fill="#000000" font-family="sans-serif" font-size="14" lengthAdjust="spacing" textLength="83.6104" x="930.229" y="469.1826">postgres-db</text><path d="M957.0342,482.4844 C957.0342,472.4844 975.0342,472.4844 975.0342,472.4844 C975.0342,472.4844 993.0342,472.4844 993.0342,482.4844 L993.0342,508.4844 C993.0342,518.4844 975.0342,518.4844 975.0342,518.4844 C975.0342,518.4844 957.0342,518.4844 957.0342,508.4844 L957.0342,482.4844" fill="#E2E2F0" style="stroke:#181818;stroke-width:0.5;"/><path d="M957.0342,482.4844 C957.0342,492.4844 975.0342,492.4844 975.0342,492.4844 C975.0342,492.4844 993.0342,492.4844 993.0342,482.4844" fill="none" style="stroke:#181818;stroke-width:0.5;"/></g><g><title>main-app .PHP.</title><rect fill="#FFFFFF" height="289.4609" style="stroke:#181818;stroke-width:1;" width="10" x="509.9395" y="149.7266"/></g><g><title>postgres-db</title><rect fill="#FFFFFF" height="29.1328" style="stroke:#181818;stroke-width:1;" width="10" x="970.0342" y="338.7891"/></g><g class="message" data-participant-1="User" data-participant-2="App"><polygon fill="#181818" points="497.9395,145.7266,507.9395,149.7266,497.9395,153.7266,501.9395,149.7266" style="stroke:#181818;stroke-width:1;"/><line style="stroke:#181818;stroke-width:1;" x1="88.4556" x2="503.9395" y1="149.7266" y2="149.7266"/><text fill="#000000" font-family="sans-serif" font-size="13" lengthAdjust="spacing" textLength="275.52" x="95.4556" y="144.6606">1. GET /reports/inventory?filter=low_stock</text></g><g class="message" data-participant-1="App" data-participant-2="App"><line style="stroke:#181818;stroke-width:1;" x1="519.9395" x2="561.9395" y1="178.8594" y2="178.8594"/><line style="stroke:#181818;stroke-width:1;" x1="561.9395" x2="561.9395" y1="178.8594" y2="191.8594"/><line style="stroke:#181818;stroke-width:1;" x1="520.9395" x2="561.9395" y1="191.8594" y2="191.8594"/><polygon fill="#181818" points="530.9395,187.8594,520.9395,191.8594,530.9395,195.8594,526.9395,191.8594" style="stroke:#181818;stroke-width:1;"/><text fill="#000000" font-family="sans-serif" font-size="13" lengthAdjust="spacing" textLength="257.6704" x="526.9395" y="173.7935">2. Validasi input &amp; hak akses pengguna</text></g><g class="message" data-participant-1="App" data-participant-2="App"><line style="stroke:#181818;stroke-width:1;" x1="519.9395" x2="561.9395" y1="220.9922" y2="220.9922"/><line style="stroke:#181818;stroke-width:1;" x1="561.9395" x2="561.9395" y1="220.9922" y2="233.9922"/><line style="stroke:#181818;stroke-width:1;" x1="520.9395" x2="561.9395" y1="233.9922" y2="233.9922"/><polygon fill="#181818" points="530.9395,229.9922,520.9395,233.9922,530.9395,237.9922,526.9395,233.9922" style="stroke:#181818;stroke-width:1;"/><text fill="#000000" font-family="sans-serif" font-size="13" lengthAdjust="spacing" textLength="200.313" x="526.9395" y="215.9263">3. Ambil store_id dari sesi user</text></g><g class="message" data-participant-1="App" data-participant-2="DB"><polygon fill="#181818" points="958.0342,334.7891,968.0342,338.7891,958.0342,342.7891,962.0342,338.7891" style="stroke:#181818;stroke-width:1;"/><line style="stroke:#181818;stroke-width:1;" x1="519.9395" x2="964.0342" y1="338.7891" y2="338.7891"/><text fill="#000000" font-family="sans-serif" font-size="13" lengthAdjust="spacing" textLength="277.6973" x="526.9395" y="258.0591">4. Kirim Query untuk mengambil data stok</text><text fill="#000000" font-family="sans-serif" font-size="13" lengthAdjust="spacing" textLength="431.0947" x="526.9395" y="273.1919">SELECT p.product_name, v.variant_name, v.variant_value, v.stock</text><text fill="#000000" font-family="sans-serif" font-size="13" lengthAdjust="spacing" textLength="111.5347" x="526.9395" y="288.3247">FROM products p</text><text fill="#000000" font-family="sans-serif" font-size="13" lengthAdjust="spacing" textLength="361.9497" x="526.9395" y="303.4575">JOIN product_variants v ON p.product_id = v.product_id</text><text fill="#000000" font-family="sans-serif" font-size="13" lengthAdjust="spacing" textLength="142.1938" x="526.9395" y="318.5903">WHERE p.store_id = ?</text><text fill="#000000" font-family="sans-serif" font-size="13" lengthAdjust="spacing" textLength="148.3257" x="526.9395" y="333.7231">ORDER BY v.stock ASC</text></g><g class="message" data-participant-1="DB" data-participant-2="App"><polygon fill="#181818" points="530.9395,363.9219,520.9395,367.9219,530.9395,371.9219,526.9395,367.9219" style="stroke:#181818;stroke-width:1;"/><line style="stroke:#181818;stroke-width:1;stroke-dasharray:2,2;" x1="524.9395" x2="974.0342" y1="367.9219" y2="367.9219"/><text fill="#000000" font-family="sans-serif" font-size="13" lengthAdjust="spacing" textLength="284.0894" x="536.9395" y="362.856">5. Hasil data laporan (daftar produk &amp; stok)</text></g><g class="message" data-participant-1="App" data-participant-2="App"><line style="stroke:#181818;stroke-width:1;" x1="519.9395" x2="561.9395" y1="397.0547" y2="397.0547"/><line style="stroke:#181818;stroke-width:1;" x1="561.9395" x2="561.9395" y1="397.0547" y2="410.0547"/><line style="stroke:#181818;stroke-width:1;" x1="520.9395" x2="561.9395" y1="410.0547" y2="410.0547"/><polygon fill="#181818" points="530.9395,406.0547,520.9395,410.0547,530.9395,414.0547,526.9395,410.0547" style="stroke:#181818;stroke-width:1;"/><text fill="#000000" font-family="sans-serif" font-size="13" lengthAdjust="spacing" textLength="344.4175" x="526.9395" y="391.9888">6. Proses dan format data untuk ditampilkan di tabel</text></g><g class="message" data-participant-1="App" data-participant-2="User"><polygon fill="#181818" points="99.4556,435.1875,89.4556,439.1875,99.4556,443.1875,95.4556,439.1875" style="stroke:#181818;stroke-width:1;"/><line style="stroke:#181818;stroke-width:1;stroke-dasharray:2,2;" x1="93.4556" x2="513.9395" y1="439.1875" y2="439.1875"/><text fill="#000000" font-family="sans-serif" font-size="13" lengthAdjust="spacing" textLength="397.4839" x="105.4556" y="434.1216">7. Response (Tampilkan halaman laporan stok dengan tabel)</text></g><!--SRC=[TLBRRXen47tVhnZnq88K5lKQAHAD86nBqYHG8Aqg8Q416nYjrslPtetozntlXHHLVVBjp9bpZkSjJ0WF5ZDuieL73ONsHGeZLLXuaFfmH4SgvVjxDBdbTUdpD8eyUILhrDpcJhh_Ww5xgqkfVMwf5qMuumrqdfoqq9tBZ1IbWxayu3DIhmFe83n51gsd7HdK7ZePakwZCLmmdTUWaJ6HG8zRT18w9dV-OANhYstrEXb7KTMX_oKWuGhUnV0jMS70IXRctO0QII_NUr9Usg7AdpVEvxiqAAGIlQnwHA7ynF8-Xf-eIB1D86qA3s_WY2bW6X8mdC2Xq7XUyo66KROb1SnkvOO42BG4N41G1AijV39czCSOlfEb37uKqhuqdv4nCLOSmN8WIjTwcTmdDoimiR6vA7P-ep6J5r369TDpRF-SIrH5TL7PNEklYza3DCKiVgtlPhUFxSMcgN9GmkpnhowiVyWShyUr_ZLD5Wb3JWQ7SBtMiyKaMS3uTziGHikRrsp33x7X_YccJp5Cm_JK5bKpFrs1Uu-sLfLosi5xBnBoZEWixyznEv622VQvpT3Nf7MOWZncfXvJGS0Z95L3mHpLr5p1PGmBwKokURgwgnF-Y0epNbjvGGs8y3kw9ZgJnfn_0000]--></g></svg>