<svg xmlns="http://www.w3.org/2000/svg" xmlns:xlink="http://www.w3.org/1999/xlink" contentStyleType="text/css" data-diagram-type="SEQUENCE" height="883px" preserveAspectRatio="none" style="width:950px;height:883px;background:#FFFFFF;" version="1.1" viewBox="0 0 950 883" width="950px" zoomAndPan="magnify"><title>Alur Proses Penerbitan Produk Baru</title><defs/><g><text fill="#000000" font-family="sans-serif" font-size="14" font-weight="bold" lengthAdjust="spacing" textLength="285.0654" x="334.2783" y="27.9951">Alur Proses Penerbitan Produk Baru</text><g><title>main-app .PHP.</title><rect fill="#FFFFFF" height="635.0547" style="stroke:#181818;stroke-width:1;" width="10" x="509.0146" y="149.7266"/></g><g><title>File Storage .Host.</title><rect fill="#FFFFFF" height="29.1328" style="stroke:#181818;stroke-width:1;" width="10" x="731.999" y="245.125"/></g><g><title>postgres-db</title><rect fill="#FFFFFF" height="483.3906" style="stroke:#181818;stroke-width:1;" width="10" x="884.8169" y="310.3906"/></g><g><title>postgres-db</title><rect fill="#FFFFFF" height="29.1328" style="stroke:#181818;stroke-width:1;" width="10" x="889.8169" y="378.7891"/></g><g><title>postgres-db</title><rect fill="#FFFFFF" height="29.1328" style="stroke:#181818;stroke-width:1;" width="10" x="889.8169" y="459.1875"/></g><g><title>postgres-db</title><rect fill="#FFFFFF" height="29.1328" style="stroke:#181818;stroke-width:1;" width="10" x="889.8169" y="556.7188"/></g><g><title>postgres-db</title><rect fill="#FFFFFF" height="29.1328" style="stroke:#181818;stroke-width:1;" width="10" x="889.8169" y="661.25"/></g><g><title>postgres-db</title><rect fill="#FFFFFF" height="29.1328" style="stroke:#181818;stroke-width:1;" width="10" x="889.8169" y="726.5156"/></g><rect fill="none" height="75.3984" style="stroke:#000000;stroke-width:1.5;" width="377.0303" x="442.4297" y="206.8594"/><rect fill="none" height="90.5313" style="stroke:#000000;stroke-width:1.5;" width="502.1924" x="442.4297" y="325.3906"/><rect fill="none" height="90.5313" style="stroke:#000000;stroke-width:1.5;" width="502.1924" x="442.4297" y="503.3203"/><rect fill="none" height="90.5313" style="stroke:#000000;stroke-width:1.5;" width="502.1924" x="442.4297" y="607.8516"/><g><title>User .Pemilik.Pegawai.</title><rect fill="#000000" fill-opacity="0.00000" height="684.1875" width="8" x="84.4556" y="118.5938"/><line style="stroke:#181818;stroke-width:0.5;stroke-dasharray:5,5;" x1="88" x2="88" y1="118.5938" y2="802.7813"/></g><g><title>main-app .PHP.</title><rect fill="#000000" fill-opacity="0.00000" height="684.1875" width="8" x="510.0146" y="118.5938"/><line style="stroke:#181818;stroke-width:0.5;stroke-dasharray:5,5;" x1="513.4297" x2="513.4297" y1="118.5938" y2="802.7813"/></g><g><title>File Storage .Host.</title><rect fill="#000000" fill-opacity="0.00000" height="684.1875" width="8" x="732.999" y="118.5938"/><line style="stroke:#181818;stroke-width:0.5;stroke-dasharray:5,5;" x1="736.5381" x2="736.5381" y1="118.5938" y2="802.7813"/></g><g><title>postgres-db</title><rect fill="#000000" fill-opacity="0.00000" height="684.1875" width="8" x="885.8169" y="118.5938"/><line style="stroke:#181818;stroke-width:0.5;stroke-dasharray:5,5;" x1="889.0117" x2="889.0117" y1="118.5938" y2="802.7813"/></g><g class="participant participant-head" data-participant="User"><text fill="#000000" font-family="sans-serif" font-size="14" lengthAdjust="spacing" textLength="160.9111" x="5" y="115.292">User (Pemilik/Pegawai)</text><ellipse cx="88.4556" cy="50.7969" fill="#E2E2F0" rx="8" ry="8" style="stroke:#181818;stroke-width:0.5;"/><path d="M88.4556,58.7969 L88.4556,85.7969 M75.4556,66.7969 L101.4556,66.7969 M88.4556,85.7969 L75.4556,100.7969 M88.4556,85.7969 L101.4556,100.7969" fill="none" style="stroke:#181818;stroke-width:0.5;"/></g><g class="participant participant-tail" data-participant="User"><text fill="#000000" font-family="sans-serif" font-size="14" lengthAdjust="spacing" textLength="160.9111" x="5" y="814.7764">User (Pemilik/Pegawai)</text><ellipse cx="88.4556" cy="826.5781" fill="#E2E2F0" rx="8" ry="8" style="stroke:#181818;stroke-width:0.5;"/><path d="M88.4556,834.5781 L88.4556,861.5781 M75.4556,842.5781 L101.4556,842.5781 M88.4556,861.5781 L75.4556,876.5781 M88.4556,861.5781 L101.4556,876.5781" fill="none" style="stroke:#181818;stroke-width:0.5;"/></g><g class="participant participant-head" data-participant="App"><rect fill="#E2E2F0" height="30.2969" rx="2.5" ry="2.5" style="stroke:#181818;stroke-width:0.5;" width="123.1699" x="452.4297" y="87.2969"/><text fill="#000000" font-family="sans-serif" font-size="14" lengthAdjust="spacing" textLength="109.1699" x="459.4297" y="107.292">main-app (PHP)</text></g><g class="participant participant-tail" data-participant="App"><rect fill="#E2E2F0" height="30.2969" rx="2.5" ry="2.5" style="stroke:#181818;stroke-width:0.5;" width="123.1699" x="452.4297" y="801.7813"/><text fill="#000000" font-family="sans-serif" font-size="14" lengthAdjust="spacing" textLength="109.1699" x="459.4297" y="821.7764">main-app (PHP)</text></g><g class="participant participant-head" data-participant="Storage"><rect fill="#E2E2F0" height="30.2969" rx="2.5" ry="2.5" style="stroke:#181818;stroke-width:0.5;" width="144.9219" x="664.5381" y="87.2969"/><text fill="#000000" font-family="sans-serif" font-size="14" lengthAdjust="spacing" textLength="130.9219" x="671.5381" y="107.292">File Storage (Host)</text></g><g class="participant participant-tail" data-participant="Storage"><rect fill="#E2E2F0" height="30.2969" rx="2.5" ry="2.5" style="stroke:#181818;stroke-width:0.5;" width="144.9219" x="664.5381" y="801.7813"/><text fill="#000000" font-family="sans-serif" font-size="14" lengthAdjust="spacing" textLength="130.9219" x="671.5381" y="821.7764">File Storage (Host)</text></g><g class="participant participant-head" data-participant="DB"><text fill="#000000" font-family="sans-serif" font-size="14" lengthAdjust="spacing" textLength="83.6104" x="845.0117" y="115.292">postgres-db</text><path d="M871.8169,66.2969 C871.8169,56.2969 889.8169,56.2969 889.8169,56.2969 C889.8169,56.2969 907.8169,56.2969 907.8169,66.2969 L907.8169,92.2969 C907.8169,102.2969 889.8169,102.2969 889.8169,102.2969 C889.8169,102.2969 871.8169,102.2969 871.8169,92.2969 L871.8169,66.2969" fill="#E2E2F0" style="stroke:#181818;stroke-width:0.5;"/><path d="M871.8169,66.2969 C871.8169,76.2969 889.8169,76.2969 889.8169,76.2969 C889.8169,76.2969 907.8169,76.2969 907.8169,66.2969" fill="none" style="stroke:#181818;stroke-width:0.5;"/></g><g class="participant participant-tail" data-participant="DB"><text fill="#000000" font-family="sans-serif" font-size="14" lengthAdjust="spacing" textLength="83.6104" x="845.0117" y="814.7764">postgres-db</text><path d="M871.8169,828.0781 C871.8169,818.0781 889.8169,818.0781 889.8169,818.0781 C889.8169,818.0781 907.8169,818.0781 907.8169,828.0781 L907.8169,854.0781 C907.8169,864.0781 889.8169,864.0781 889.8169,864.0781 C889.8169,864.0781 871.8169,864.0781 871.8169,854.0781 L871.8169,828.0781" fill="#E2E2F0" style="stroke:#181818;stroke-width:0.5;"/><path d="M871.8169,828.0781 C871.8169,838.0781 889.8169,838.0781 889.8169,838.0781 C889.8169,838.0781 907.8169,838.0781 907.8169,828.0781" fill="none" style="stroke:#181818;stroke-width:0.5;"/></g><g><title>main-app .PHP.</title><rect fill="#FFFFFF" height="635.0547" style="stroke:#181818;stroke-width:1;" width="10" x="509.0146" y="149.7266"/></g><g><title>File Storage .Host.</title><rect fill="#FFFFFF" height="29.1328" style="stroke:#181818;stroke-width:1;" width="10" x="731.999" y="245.125"/></g><g><title>postgres-db</title><rect fill="#FFFFFF" height="483.3906" style="stroke:#181818;stroke-width:1;" width="10" x="884.8169" y="310.3906"/></g><g><title>postgres-db</title><rect fill="#FFFFFF" height="29.1328" style="stroke:#181818;stroke-width:1;" width="10" x="889.8169" y="378.7891"/></g><g><title>postgres-db</title><rect fill="#FFFFFF" height="29.1328" style="stroke:#181818;stroke-width:1;" width="10" x="889.8169" y="459.1875"/></g><g><title>postgres-db</title><rect fill="#FFFFFF" height="29.1328" style="stroke:#181818;stroke-width:1;" width="10" x="889.8169" y="556.7188"/></g><g><title>postgres-db</title><rect fill="#FFFFFF" height="29.1328" style="stroke:#181818;stroke-width:1;" width="10" x="889.8169" y="661.25"/></g><g><title>postgres-db</title><rect fill="#FFFFFF" height="29.1328" style="stroke:#181818;stroke-width:1;" width="10" x="889.8169" y="726.5156"/></g><g class="message" data-participant-1="User" data-participant-2="App"><polygon fill="#181818" points="497.0146,145.7266,507.0146,149.7266,497.0146,153.7266,501.0146,149.7266" style="stroke:#181818;stroke-width:1;"/><line style="stroke:#181818;stroke-width:1;" x1="88.4556" x2="503.0146" y1="149.7266" y2="149.7266"/><text fill="#000000" font-family="sans-serif" font-size="13" lengthAdjust="spacing" textLength="401.5591" x="95.4556" y="144.6606">1. POST /products/create (data produk, varian, &amp; file gambar)</text></g><g class="message" data-participant-1="App" data-participant-2="App"><line style="stroke:#181818;stroke-width:1;" x1="519.0146" x2="561.0146" y1="178.8594" y2="178.8594"/><line style="stroke:#181818;stroke-width:1;" x1="561.0146" x2="561.0146" y1="178.8594" y2="191.8594"/><line style="stroke:#181818;stroke-width:1;" x1="520.0146" x2="561.0146" y1="191.8594" y2="191.8594"/><polygon fill="#181818" points="530.0146,187.8594,520.0146,191.8594,530.0146,195.8594,526.0146,191.8594" style="stroke:#181818;stroke-width:1;"/><text fill="#000000" font-family="sans-serif" font-size="13" lengthAdjust="spacing" textLength="138.2075" x="526.0146" y="173.7935">2. Validasi data input</text></g><path d="M442.4297,206.8594 L519.0537,206.8594 L519.0537,213.9922 L509.0537,223.9922 L442.4297,223.9922 L442.4297,206.8594" fill="#EEEEEE" style="stroke:#000000;stroke-width:1.5;"/><rect fill="none" height="75.3984" style="stroke:#000000;stroke-width:1.5;" width="377.0303" x="442.4297" y="206.8594"/><text fill="#000000" font-family="sans-serif" font-size="13" font-weight="bold" lengthAdjust="spacing" textLength="31.624" x="457.4297" y="219.9263">loop</text><text fill="#000000" font-family="sans-serif" font-size="11" font-weight="bold" lengthAdjust="spacing" textLength="259.4775" x="534.0537" y="219.0698">[untuk setiap file gambar yang diunggah]</text><g class="message" data-participant-1="App" data-participant-2="Storage"><polygon fill="#181818" points="719.999,241.125,729.999,245.125,719.999,249.125,723.999,245.125" style="stroke:#181818;stroke-width:1;"/><line style="stroke:#181818;stroke-width:1;" x1="519.0146" x2="725.999" y1="245.125" y2="245.125"/><text fill="#000000" font-family="sans-serif" font-size="13" lengthAdjust="spacing" textLength="193.9844" x="526.0146" y="240.0591">3. Simpan file gambar ke disk</text></g><g class="message" data-participant-1="Storage" data-participant-2="App"><polygon fill="#181818" points="530.0146,270.2578,520.0146,274.2578,530.0146,278.2578,526.0146,274.2578" style="stroke:#181818;stroke-width:1;"/><line style="stroke:#181818;stroke-width:1;stroke-dasharray:2,2;" x1="524.0146" x2="735.999" y1="274.2578" y2="274.2578"/><text fill="#000000" font-family="sans-serif" font-size="13" lengthAdjust="spacing" textLength="139.6865" x="536.0146" y="269.1919">4. Path file tersimpan</text></g><g class="message" data-participant-1="App" data-participant-2="DB"><polygon fill="#181818" points="872.8169,306.3906,882.8169,310.3906,872.8169,314.3906,876.8169,310.3906" style="stroke:#181818;stroke-width:1;"/><line style="stroke:#181818;stroke-width:1;" x1="519.0146" x2="878.8169" y1="310.3906" y2="310.3906"/><text fill="#000000" font-family="sans-serif" font-size="13" lengthAdjust="spacing" textLength="156.2729" x="526.0146" y="305.3247">5. START TRANSACTION</text></g><path d="M442.4297,325.3906 L519.0537,325.3906 L519.0537,332.5234 L509.0537,342.5234 L442.4297,342.5234 L442.4297,325.3906" fill="#EEEEEE" style="stroke:#000000;stroke-width:1.5;"/><rect fill="none" height="90.5313" style="stroke:#000000;stroke-width:1.5;" width="502.1924" x="442.4297" y="325.3906"/><text fill="#000000" font-family="sans-serif" font-size="13" font-weight="bold" lengthAdjust="spacing" textLength="31.624" x="457.4297" y="338.4575">loop</text><text fill="#000000" font-family="sans-serif" font-size="11" font-weight="bold" lengthAdjust="spacing" textLength="259.4775" x="534.0537" y="337.6011">[untuk setiap file gambar yang diunggah]</text><g class="message" data-participant-1="App" data-participant-2="DB"><polygon fill="#181818" points="877.8169,374.7891,887.8169,378.7891,877.8169,382.7891,881.8169,378.7891" style="stroke:#181818;stroke-width:1;"/><line style="stroke:#181818;stroke-width:1;" x1="519.0146" x2="883.8169" y1="378.7891" y2="378.7891"/><text fill="#000000" font-family="sans-serif" font-size="13" lengthAdjust="spacing" textLength="224.7515" x="526.0146" y="358.5903">6. Masukkan data gambar (media)</text><text fill="#000000" font-family="sans-serif" font-size="13" lengthAdjust="spacing" textLength="144.0156" x="526.0146" y="373.7231">INSERT INTO media ...</text></g><g class="message" data-participant-1="DB" data-participant-2="App"><polygon fill="#181818" points="530.0146,403.9219,520.0146,407.9219,530.0146,411.9219,526.0146,407.9219" style="stroke:#181818;stroke-width:1;"/><line style="stroke:#181818;stroke-width:1;stroke-dasharray:2,2;" x1="524.0146" x2="883.8169" y1="407.9219" y2="407.9219"/><text fill="#000000" font-family="sans-serif" font-size="13" lengthAdjust="spacing" textLength="75.3911" x="536.0146" y="402.856">7. media_id</text></g><g class="message" data-participant-1="App" data-participant-2="DB"><polygon fill="#181818" points="877.8169,455.1875,887.8169,459.1875,877.8169,463.1875,881.8169,459.1875" style="stroke:#181818;stroke-width:1;"/><line style="stroke:#181818;stroke-width:1;" x1="519.0146" x2="883.8169" y1="459.1875" y2="459.1875"/><text fill="#000000" font-family="sans-serif" font-size="13" lengthAdjust="spacing" textLength="282.5088" x="526.0146" y="438.9888">8. Masukkan data produk utama (products)</text><text fill="#000000" font-family="sans-serif" font-size="13" lengthAdjust="spacing" textLength="160.583" x="526.0146" y="454.1216">INSERT INTO products ...</text></g><g class="message" data-participant-1="DB" data-participant-2="App"><polygon fill="#181818" points="530.0146,484.3203,520.0146,488.3203,530.0146,492.3203,526.0146,488.3203" style="stroke:#181818;stroke-width:1;"/><line style="stroke:#181818;stroke-width:1;stroke-dasharray:2,2;" x1="524.0146" x2="883.8169" y1="488.3203" y2="488.3203"/><text fill="#000000" font-family="sans-serif" font-size="13" lengthAdjust="spacing" textLength="85.1855" x="536.0146" y="483.2544">9. product_id</text></g><path d="M442.4297,503.3203 L519.0537,503.3203 L519.0537,510.4531 L509.0537,520.4531 L442.4297,520.4531 L442.4297,503.3203" fill="#EEEEEE" style="stroke:#000000;stroke-width:1.5;"/><rect fill="none" height="90.5313" style="stroke:#000000;stroke-width:1.5;" width="502.1924" x="442.4297" y="503.3203"/><text fill="#000000" font-family="sans-serif" font-size="13" font-weight="bold" lengthAdjust="spacing" textLength="31.624" x="457.4297" y="516.3872">loop</text><text fill="#000000" font-family="sans-serif" font-size="11" font-weight="bold" lengthAdjust="spacing" textLength="178.8628" x="534.0537" y="515.5308">[untuk setiap varian produk]</text><g class="message" data-participant-1="App" data-participant-2="DB"><polygon fill="#181818" points="877.8169,552.7188,887.8169,556.7188,877.8169,560.7188,881.8169,556.7188" style="stroke:#181818;stroke-width:1;"/><line style="stroke:#181818;stroke-width:1;" x1="519.0146" x2="883.8169" y1="556.7188" y2="556.7188"/><text fill="#000000" font-family="sans-serif" font-size="13" lengthAdjust="spacing" textLength="292.3857" x="526.0146" y="536.52">10. Masukkan data varian (product_variants)</text><text fill="#000000" font-family="sans-serif" font-size="13" lengthAdjust="spacing" textLength="213.002" x="526.0146" y="551.6528">INSERT INTO product_variants ...</text></g><g class="message" data-participant-1="DB" data-participant-2="App"><polygon fill="#181818" points="530.0146,581.8516,520.0146,585.8516,530.0146,589.8516,526.0146,585.8516" style="stroke:#181818;stroke-width:1;"/><line style="stroke:#181818;stroke-width:1;stroke-dasharray:2,2;" x1="524.0146" x2="883.8169" y1="585.8516" y2="585.8516"/><text fill="#000000" font-family="sans-serif" font-size="13" lengthAdjust="spacing" textLength="221.9268" x="536.0146" y="580.7856">11. Konfirmasi varian dimasukkan</text></g><path d="M442.4297,607.8516 L519.0537,607.8516 L519.0537,614.9844 L509.0537,624.9844 L442.4297,624.9844 L442.4297,607.8516" fill="#EEEEEE" style="stroke:#000000;stroke-width:1.5;"/><rect fill="none" height="90.5313" style="stroke:#000000;stroke-width:1.5;" width="502.1924" x="442.4297" y="607.8516"/><text fill="#000000" font-family="sans-serif" font-size="13" font-weight="bold" lengthAdjust="spacing" textLength="31.624" x="457.4297" y="620.9185">loop</text><text fill="#000000" font-family="sans-serif" font-size="11" font-weight="bold" lengthAdjust="spacing" textLength="198.5586" x="534.0537" y="620.062">[untuk setiap media_id gambar]</text><g class="message" data-participant-1="App" data-participant-2="DB"><polygon fill="#181818" points="877.8169,657.25,887.8169,661.25,877.8169,665.25,881.8169,661.25" style="stroke:#181818;stroke-width:1;"/><line style="stroke:#181818;stroke-width:1;" x1="519.0146" x2="883.8169" y1="661.25" y2="661.25"/><text fill="#000000" font-family="sans-serif" font-size="13" lengthAdjust="spacing" textLength="341.8022" x="526.0146" y="641.0513">12. Hubungkan gambar ke produk (product_images)</text><text fill="#000000" font-family="sans-serif" font-size="13" lengthAdjust="spacing" textLength="207.5747" x="526.0146" y="656.1841">INSERT INTO product_images ...</text></g><g class="message" data-participant-1="DB" data-participant-2="App"><polygon fill="#181818" points="530.0146,686.3828,520.0146,690.3828,530.0146,694.3828,526.0146,690.3828" style="stroke:#181818;stroke-width:1;"/><line style="stroke:#181818;stroke-width:1;stroke-dasharray:2,2;" x1="524.0146" x2="883.8169" y1="690.3828" y2="690.3828"/><text fill="#000000" font-family="sans-serif" font-size="13" lengthAdjust="spacing" textLength="209.4219" x="536.0146" y="685.3169">13. Konfirmasi hubungan dibuat</text></g><g class="message" data-participant-1="App" data-participant-2="DB"><polygon fill="#181818" points="877.8169,722.5156,887.8169,726.5156,877.8169,730.5156,881.8169,726.5156" style="stroke:#181818;stroke-width:1;"/><line style="stroke:#181818;stroke-width:1;" x1="519.0146" x2="883.8169" y1="726.5156" y2="726.5156"/><text fill="#000000" font-family="sans-serif" font-size="13" lengthAdjust="spacing" textLength="176.0015" x="526.0146" y="721.4497">14. COMMIT TRANSACTION</text></g><g class="message" data-participant-1="DB" data-participant-2="App"><polygon fill="#181818" points="530.0146,751.6484,520.0146,755.6484,530.0146,759.6484,526.0146,755.6484" style="stroke:#181818;stroke-width:1;"/><line style="stroke:#181818;stroke-width:1;stroke-dasharray:2,2;" x1="524.0146" x2="883.8169" y1="755.6484" y2="755.6484"/><text fill="#000000" font-family="sans-serif" font-size="13" lengthAdjust="spacing" textLength="136.646" x="536.0146" y="750.5825">15. Transaksi Sukses</text></g><g class="message" data-participant-1="App" data-participant-2="User"><polygon fill="#181818" points="99.4556,780.7813,89.4556,784.7813,99.4556,788.7813,95.4556,784.7813" style="stroke:#181818;stroke-width:1;"/><line style="stroke:#181818;stroke-width:1;stroke-dasharray:2,2;" x1="93.4556" x2="513.0146" y1="784.7813" y2="784.7813"/><text fill="#000000" font-family="sans-serif" font-size="13" lengthAdjust="spacing" textLength="327.3994" x="105.4556" y="779.7153">16. Response (Redirect ke halaman detail produk)</text></g><!--SRC=[dLHDZzem4BtdLumuj20jeNJxkOTAiBHQL04HoVPKQJKXtc0bSIBRsLN_VSUE4mWK2JMtZ6VUlFSyuxUmu9XABE1HrXe5r4BN6SpoMaB019CnDz50bWc5voXhpzDSvyobo58nTJ4JTxgKC7XKJC8mO0NFUJO9M8glo4S3G0NcoAjGQhxZ5GeDWmAv66DLKS53q2JDgggVyuCJWP2mCMKmV2YLRX9To4jGOuoAmQ2YirGoDKvYcx6OUvwbC_vcOE4EfZu4cp22IMMOxxIQx2H3JRW61Mmqku4Nb1p53Ro1PzCynI96EJ8A-Ol9DXmzWzW1l_VX5-OyGSN1Gd5HrThpyhAidCsAQOxLCIByGP52mckHfhZtW3u7sigzWriVGbwG4xt2Z56Pocn9nwern0HRW777y0D9HxrlO3IJogBQv8ITOJ2HT0eNSoh_I3oYsJQ2Q3jRXxFxQBbP7mmnJl-dL8l-oOSLgZhBIAUrprKD2vPm7FqMotNudPelrz46R0nyt-_B9mxcd_0EeZ_xJVOJJqwLKlgPo2-dD9g105gM0c7O3iq9dpPiAHtZzwXyzTj4GwPFv1_UDIFe29pvDNrtojJbjnoVclzBNBlZwsoSqjxyBCKpbuKPSDShuOMZSCdRSrdjRRWBFXT6Y_HGnpGcHjbXsjr5TFAeTSekYMiEhvHssvEsjxsjkBX6VStGJ6cpxZUhrVBoRlGxqYf54eN2Z1g6TKQFwkayM7ogiAyNbT1-R9cgIa7Ft71B7agsqyQNFUOqcaINQUIvisbq34TGVm40]--></g></svg>