<svg xmlns="http://www.w3.org/2000/svg" xmlns:xlink="http://www.w3.org/1999/xlink" contentStyleType="text/css" data-diagram-type="SEQUENCE" height="569px" preserveAspectRatio="none" style="width:1235px;height:569px;background:#FFFFFF;" version="1.1" viewBox="0 0 1235 569" width="1235px" zoomAndPan="magnify"><title>Alur Proses Login Pengguna</title><defs/><g><text fill="#000000" font-family="sans-serif" font-size="14" font-weight="bold" lengthAdjust="spacing" textLength="222.5439" x="507.301" y="27.9951">Alur Proses Login Pengguna</text><g><title>reverse-proxy .Nginx.</title><rect fill="#FFFFFF" height="321.1328" style="stroke:#181818;stroke-width:1;" width="10" x="402.1602" y="149.7266"/></g><g><title>main-app .PHP.</title><rect fill="#FFFFFF" height="292" style="stroke:#181818;stroke-width:1;" width="10" x="824.5225" y="178.8594"/></g><g><title>postgres-db</title><rect fill="#FFFFFF" height="29.1328" style="stroke:#181818;stroke-width:1;" width="10" x="1168.3408" y="207.9922"/></g><g><title>postgres-db</title><rect fill="#FFFFFF" height="29.1328" style="stroke:#181818;stroke-width:1;" width="10" x="1168.3408" y="332.5234"/></g><rect fill="none" height="148.4688" style="stroke:#000000;stroke-width:1.5;" width="914.7568" x="313.3892" y="294.2578"/><g><title>User .Browser.</title><rect fill="#000000" fill-opacity="0.00000" height="370.2656" width="8" x="56.1616" y="118.5938"/><line style="stroke:#181818;stroke-width:0.5;stroke-dasharray:5,5;" x1="60" x2="60" y1="118.5938" y2="488.8594"/></g><g><title>reverse-proxy .Nginx.</title><rect fill="#000000" fill-opacity="0.00000" height="370.2656" width="8" x="403.1602" y="118.5938"/><line style="stroke:#181818;stroke-width:0.5;stroke-dasharray:5,5;" x1="406.3892" x2="406.3892" y1="118.5938" y2="488.8594"/></g><g><title>main-app .PHP.</title><rect fill="#000000" fill-opacity="0.00000" height="370.2656" width="8" x="825.5225" y="118.5938"/><line style="stroke:#181818;stroke-width:0.5;stroke-dasharray:5,5;" x1="828.9375" x2="828.9375" y1="118.5938" y2="488.8594"/></g><g><title>postgres-db</title><rect fill="#000000" fill-opacity="0.00000" height="370.2656" width="8" x="1169.3408" y="118.5938"/><line style="stroke:#181818;stroke-width:0.5;stroke-dasharray:5,5;" x1="1172.5356" x2="1172.5356" y1="118.5938" y2="488.8594"/></g><g class="participant participant-head" data-participant="User"><text fill="#000000" font-family="sans-serif" font-size="14" lengthAdjust="spacing" textLength="104.3232" x="5" y="115.292">User (Browser)</text><ellipse cx="60.1616" cy="50.7969" fill="#E2E2F0" rx="8" ry="8" style="stroke:#181818;stroke-width:0.5;"/><path d="M60.1616,58.7969 L60.1616,85.7969 M47.1616,66.7969 L73.1616,66.7969 M60.1616,85.7969 L47.1616,100.7969 M60.1616,85.7969 L73.1616,100.7969" fill="none" style="stroke:#181818;stroke-width:0.5;"/></g><g class="participant participant-tail" data-participant="User"><text fill="#000000" font-family="sans-serif" font-size="14" lengthAdjust="spacing" textLength="104.3232" x="5" y="500.8545">User (Browser)</text><ellipse cx="60.1616" cy="512.6563" fill="#E2E2F0" rx="8" ry="8" style="stroke:#181818;stroke-width:0.5;"/><path d="M60.1616,520.6563 L60.1616,547.6563 M47.1616,528.6563 L73.1616,528.6563 M60.1616,547.6563 L47.1616,562.6563 M60.1616,547.6563 L73.1616,562.6563" fill="none" style="stroke:#181818;stroke-width:0.5;"/></g><g class="participant participant-head" data-participant="Nginx"><rect fill="#E2E2F0" height="30.2969" rx="2.5" ry="2.5" style="stroke:#181818;stroke-width:0.5;" width="167.542" x="323.3892" y="87.2969"/><text fill="#000000" font-family="sans-serif" font-size="14" lengthAdjust="spacing" textLength="153.542" x="330.3892" y="107.292">reverse-proxy (Nginx)</text></g><g class="participant participant-tail" data-participant="Nginx"><rect fill="#E2E2F0" height="30.2969" rx="2.5" ry="2.5" style="stroke:#181818;stroke-width:0.5;" width="167.542" x="323.3892" y="487.8594"/><text fill="#000000" font-family="sans-serif" font-size="14" lengthAdjust="spacing" textLength="153.542" x="330.3892" y="507.8545">reverse-proxy (Nginx)</text></g><g class="participant participant-head" data-participant="App"><rect fill="#E2E2F0" height="30.2969" rx="2.5" ry="2.5" style="stroke:#181818;stroke-width:0.5;" width="123.1699" x="767.9375" y="87.2969"/><text fill="#000000" font-family="sans-serif" font-size="14" lengthAdjust="spacing" textLength="109.1699" x="774.9375" y="107.292">main-app (PHP)</text></g><g class="participant participant-tail" data-participant="App"><rect fill="#E2E2F0" height="30.2969" rx="2.5" ry="2.5" style="stroke:#181818;stroke-width:0.5;" width="123.1699" x="767.9375" y="487.8594"/><text fill="#000000" font-family="sans-serif" font-size="14" lengthAdjust="spacing" textLength="109.1699" x="774.9375" y="507.8545">main-app (PHP)</text></g><g class="participant participant-head" data-participant="DB"><text fill="#000000" font-family="sans-serif" font-size="14" lengthAdjust="spacing" textLength="83.6104" x="1128.5356" y="115.292">postgres-db</text><path d="M1155.3408,66.2969 C1155.3408,56.2969 1173.3408,56.2969 1173.3408,56.2969 C1173.3408,56.2969 1191.3408,56.2969 1191.3408,66.2969 L1191.3408,92.2969 C1191.3408,102.2969 1173.3408,102.2969 1173.3408,102.2969 C1173.3408,102.2969 1155.3408,102.2969 1155.3408,92.2969 L1155.3408,66.2969" fill="#E2E2F0" style="stroke:#181818;stroke-width:0.5;"/><path d="M1155.3408,66.2969 C1155.3408,76.2969 1173.3408,76.2969 1173.3408,76.2969 C1173.3408,76.2969 1191.3408,76.2969 1191.3408,66.2969" fill="none" style="stroke:#181818;stroke-width:0.5;"/></g><g class="participant participant-tail" data-participant="DB"><text fill="#000000" font-family="sans-serif" font-size="14" lengthAdjust="spacing" textLength="83.6104" x="1128.5356" y="500.8545">postgres-db</text><path d="M1155.3408,514.1563 C1155.3408,504.1563 1173.3408,504.1563 1173.3408,504.1563 C1173.3408,504.1563 1191.3408,504.1563 1191.3408,514.1563 L1191.3408,540.1563 C1191.3408,550.1563 1173.3408,550.1563 1173.3408,550.1563 C1173.3408,550.1563 1155.3408,550.1563 1155.3408,540.1563 L1155.3408,514.1563" fill="#E2E2F0" style="stroke:#181818;stroke-width:0.5;"/><path d="M1155.3408,514.1563 C1155.3408,524.1563 1173.3408,524.1563 1173.3408,524.1563 C1173.3408,524.1563 1191.3408,524.1563 1191.3408,514.1563" fill="none" style="stroke:#181818;stroke-width:0.5;"/></g><g><title>reverse-proxy .Nginx.</title><rect fill="#FFFFFF" height="321.1328" style="stroke:#181818;stroke-width:1;" width="10" x="402.1602" y="149.7266"/></g><g><title>main-app .PHP.</title><rect fill="#FFFFFF" height="292" style="stroke:#181818;stroke-width:1;" width="10" x="824.5225" y="178.8594"/></g><g><title>postgres-db</title><rect fill="#FFFFFF" height="29.1328" style="stroke:#181818;stroke-width:1;" width="10" x="1168.3408" y="207.9922"/></g><g><title>postgres-db</title><rect fill="#FFFFFF" height="29.1328" style="stroke:#181818;stroke-width:1;" width="10" x="1168.3408" y="332.5234"/></g><g class="message" data-participant-1="User" data-participant-2="Nginx"><polygon fill="#181818" points="390.1602,145.7266,400.1602,149.7266,390.1602,153.7266,394.1602,149.7266" style="stroke:#181818;stroke-width:1;"/><line style="stroke:#181818;stroke-width:1;" x1="60.1616" x2="396.1602" y1="149.7266" y2="149.7266"/><text fill="#000000" font-family="sans-serif" font-size="13" lengthAdjust="spacing" textLength="211.3198" x="67.1616" y="144.6606">1. POST /login (email, password)</text></g><g class="message" data-participant-1="Nginx" data-participant-2="App"><polygon fill="#181818" points="812.5225,174.8594,822.5225,178.8594,812.5225,182.8594,816.5225,178.8594" style="stroke:#181818;stroke-width:1;"/><line style="stroke:#181818;stroke-width:1;" x1="412.1602" x2="818.5225" y1="178.8594" y2="178.8594"/><text fill="#000000" font-family="sans-serif" font-size="13" lengthAdjust="spacing" textLength="160.2021" x="419.1602" y="173.7935">2. fastcgi_pass (request)</text></g><g class="message" data-participant-1="App" data-participant-2="DB"><polygon fill="#181818" points="1156.3408,203.9922,1166.3408,207.9922,1156.3408,211.9922,1160.3408,207.9922" style="stroke:#181818;stroke-width:1;"/><line style="stroke:#181818;stroke-width:1;" x1="834.5225" x2="1162.3408" y1="207.9922" y2="207.9922"/><text fill="#000000" font-family="sans-serif" font-size="13" lengthAdjust="spacing" textLength="314.8184" x="841.5225" y="202.9263">3. SELECT * FROM users WHERE email = [email]</text></g><g class="message" data-participant-1="DB" data-participant-2="App"><polygon fill="#181818" points="845.5225,233.125,835.5225,237.125,845.5225,241.125,841.5225,237.125" style="stroke:#181818;stroke-width:1;"/><line style="stroke:#181818;stroke-width:1;stroke-dasharray:2,2;" x1="839.5225" x2="1172.3408" y1="237.125" y2="237.125"/><text fill="#000000" font-family="sans-serif" font-size="13" lengthAdjust="spacing" textLength="259.2637" x="851.5225" y="232.0591">4. User data (termasuk password_hash)</text></g><g class="message" data-participant-1="App" data-participant-2="App"><line style="stroke:#181818;stroke-width:1;" x1="834.5225" x2="876.5225" y1="266.2578" y2="266.2578"/><line style="stroke:#181818;stroke-width:1;" x1="876.5225" x2="876.5225" y1="266.2578" y2="279.2578"/><line style="stroke:#181818;stroke-width:1;" x1="835.5225" x2="876.5225" y1="279.2578" y2="279.2578"/><polygon fill="#181818" points="845.5225,275.2578,835.5225,279.2578,845.5225,283.2578,841.5225,279.2578" style="stroke:#181818;stroke-width:1;"/><text fill="#000000" font-family="sans-serif" font-size="13" lengthAdjust="spacing" textLength="262.1709" x="841.5225" y="261.1919">5. Verifikasi password (password_verify)</text></g><path d="M313.3892,294.2578 L377.832,294.2578 L377.832,301.3906 L367.832,311.3906 L313.3892,311.3906 L313.3892,294.2578" fill="#EEEEEE" style="stroke:#000000;stroke-width:1.5;"/><rect fill="none" height="148.4688" style="stroke:#000000;stroke-width:1.5;" width="914.7568" x="313.3892" y="294.2578"/><text fill="#000000" font-family="sans-serif" font-size="13" font-weight="bold" lengthAdjust="spacing" textLength="19.4429" x="328.3892" y="307.3247">alt</text><text fill="#000000" font-family="sans-serif" font-size="11" font-weight="bold" lengthAdjust="spacing" textLength="129.7334" x="392.832" y="306.4683">[Jika password valid]</text><g class="message" data-participant-1="App" data-participant-2="DB"><polygon fill="#181818" points="1156.3408,328.5234,1166.3408,332.5234,1156.3408,336.5234,1160.3408,332.5234" style="stroke:#181818;stroke-width:1;"/><line style="stroke:#181818;stroke-width:1;" x1="834.5225" x2="1162.3408" y1="332.5234" y2="332.5234"/><text fill="#000000" font-family="sans-serif" font-size="13" lengthAdjust="spacing" textLength="205.9941" x="841.5225" y="327.4575">6. INSERT/UPDATE session data</text></g><g class="message" data-participant-1="DB" data-participant-2="App"><polygon fill="#181818" points="845.5225,357.6563,835.5225,361.6563,845.5225,365.6563,841.5225,361.6563" style="stroke:#181818;stroke-width:1;"/><line style="stroke:#181818;stroke-width:1;stroke-dasharray:2,2;" x1="839.5225" x2="1172.3408" y1="361.6563" y2="361.6563"/><text fill="#000000" font-family="sans-serif" font-size="13" lengthAdjust="spacing" textLength="84.1128" x="851.5225" y="356.5903">7. Session ID</text></g><g class="message" data-participant-1="App" data-participant-2="Nginx"><polygon fill="#181818" points="423.1602,386.7891,413.1602,390.7891,423.1602,394.7891,419.1602,390.7891" style="stroke:#181818;stroke-width:1;"/><line style="stroke:#181818;stroke-width:1;stroke-dasharray:2,2;" x1="417.1602" x2="823.5225" y1="390.7891" y2="390.7891"/><text fill="#000000" font-family="sans-serif" font-size="13" lengthAdjust="spacing" textLength="388.3623" x="429.1602" y="385.7231">8. Response (Set-Cookie: session_id, redirect to dashboard)</text></g><line style="stroke:#000000;stroke-width:1;stroke-dasharray:2,2;" x1="313.3892" x2="1228.146" y1="399.7891" y2="399.7891"/><text fill="#000000" font-family="sans-serif" font-size="11" font-weight="bold" lengthAdjust="spacing" textLength="165.2041" x="318.3892" y="409.9995">[Jika password tidak valid]</text><g class="message" data-participant-1="App" data-participant-2="Nginx"><polygon fill="#181818" points="423.1602,430.7266,413.1602,434.7266,423.1602,438.7266,419.1602,434.7266" style="stroke:#181818;stroke-width:1;"/><line style="stroke:#181818;stroke-width:1;stroke-dasharray:2,2;" x1="417.1602" x2="823.5225" y1="434.7266" y2="434.7266"/><text fill="#000000" font-family="sans-serif" font-size="13" lengthAdjust="spacing" textLength="195.311" x="429.1602" y="429.6606">Response (Error: Login Gagal)</text></g><g class="message" data-participant-1="Nginx" data-participant-2="User"><polygon fill="#181818" points="71.1616,466.8594,61.1616,470.8594,71.1616,474.8594,67.1616,470.8594" style="stroke:#181818;stroke-width:1;"/><line style="stroke:#181818;stroke-width:1;stroke-dasharray:2,2;" x1="65.1616" x2="406.1602" y1="470.8594" y2="470.8594"/><text fill="#000000" font-family="sans-serif" font-size="13" lengthAdjust="spacing" textLength="317.9985" x="77.1616" y="465.7935">9. HTTP Response (Redirect atau Halaman Error)</text></g><!--SRC=[PLFRRjim37tNLn1vgJFKBdRV0cn0qdXBjrwCNBQ7OGYOc764s9OdoMdxzwFaN6pKJxJ8StYEI5t0M6AciO25hYsMK9Usti4mhpNSgaoMa52PPNM9GbXfSsfIYLQ6p8kA2xYZCgMDBAMHEsORxgpIa7AKeBPyM74O_5H5fKeg-mBNBjzR6D8GZBHwvA3V0pJWZaJbG6i7ij3Jj2TjAAoqUdg6u9vRFpMrFkmM5oZB4AiAWcIID5N3gX8fMboX8UXLojXCamdJbS-EHutyeivH0h99uLM5Nnjw6C3h29A7sHokScyx86wINqA5nZmgdNetSe-M3e940sG6RituDn5iqDXr9fSE0u6cVpKPsm8wZS9LCsWyOipR26RnRNmzXrVmRVfm1pMBCl1x4azZy0BW2_pnmTypZJF3yF3K-btaBnISVmWiwG8DZ_aeVRb5i-sBb3eC1nqDm_i8Vf6M6nwhaISW12UAlSi-zuN0tC8FBZiNxJ6NgH30NzlRXmXkxcVnT7wrICR3UGoyKaQgqglqrMqvxh_ZwIDVpG5mC_RfhdvtSkxPckEd2APaU0Dv3u8PsV1QgPsamR7_KgQNe2cLcjOMh68zPhjIw4RiIIbdPDUYbIdkNXXjDJrtZBLMUd1uEzynm_n8MwQddM6a7zW0FaSmcS-J5i7qA8slgOO9vbZmg_AqdHdwXQVkKlu7]--></g></svg>