<svg xmlns="http://www.w3.org/2000/svg" xmlns:xlink="http://www.w3.org/1999/xlink" contentStyleType="text/css" data-diagram-type="SEQUENCE" height="550px" preserveAspectRatio="none" style="width:947px;height:550px;background:#FFFFFF;" version="1.1" viewBox="0 0 947 550" width="947px" zoomAndPan="magnify"><title>Alur Proses Menambahkan Produk ke Keranjang Belanja</title><defs/><g><text fill="#000000" font-family="sans-serif" font-size="14" font-weight="bold" lengthAdjust="spacing" textLength="444.6914" x="250.1558" y="27.9951">Alur Proses Menambahkan Produk ke Keranjang Belanja</text><g><title>main-app .PHP.</title><rect fill="#FFFFFF" height="260.1953" style="stroke:#181818;stroke-width:1;" width="10" x="440.4995" y="149.7266"/></g><g><title>Session Storage</title><rect fill="#FFFFFF" height="29.1328" style="stroke:#181818;stroke-width:1;" width="10" x="872.6816" y="220.9922"/></g><g><title>Session Storage</title><rect fill="#FFFFFF" height="29.1328" style="stroke:#181818;stroke-width:1;" width="10" x="872.6816" y="351.6563"/></g><g><title>Pengunjung .Browser.</title><rect fill="#000000" fill-opacity="0.00000" height="351.4609" width="8" x="81.7485" y="118.5938"/><line style="stroke:#181818;stroke-width:0.5;stroke-dasharray:5,5;" x1="85" x2="85" y1="118.5938" y2="470.0547"/></g><g><title>main-app .PHP.</title><rect fill="#000000" fill-opacity="0.00000" height="351.4609" width="8" x="441.4995" y="118.5938"/><line style="stroke:#181818;stroke-width:0.5;stroke-dasharray:5,5;" x1="444.9146" x2="444.9146" y1="118.5938" y2="470.0547"/></g><g><title>Session Storage</title><rect fill="#000000" fill-opacity="0.00000" height="351.4609" width="8" x="873.6816" y="118.5938"/><line style="stroke:#181818;stroke-width:0.5;stroke-dasharray:5,5;" x1="877.3604" x2="877.3604" y1="118.5938" y2="470.0547"/></g><g class="participant participant-head" data-participant="User"><text fill="#000000" font-family="sans-serif" font-size="14" lengthAdjust="spacing" textLength="155.4971" x="5" y="115.292">Pengunjung (Browser)</text><ellipse cx="85.7485" cy="50.7969" fill="#E2E2F0" rx="8" ry="8" style="stroke:#181818;stroke-width:0.5;"/><path d="M85.7485,58.7969 L85.7485,85.7969 M72.7485,66.7969 L98.7485,66.7969 M85.7485,85.7969 L72.7485,100.7969 M85.7485,85.7969 L98.7485,100.7969" fill="none" style="stroke:#181818;stroke-width:0.5;"/></g><g class="participant participant-tail" data-participant="User"><text fill="#000000" font-family="sans-serif" font-size="14" lengthAdjust="spacing" textLength="155.4971" x="5" y="482.0498">Pengunjung (Browser)</text><ellipse cx="85.7485" cy="493.8516" fill="#E2E2F0" rx="8" ry="8" style="stroke:#181818;stroke-width:0.5;"/><path d="M85.7485,501.8516 L85.7485,528.8516 M72.7485,509.8516 L98.7485,509.8516 M85.7485,528.8516 L72.7485,543.8516 M85.7485,528.8516 L98.7485,543.8516" fill="none" style="stroke:#181818;stroke-width:0.5;"/></g><g class="participant participant-head" data-participant="App"><rect fill="#E2E2F0" height="30.2969" rx="2.5" ry="2.5" style="stroke:#181818;stroke-width:0.5;" width="123.1699" x="383.9146" y="87.2969"/><text fill="#000000" font-family="sans-serif" font-size="14" lengthAdjust="spacing" textLength="109.1699" x="390.9146" y="107.292">main-app (PHP)</text></g><g class="participant participant-tail" data-participant="App"><rect fill="#E2E2F0" height="30.2969" rx="2.5" ry="2.5" style="stroke:#181818;stroke-width:0.5;" width="123.1699" x="383.9146" y="469.0547"/><text fill="#000000" font-family="sans-serif" font-size="14" lengthAdjust="spacing" textLength="109.1699" x="390.9146" y="489.0498">main-app (PHP)</text></g><g class="participant participant-head" data-participant="Session"><rect fill="#E2E2F0" height="30.2969" rx="2.5" ry="2.5" style="stroke:#181818;stroke-width:0.5;" width="126.6426" x="814.3604" y="87.2969"/><text fill="#000000" font-family="sans-serif" font-size="14" lengthAdjust="spacing" textLength="112.6426" x="821.3604" y="107.292">Session Storage</text></g><g class="participant participant-tail" data-participant="Session"><rect fill="#E2E2F0" height="30.2969" rx="2.5" ry="2.5" style="stroke:#181818;stroke-width:0.5;" width="126.6426" x="814.3604" y="469.0547"/><text fill="#000000" font-family="sans-serif" font-size="14" lengthAdjust="spacing" textLength="112.6426" x="821.3604" y="489.0498">Session Storage</text></g><g><title>main-app .PHP.</title><rect fill="#FFFFFF" height="260.1953" style="stroke:#181818;stroke-width:1;" width="10" x="440.4995" y="149.7266"/></g><g><title>Session Storage</title><rect fill="#FFFFFF" height="29.1328" style="stroke:#181818;stroke-width:1;" width="10" x="872.6816" y="220.9922"/></g><g><title>Session Storage</title><rect fill="#FFFFFF" height="29.1328" style="stroke:#181818;stroke-width:1;" width="10" x="872.6816" y="351.6563"/></g><g class="message" data-participant-1="User" data-participant-2="App"><polygon fill="#181818" points="428.4995,145.7266,438.4995,149.7266,428.4995,153.7266,432.4995,149.7266" style="stroke:#181818;stroke-width:1;"/><line style="stroke:#181818;stroke-width:1;" x1="85.7485" x2="434.4995" y1="149.7266" y2="149.7266"/><text fill="#000000" font-family="sans-serif" font-size="13" lengthAdjust="spacing" textLength="331.6523" x="92.7485" y="144.6606">1. POST /cart/add (product_id, variant_id, quantity)</text></g><g class="message" data-participant-1="App" data-participant-2="App"><line style="stroke:#181818;stroke-width:1;" x1="450.4995" x2="492.4995" y1="178.8594" y2="178.8594"/><line style="stroke:#181818;stroke-width:1;" x1="492.4995" x2="492.4995" y1="178.8594" y2="191.8594"/><line style="stroke:#181818;stroke-width:1;" x1="451.4995" x2="492.4995" y1="191.8594" y2="191.8594"/><polygon fill="#181818" points="461.4995,187.8594,451.4995,191.8594,461.4995,195.8594,457.4995,191.8594" style="stroke:#181818;stroke-width:1;"/><text fill="#000000" font-family="sans-serif" font-size="13" lengthAdjust="spacing" textLength="333.3979" x="457.4995" y="173.7935">2. Validasi data input (produk ada, stok cukup, dll.)</text></g><g class="message" data-participant-1="App" data-participant-2="Session"><polygon fill="#181818" points="860.6816,216.9922,870.6816,220.9922,860.6816,224.9922,864.6816,220.9922" style="stroke:#181818;stroke-width:1;"/><line style="stroke:#181818;stroke-width:1;" x1="450.4995" x2="866.6816" y1="220.9922" y2="220.9922"/><text fill="#000000" font-family="sans-serif" font-size="13" lengthAdjust="spacing" textLength="248.0728" x="457.4995" y="215.9263">3. Mulai atau lanjutkan sesi pengguna</text></g><g class="message" data-participant-1="Session" data-participant-2="App"><polygon fill="#181818" points="461.4995,246.125,451.4995,250.125,461.4995,254.125,457.4995,250.125" style="stroke:#181818;stroke-width:1;"/><line style="stroke:#181818;stroke-width:1;stroke-dasharray:2,2;" x1="455.4995" x2="876.6816" y1="250.125" y2="250.125"/><text fill="#000000" font-family="sans-serif" font-size="13" lengthAdjust="spacing" textLength="341.7959" x="467.4995" y="245.0591">4. Data sesi yang ada (termasuk keranjang jika ada)</text></g><g class="message" data-participant-1="App" data-participant-2="App"><line style="stroke:#181818;stroke-width:1;" x1="450.4995" x2="492.4995" y1="309.5234" y2="309.5234"/><line style="stroke:#181818;stroke-width:1;" x1="492.4995" x2="492.4995" y1="309.5234" y2="322.5234"/><line style="stroke:#181818;stroke-width:1;" x1="451.4995" x2="492.4995" y1="322.5234" y2="322.5234"/><polygon fill="#181818" points="461.4995,318.5234,451.4995,322.5234,461.4995,326.5234,457.4995,322.5234" style="stroke:#181818;stroke-width:1;"/><text fill="#000000" font-family="sans-serif" font-size="13" lengthAdjust="spacing" textLength="176.1792" x="457.4995" y="274.1919">5. Proses Logika Keranjang</text><text fill="#000000" font-family="sans-serif" font-size="13" lengthAdjust="spacing" textLength="270.1626" x="457.4995" y="289.3247">- Jika produk sudah ada, tambah quantity</text><text fill="#000000" font-family="sans-serif" font-size="13" lengthAdjust="spacing" textLength="398.1821" x="457.4995" y="304.4575">- Jika belum ada, tambahkan produk baru ke array keranjang</text></g><g class="message" data-participant-1="App" data-participant-2="Session"><polygon fill="#181818" points="860.6816,347.6563,870.6816,351.6563,860.6816,355.6563,864.6816,351.6563" style="stroke:#181818;stroke-width:1;"/><line style="stroke:#181818;stroke-width:1;" x1="450.4995" x2="866.6816" y1="351.6563" y2="351.6563"/><text fill="#000000" font-family="sans-serif" font-size="13" lengthAdjust="spacing" textLength="369.04" x="457.4995" y="346.5903">6. Simpan data keranjang yang diperbarui ke dalam sesi</text></g><g class="message" data-participant-1="Session" data-participant-2="App"><polygon fill="#181818" points="461.4995,376.7891,451.4995,380.7891,461.4995,384.7891,457.4995,380.7891" style="stroke:#181818;stroke-width:1;"/><line style="stroke:#181818;stroke-width:1;stroke-dasharray:2,2;" x1="455.4995" x2="876.6816" y1="380.7891" y2="380.7891"/><text fill="#000000" font-family="sans-serif" font-size="13" lengthAdjust="spacing" textLength="178.5913" x="467.4995" y="375.7231">7. Konfirmasi sesi disimpan</text></g><g class="message" data-participant-1="App" data-participant-2="User"><polygon fill="#181818" points="96.7485,405.9219,86.7485,409.9219,96.7485,413.9219,92.7485,409.9219" style="stroke:#181818;stroke-width:1;"/><line style="stroke:#181818;stroke-width:1;stroke-dasharray:2,2;" x1="90.7485" x2="444.4995" y1="409.9219" y2="409.9219"/><text fill="#000000" font-family="sans-serif" font-size="13" lengthAdjust="spacing" textLength="330.751" x="102.7485" y="404.856">8. Response (JSON: {success: true, cart_count: 5})</text></g><g class="message" data-participant-1="User" data-participant-2="User"><line style="stroke:#181818;stroke-width:1;" x1="85.7485" x2="127.7485" y1="439.0547" y2="439.0547"/><line style="stroke:#181818;stroke-width:1;" x1="127.7485" x2="127.7485" y1="439.0547" y2="452.0547"/><line style="stroke:#181818;stroke-width:1;" x1="86.7485" x2="127.7485" y1="452.0547" y2="452.0547"/><polygon fill="#181818" points="96.7485,448.0547,86.7485,452.0547,96.7485,456.0547,92.7485,452.0547" style="stroke:#181818;stroke-width:1;"/><text fill="#000000" font-family="sans-serif" font-size="13" lengthAdjust="spacing" textLength="304.1797" x="92.7485" y="433.9888">9. Perbarui tampilan UI (misal: ikon keranjang)</text></g><!--SRC=[ZPDDRzD048Rl_XMlUi6H4bTyWmz8hNg0bjA844v8rSIxf1FRwsK_YgAA_ywi4pj4WE0scfrv_SupuqUuO5exQh5qCP11D27ME6kYmxKsrAxehfRqt7LAyhN6bNPaDcJMMHOuD7fNA-zU-t-ru5mtASeogaBdS3BNPXtD9ifJVkwwxrwxoGd8OobHPia5hjYI2JXfYSsCh4K-VplV5PrPUropqDvpPx0GSLhhlcYVox8aYTcRr8KIZmlCRnQVS5g9m2afXTmcmrMuPJN5FJaMoJx-5YNYi9qartnFGVTVpfBGgFUam6TgM95dA0e4DZQ6lMWDKZI53rsDAjRHJg6QffYC6eFn4ayBNCU66A8HaMZ5a6WANOOLNCAB3aQ6wGQ1sMZeMO6BvADlt2RuuW5vqAubt-zbMCg6QqgFaqpftuIFftnU39j-twrJsxZQBsQ6ovJP3-oZehlTsA4_YH7ZMBdIJMn_BKbpxjjNv68w7NAEjWUlVm3sei22Mzd_3ljXh7vcnLQx9CP9JL4Zbvw8_0_1bmMkElEL4p3USLJi-s_zdPHqzuTMubM1ZzhRpdYD_79nyw74WuzL9UKbWejwYdHxjrKd_voW_N74lx-muMJtYg-5_Z2D4BCivu7bE-GjUsfAS2t-Hm2Jdm00]--></g></svg>