<svg xmlns="http://www.w3.org/2000/svg" xmlns:xlink="http://www.w3.org/1999/xlink" contentStyleType="text/css" data-diagram-type="SEQUENCE" height="507px" preserveAspectRatio="none" style="width:1090px;height:507px;background:#FFFFFF;" version="1.1" viewBox="0 0 1090 507" width="1090px" zoomAndPan="magnify"><title>Alur Proses Menghasilkan Laporan Penjualan</title><defs/><g><text fill="#000000" font-family="sans-serif" font-size="14" font-weight="bold" lengthAdjust="spacing" textLength="356.9043" x="368.1702" y="27.9951">Alur Proses Menghasilkan Laporan Penjualan</text><g><title>main-app .PHP.</title><rect fill="#FFFFFF" height="259.1953" style="stroke:#181818;stroke-width:1;" width="10" x="545.5752" y="149.7266"/></g><g><title>postgres-db</title><rect fill="#FFFFFF" height="29.1328" style="stroke:#181818;stroke-width:1;" width="10" x="1039.4395" y="308.5234"/></g><g><title>User .Pemilik.Pegawai.</title><rect fill="#000000" fill-opacity="0.00000" height="308.3281" width="8" x="84.4556" y="118.5938"/><line style="stroke:#181818;stroke-width:0.5;stroke-dasharray:5,5;" x1="88" x2="88" y1="118.5938" y2="426.9219"/></g><g><title>main-app .PHP.</title><rect fill="#000000" fill-opacity="0.00000" height="308.3281" width="8" x="546.5752" y="118.5938"/><line style="stroke:#181818;stroke-width:0.5;stroke-dasharray:5,5;" x1="549.9902" x2="549.9902" y1="118.5938" y2="426.9219"/></g><g><title>postgres-db</title><rect fill="#000000" fill-opacity="0.00000" height="308.3281" width="8" x="1040.4395" y="118.5938"/><line style="stroke:#181818;stroke-width:0.5;stroke-dasharray:5,5;" x1="1043.6343" x2="1043.6343" y1="118.5938" y2="426.9219"/></g><g class="participant participant-head" data-participant="User"><text fill="#000000" font-family="sans-serif" font-size="14" lengthAdjust="spacing" textLength="160.9111" x="5" y="115.292">User (Pemilik/Pegawai)</text><ellipse cx="88.4556" cy="50.7969" fill="#E2E2F0" rx="8" ry="8" style="stroke:#181818;stroke-width:0.5;"/><path d="M88.4556,58.7969 L88.4556,85.7969 M75.4556,66.7969 L101.4556,66.7969 M88.4556,85.7969 L75.4556,100.7969 M88.4556,85.7969 L101.4556,100.7969" fill="none" style="stroke:#181818;stroke-width:0.5;"/></g><g class="participant participant-tail" data-participant="User"><text fill="#000000" font-family="sans-serif" font-size="14" lengthAdjust="spacing" textLength="160.9111" x="5" y="438.917">User (Pemilik/Pegawai)</text><ellipse cx="88.4556" cy="450.7188" fill="#E2E2F0" rx="8" ry="8" style="stroke:#181818;stroke-width:0.5;"/><path d="M88.4556,458.7188 L88.4556,485.7188 M75.4556,466.7188 L101.4556,466.7188 M88.4556,485.7188 L75.4556,500.7188 M88.4556,485.7188 L101.4556,500.7188" fill="none" style="stroke:#181818;stroke-width:0.5;"/></g><g class="participant participant-head" data-participant="App"><rect fill="#E2E2F0" height="30.2969" rx="2.5" ry="2.5" style="stroke:#181818;stroke-width:0.5;" width="123.1699" x="488.9902" y="87.2969"/><text fill="#000000" font-family="sans-serif" font-size="14" lengthAdjust="spacing" textLength="109.1699" x="495.9902" y="107.292">main-app (PHP)</text></g><g class="participant participant-tail" data-participant="App"><rect fill="#E2E2F0" height="30.2969" rx="2.5" ry="2.5" style="stroke:#181818;stroke-width:0.5;" width="123.1699" x="488.9902" y="425.9219"/><text fill="#000000" font-family="sans-serif" font-size="14" lengthAdjust="spacing" textLength="109.1699" x="495.9902" y="445.917">main-app (PHP)</text></g><g class="participant participant-head" data-participant="DB"><text fill="#000000" font-family="sans-serif" font-size="14" lengthAdjust="spacing" textLength="83.6104" x="999.6343" y="115.292">postgres-db</text><path d="M1026.4395,66.2969 C1026.4395,56.2969 1044.4395,56.2969 1044.4395,56.2969 C1044.4395,56.2969 1062.4395,56.2969 1062.4395,66.2969 L1062.4395,92.2969 C1062.4395,102.2969 1044.4395,102.2969 1044.4395,102.2969 C1044.4395,102.2969 1026.4395,102.2969 1026.4395,92.2969 L1026.4395,66.2969" fill="#E2E2F0" style="stroke:#181818;stroke-width:0.5;"/><path d="M1026.4395,66.2969 C1026.4395,76.2969 1044.4395,76.2969 1044.4395,76.2969 C1044.4395,76.2969 1062.4395,76.2969 1062.4395,66.2969" fill="none" style="stroke:#181818;stroke-width:0.5;"/></g><g class="participant participant-tail" data-participant="DB"><text fill="#000000" font-family="sans-serif" font-size="14" lengthAdjust="spacing" textLength="83.6104" x="999.6343" y="438.917">postgres-db</text><path d="M1026.4395,452.2188 C1026.4395,442.2188 1044.4395,442.2188 1044.4395,442.2188 C1044.4395,442.2188 1062.4395,442.2188 1062.4395,452.2188 L1062.4395,478.2188 C1062.4395,488.2188 1044.4395,488.2188 1044.4395,488.2188 C1044.4395,488.2188 1026.4395,488.2188 1026.4395,478.2188 L1026.4395,452.2188" fill="#E2E2F0" style="stroke:#181818;stroke-width:0.5;"/><path d="M1026.4395,452.2188 C1026.4395,462.2188 1044.4395,462.2188 1044.4395,462.2188 C1044.4395,462.2188 1062.4395,462.2188 1062.4395,452.2188" fill="none" style="stroke:#181818;stroke-width:0.5;"/></g><g><title>main-app .PHP.</title><rect fill="#FFFFFF" height="259.1953" style="stroke:#181818;stroke-width:1;" width="10" x="545.5752" y="149.7266"/></g><g><title>postgres-db</title><rect fill="#FFFFFF" height="29.1328" style="stroke:#181818;stroke-width:1;" width="10" x="1039.4395" y="308.5234"/></g><g class="message" data-participant-1="User" data-participant-2="App"><polygon fill="#181818" points="533.5752,145.7266,543.5752,149.7266,533.5752,153.7266,537.5752,149.7266" style="stroke:#181818;stroke-width:1;"/><line style="stroke:#181818;stroke-width:1;" x1="88.4556" x2="539.5752" y1="149.7266" y2="149.7266"/><text fill="#000000" font-family="sans-serif" font-size="13" lengthAdjust="spacing" textLength="325.5522" x="95.4556" y="144.6606">1. GET /reports/sales?start_date=...&amp;end_date=...</text></g><g class="message" data-participant-1="App" data-participant-2="App"><line style="stroke:#181818;stroke-width:1;" x1="555.5752" x2="597.5752" y1="178.8594" y2="178.8594"/><line style="stroke:#181818;stroke-width:1;" x1="597.5752" x2="597.5752" y1="178.8594" y2="191.8594"/><line style="stroke:#181818;stroke-width:1;" x1="556.5752" x2="597.5752" y1="191.8594" y2="191.8594"/><polygon fill="#181818" points="566.5752,187.8594,556.5752,191.8594,566.5752,195.8594,562.5752,191.8594" style="stroke:#181818;stroke-width:1;"/><text fill="#000000" font-family="sans-serif" font-size="13" lengthAdjust="spacing" textLength="321.8452" x="562.5752" y="173.7935">2. Validasi input (format tanggal, hak akses user)</text></g><g class="message" data-participant-1="App" data-participant-2="App"><line style="stroke:#181818;stroke-width:1;" x1="555.5752" x2="597.5752" y1="220.9922" y2="220.9922"/><line style="stroke:#181818;stroke-width:1;" x1="597.5752" x2="597.5752" y1="220.9922" y2="233.9922"/><line style="stroke:#181818;stroke-width:1;" x1="556.5752" x2="597.5752" y1="233.9922" y2="233.9922"/><polygon fill="#181818" points="566.5752,229.9922,556.5752,233.9922,566.5752,237.9922,562.5752,233.9922" style="stroke:#181818;stroke-width:1;"/><text fill="#000000" font-family="sans-serif" font-size="13" lengthAdjust="spacing" textLength="200.313" x="562.5752" y="215.9263">3. Ambil store_id dari sesi user</text></g><g class="message" data-participant-1="App" data-participant-2="DB"><polygon fill="#181818" points="1027.4395,304.5234,1037.4395,308.5234,1027.4395,312.5234,1031.4395,308.5234" style="stroke:#181818;stroke-width:1;"/><line style="stroke:#181818;stroke-width:1;" x1="555.5752" x2="1033.4395" y1="308.5234" y2="308.5234"/><text fill="#000000" font-family="sans-serif" font-size="13" lengthAdjust="spacing" textLength="222.9995" x="562.5752" y="258.0591">4. Kirim Query Agregasi Penjualan</text><text fill="#000000" font-family="sans-serif" font-size="13" lengthAdjust="spacing" textLength="319.2871" x="562.5752" y="273.1919">SELECT DATE(order_date), SUM(total_amount) ...</text><text fill="#000000" font-family="sans-serif" font-size="13" lengthAdjust="spacing" textLength="464.8643" x="562.5752" y="288.3247">FROM orders WHERE store_id = ? AND order_date BETWEEN ? AND ? ...</text><text fill="#000000" font-family="sans-serif" font-size="13" lengthAdjust="spacing" textLength="187.7256" x="562.5752" y="303.4575">GROUP BY DATE(order_date)</text></g><g class="message" data-participant-1="DB" data-participant-2="App"><polygon fill="#181818" points="566.5752,333.6563,556.5752,337.6563,566.5752,341.6563,562.5752,337.6563" style="stroke:#181818;stroke-width:1;"/><line style="stroke:#181818;stroke-width:1;stroke-dasharray:2,2;" x1="560.5752" x2="1043.4395" y1="337.6563" y2="337.6563"/><text fill="#000000" font-family="sans-serif" font-size="13" lengthAdjust="spacing" textLength="200.3066" x="572.5752" y="332.5903">5. Hasil data laporan (agregat)</text></g><g class="message" data-participant-1="App" data-participant-2="App"><line style="stroke:#181818;stroke-width:1;" x1="555.5752" x2="597.5752" y1="366.7891" y2="366.7891"/><line style="stroke:#181818;stroke-width:1;" x1="597.5752" x2="597.5752" y1="366.7891" y2="379.7891"/><line style="stroke:#181818;stroke-width:1;" x1="556.5752" x2="597.5752" y1="379.7891" y2="379.7891"/><polygon fill="#181818" points="566.5752,375.7891,556.5752,379.7891,566.5752,383.7891,562.5752,379.7891" style="stroke:#181818;stroke-width:1;"/><text fill="#000000" font-family="sans-serif" font-size="13" lengthAdjust="spacing" textLength="299.6855" x="562.5752" y="361.7231">6. Proses dan format data untuk chart &amp; tabel</text></g><g class="message" data-participant-1="App" data-participant-2="User"><polygon fill="#181818" points="99.4556,404.9219,89.4556,408.9219,99.4556,412.9219,95.4556,408.9219" style="stroke:#181818;stroke-width:1;"/><line style="stroke:#181818;stroke-width:1;stroke-dasharray:2,2;" x1="93.4556" x2="549.5752" y1="408.9219" y2="408.9219"/><text fill="#000000" font-family="sans-serif" font-size="13" lengthAdjust="spacing" textLength="433.1196" x="105.4556" y="403.856">7. Response (Tampilkan halaman laporan dengan visualisasi data)</text></g><!--SRC=[XL9TQzim57tthpZaeNEWSTWt5BhWp5u3QrelJLO6XN0JQuvcMHQItB5_loidJGXxs9EGTEuvzvvxNY6JL5bgiBAT9urE-wv6gZgBkT3LZfnKDR_VacajduNGlpfIfAF8Iw_47bhOrWdttmhQ-jPYi7B28Yv48vMinuMew3V9uG3a4BuYGzRBhJIaFGODIJqYOxXWLkn1gJ5HIPusv0G6fdM-iiADoat_cqsZg5SOVGf8NE5rWfjyYR4Lt95tOqTAk8dpBBDc7d6T9Cc5qENn4XgLptpffQB0SYHxa-0xALdoc93QT1xnpzOsvC7sLHMfI-oe1jN1a8xx69xNlqsGDXkfuDWBiPObIh8IZ9Oz_2YNJHdzBi5NQMM3RvsmVv3oe5LGFfhwf1_os_pp4bcwpEFMbiBsOmmlyR2QnxxrfDRKjBpN8NYq9_rbSJz73tHudEMB_DJ9DIP8xpASQ33DbuzvVdVucEmfRXRtgmBJ7_-8demBM-09HiUvtoUOXMWWR0xg48wO-edyC2h5MUsPPn-IbuILN7Emk-VPntMxurNYWZUm4UfGoyLz2gxmCS52EDDgJakyfCRiyxbZ-ne-NrefERnyF4l7naeNN0uIPvqnyry0]--></g></svg>