<svg xmlns="http://www.w3.org/2000/svg" xmlns:xlink="http://www.w3.org/1999/xlink" contentStyleType="text/css" data-diagram-type="SEQUENCE" height="614px" preserveAspectRatio="none" style="width:943px;height:614px;background:#FFFFFF;" version="1.1" viewBox="0 0 943 614" width="943px" zoomAndPan="magnify"><title>Alur Proses Pengunjung Melihat Landing Page Toko</title><defs/><g><text fill="#000000" font-family="sans-serif" font-size="14" font-weight="bold" lengthAdjust="spacing" textLength="408.7207" x="268.7632" y="27.9951">Alur Proses Pengunjung Melihat Landing Page Toko</text><g><title>main-app .PHP.</title><rect fill="#FFFFFF" height="199.0625" style="stroke:#181818;stroke-width:1;" width="10" x="548.7041" y="149.7266"/></g><g><title>postgres-db</title><rect fill="#FFFFFF" height="29.1328" style="stroke:#181818;stroke-width:1;" width="10" x="892.4419" y="266.3906"/></g><g><title>postgres-db</title><rect fill="#FFFFFF" height="29.1328" style="stroke:#181818;stroke-width:1;" width="10" x="892.4419" y="400.0547"/></g><rect fill="none" height="46.2656" style="stroke:#000000;stroke-width:1.5;" width="615.2891" x="10" y="310.5234"/><g><title>Pengunjung .Browser.</title><rect fill="#000000" fill-opacity="0.00000" height="414.9922" width="8" x="96.7485" y="118.5938"/><line style="stroke:#181818;stroke-width:0.5;stroke-dasharray:5,5;" x1="100" x2="100" y1="118.5938" y2="533.5859"/></g><g><title>main-app .PHP.</title><rect fill="#000000" fill-opacity="0.00000" height="414.9922" width="8" x="549.7041" y="118.5938"/><line style="stroke:#181818;stroke-width:0.5;stroke-dasharray:5,5;" x1="553.1191" x2="553.1191" y1="118.5938" y2="533.5859"/></g><g><title>postgres-db</title><rect fill="#000000" fill-opacity="0.00000" height="414.9922" width="8" x="893.4419" y="118.5938"/><line style="stroke:#181818;stroke-width:0.5;stroke-dasharray:5,5;" x1="896.6367" x2="896.6367" y1="118.5938" y2="533.5859"/></g><g class="participant participant-head" data-participant="User"><text fill="#000000" font-family="sans-serif" font-size="14" lengthAdjust="spacing" textLength="155.4971" x="20" y="115.292">Pengunjung (Browser)</text><ellipse cx="100.7485" cy="50.7969" fill="#E2E2F0" rx="8" ry="8" style="stroke:#181818;stroke-width:0.5;"/><path d="M100.7485,58.7969 L100.7485,85.7969 M87.7485,66.7969 L113.7485,66.7969 M100.7485,85.7969 L87.7485,100.7969 M100.7485,85.7969 L113.7485,100.7969" fill="none" style="stroke:#181818;stroke-width:0.5;"/></g><g class="participant participant-tail" data-participant="User"><text fill="#000000" font-family="sans-serif" font-size="14" lengthAdjust="spacing" textLength="155.4971" x="20" y="545.5811">Pengunjung (Browser)</text><ellipse cx="100.7485" cy="557.3828" fill="#E2E2F0" rx="8" ry="8" style="stroke:#181818;stroke-width:0.5;"/><path d="M100.7485,565.3828 L100.7485,592.3828 M87.7485,573.3828 L113.7485,573.3828 M100.7485,592.3828 L87.7485,607.3828 M100.7485,592.3828 L113.7485,607.3828" fill="none" style="stroke:#181818;stroke-width:0.5;"/></g><g class="participant participant-head" data-participant="App"><rect fill="#E2E2F0" height="30.2969" rx="2.5" ry="2.5" style="stroke:#181818;stroke-width:0.5;" width="123.1699" x="492.1191" y="87.2969"/><text fill="#000000" font-family="sans-serif" font-size="14" lengthAdjust="spacing" textLength="109.1699" x="499.1191" y="107.292">main-app (PHP)</text></g><g class="participant participant-tail" data-participant="App"><rect fill="#E2E2F0" height="30.2969" rx="2.5" ry="2.5" style="stroke:#181818;stroke-width:0.5;" width="123.1699" x="492.1191" y="532.5859"/><text fill="#000000" font-family="sans-serif" font-size="14" lengthAdjust="spacing" textLength="109.1699" x="499.1191" y="552.5811">main-app (PHP)</text></g><g class="participant participant-head" data-participant="DB"><text fill="#000000" font-family="sans-serif" font-size="14" lengthAdjust="spacing" textLength="83.6104" x="852.6367" y="115.292">postgres-db</text><path d="M879.4419,66.2969 C879.4419,56.2969 897.4419,56.2969 897.4419,56.2969 C897.4419,56.2969 915.4419,56.2969 915.4419,66.2969 L915.4419,92.2969 C915.4419,102.2969 897.4419,102.2969 897.4419,102.2969 C897.4419,102.2969 879.4419,102.2969 879.4419,92.2969 L879.4419,66.2969" fill="#E2E2F0" style="stroke:#181818;stroke-width:0.5;"/><path d="M879.4419,66.2969 C879.4419,76.2969 897.4419,76.2969 897.4419,76.2969 C897.4419,76.2969 915.4419,76.2969 915.4419,66.2969" fill="none" style="stroke:#181818;stroke-width:0.5;"/></g><g class="participant participant-tail" data-participant="DB"><text fill="#000000" font-family="sans-serif" font-size="14" lengthAdjust="spacing" textLength="83.6104" x="852.6367" y="545.5811">postgres-db</text><path d="M879.4419,558.8828 C879.4419,548.8828 897.4419,548.8828 897.4419,548.8828 C897.4419,548.8828 915.4419,548.8828 915.4419,558.8828 L915.4419,584.8828 C915.4419,594.8828 897.4419,594.8828 897.4419,594.8828 C897.4419,594.8828 879.4419,594.8828 879.4419,584.8828 L879.4419,558.8828" fill="#E2E2F0" style="stroke:#181818;stroke-width:0.5;"/><path d="M879.4419,558.8828 C879.4419,568.8828 897.4419,568.8828 897.4419,568.8828 C897.4419,568.8828 915.4419,568.8828 915.4419,558.8828" fill="none" style="stroke:#181818;stroke-width:0.5;"/></g><g><title>main-app .PHP.</title><rect fill="#FFFFFF" height="199.0625" style="stroke:#181818;stroke-width:1;" width="10" x="548.7041" y="149.7266"/></g><g><title>postgres-db</title><rect fill="#FFFFFF" height="29.1328" style="stroke:#181818;stroke-width:1;" width="10" x="892.4419" y="266.3906"/></g><g><title>postgres-db</title><rect fill="#FFFFFF" height="29.1328" style="stroke:#181818;stroke-width:1;" width="10" x="892.4419" y="400.0547"/></g><g class="message" data-participant-1="User" data-participant-2="App"><polygon fill="#181818" points="536.7041,145.7266,546.7041,149.7266,536.7041,153.7266,540.7041,149.7266" style="stroke:#181818;stroke-width:1;"/><line style="stroke:#181818;stroke-width:1;" x1="100.7485" x2="542.7041" y1="149.7266" y2="149.7266"/><text fill="#000000" font-family="sans-serif" font-size="13" lengthAdjust="spacing" textLength="289.7769" x="107.7485" y="144.6606">1. GET /{store_slug} atau store.domain.com</text></g><g class="message" data-participant-1="App" data-participant-2="App"><line style="stroke:#181818;stroke-width:1;" x1="558.7041" x2="600.7041" y1="178.8594" y2="178.8594"/><line style="stroke:#181818;stroke-width:1;" x1="600.7041" x2="600.7041" y1="178.8594" y2="191.8594"/><line style="stroke:#181818;stroke-width:1;" x1="559.7041" x2="600.7041" y1="191.8594" y2="191.8594"/><polygon fill="#181818" points="569.7041,187.8594,559.7041,191.8594,569.7041,195.8594,565.7041,191.8594" style="stroke:#181818;stroke-width:1;"/><text fill="#000000" font-family="sans-serif" font-size="13" lengthAdjust="spacing" textLength="217.6865" x="565.7041" y="173.7935">2. Ambil slug/nama toko dari URL</text></g><g class="message" data-participant-1="App" data-participant-2="DB"><polygon fill="#181818" points="880.4419,262.3906,890.4419,266.3906,880.4419,270.3906,884.4419,266.3906" style="stroke:#181818;stroke-width:1;"/><line style="stroke:#181818;stroke-width:1;" x1="558.7041" x2="886.4419" y1="266.3906" y2="266.3906"/><text fill="#000000" font-family="sans-serif" font-size="13" lengthAdjust="spacing" textLength="202.5093" x="565.7041" y="215.9263">3. Ambil data toko &amp; layoutnya</text><text fill="#000000" font-family="sans-serif" font-size="13" lengthAdjust="spacing" textLength="156.6411" x="565.7041" y="231.0591">SELECT * FROM stores s</text><text fill="#000000" font-family="sans-serif" font-size="13" lengthAdjust="spacing" textLength="309.1372" x="565.7041" y="246.1919">JOIN store_layouts sl ON s.store_id = sl.store_id</text><text fill="#000000" font-family="sans-serif" font-size="13" lengthAdjust="spacing" textLength="305.7603" x="565.7041" y="261.3247">WHERE s.store_slug = ? AND s.is_active = true</text></g><g class="message" data-participant-1="DB" data-participant-2="App"><polygon fill="#181818" points="569.7041,291.5234,559.7041,295.5234,569.7041,299.5234,565.7041,295.5234" style="stroke:#181818;stroke-width:1;"/><line style="stroke:#181818;stroke-width:1;stroke-dasharray:2,2;" x1="563.7041" x2="896.4419" y1="295.5234" y2="295.5234"/><text fill="#000000" font-family="sans-serif" font-size="13" lengthAdjust="spacing" textLength="286.5967" x="575.7041" y="290.4575">4. Data gabungan Toko &amp; Layout (atau null)</text></g><path d="M10,310.5234 L74.4429,310.5234 L74.4429,317.6563 L64.4429,327.6563 L10,327.6563 L10,310.5234" fill="#EEEEEE" style="stroke:#000000;stroke-width:1.5;"/><rect fill="none" height="46.2656" style="stroke:#000000;stroke-width:1.5;" width="615.2891" x="10" y="310.5234"/><text fill="#000000" font-family="sans-serif" font-size="13" font-weight="bold" lengthAdjust="spacing" textLength="19.4429" x="25" y="323.5903">alt</text><text fill="#000000" font-family="sans-serif" font-size="11" font-weight="bold" lengthAdjust="spacing" textLength="268.9951" x="89.4429" y="322.7339">[jika toko tidak ditemukan atau tidak aktif]</text><g class="message" data-participant-1="App" data-participant-2="User"><polygon fill="#181818" points="111.7485,344.7891,101.7485,348.7891,111.7485,352.7891,107.7485,348.7891" style="stroke:#181818;stroke-width:1;"/><line style="stroke:#181818;stroke-width:1;stroke-dasharray:2,2;" x1="105.7485" x2="552.7041" y1="348.7891" y2="348.7891"/><text fill="#000000" font-family="sans-serif" font-size="13" lengthAdjust="spacing" textLength="235.6313" x="117.7485" y="343.7231">Response (Halaman 404 Not Found)</text></g><g class="message" data-participant-1="App" data-participant-2="DB"><polygon fill="#181818" points="880.4419,396.0547,890.4419,400.0547,880.4419,404.0547,884.4419,400.0547" style="stroke:#181818;stroke-width:1;"/><line style="stroke:#181818;stroke-width:1;" x1="553.7041" x2="886.4419" y1="400.0547" y2="400.0547"/><text fill="#000000" font-family="sans-serif" font-size="13" lengthAdjust="spacing" textLength="319.7378" x="560.7041" y="379.856">5. Ambil data media terkait (logo, favicon, slider)</text><text fill="#000000" font-family="sans-serif" font-size="13" lengthAdjust="spacing" textLength="305.8618" x="560.7041" y="394.9888">SELECT * FROM media WHERE media_id IN (...)</text></g><g class="message" data-participant-1="DB" data-participant-2="App"><polygon fill="#181818" points="564.7041,425.1875,554.7041,429.1875,564.7041,433.1875,560.7041,429.1875" style="stroke:#181818;stroke-width:1;"/><line style="stroke:#181818;stroke-width:1;stroke-dasharray:2,2;" x1="558.7041" x2="896.4419" y1="429.1875" y2="429.1875"/><text fill="#000000" font-family="sans-serif" font-size="13" lengthAdjust="spacing" textLength="90.7524" x="570.7041" y="424.1216">6. Data Media</text></g><g class="message" data-participant-1="App" data-participant-2="App"><line style="stroke:#181818;stroke-width:1;" x1="553.7041" x2="595.7041" y1="473.4531" y2="473.4531"/><line style="stroke:#181818;stroke-width:1;" x1="595.7041" x2="595.7041" y1="473.4531" y2="486.4531"/><line style="stroke:#181818;stroke-width:1;" x1="554.7041" x2="595.7041" y1="486.4531" y2="486.4531"/><polygon fill="#181818" points="564.7041,482.4531,554.7041,486.4531,564.7041,490.4531,560.7041,486.4531" style="stroke:#181818;stroke-width:1;"/><text fill="#000000" font-family="sans-serif" font-size="13" lengthAdjust="spacing" textLength="154.813" x="560.7041" y="453.2544">7. Agregasi semua data</text><text fill="#000000" font-family="sans-serif" font-size="13" lengthAdjust="spacing" textLength="163.0713" x="560.7041" y="468.3872">(Toko + Layout + Media)</text></g><g class="message" data-participant-1="App" data-participant-2="User"><polygon fill="#181818" points="111.7485,511.5859,101.7485,515.5859,111.7485,519.5859,107.7485,515.5859" style="stroke:#181818;stroke-width:1;"/><line style="stroke:#181818;stroke-width:1;stroke-dasharray:2,2;" x1="105.7485" x2="552.7041" y1="515.5859" y2="515.5859"/><text fill="#000000" font-family="sans-serif" font-size="13" lengthAdjust="spacing" textLength="428.9556" x="117.7485" y="510.52">8. Response (Render &amp; Tampilkan halaman landing page kustom)</text></g><!--SRC=[VLFBRjim4BphAnO-978JAtsa3mHe2wTswXPEOhWsUZ5Wh4r6OKIH2XyfWgB_tYNfs5Q0LYTfDRCxd5aUma1WQR26kV4E5NZbV0LzwGrSSYbkqS4O5HEgX0cM76QwqbdcX9CyeIP6MsvXmbNfrPqdt7zuk7RQG6SFd9yR_Sjoq-q0MfZJMzQWSM8j6bGEEZKArSEcWNmocYHGlsaoXWvNQ3bq6crTQRZjiLNyEpZFij06Ufy24ixWLG5VXpCu-MrfE5zQwSi_G7mFiL0m7OOKQrq7VU817Oypia3VTdbTGBzU2Gc1VwAmHd1q9c1e1CoduoryS4xeDq_e83G13q3Ye_PEFU92_HYEXrzcy08kfjUNIOS5kr3VhxzTfSzbGbDLmZNLYbGL33vIQVkrK3z7m-bm-p-e8yHdw5yDg2ZiCfw9KyqPptSd33wHrDxsWAS538BO4bSK3At2BAaUHnsGHyUKbxARCTvgWzB1dQWsvtI2OGLCE5xxYjf4NYfYvSHD1lH4hsXqJEeCfjmsMb6S-GWbMQlWzEKfN6a75zehresSlQaX7gvObXtI_e8LIi1AM0nJiLxXRPXxxxbv9C_5qrBNj7Mu2wNcJ23aKfVw66xmGQorEYPh1QDjR8NvjXLcuZbkAXJkN_pd2ITIYYg-Xo0fwhmeYcuhb5OcxpQPN0RASzjRw_cUDD8rAD6I7-GyHh4BbSSKZvvIF4gjkXlsBe4FnLu8K_AMgWSmmxeHChXvkyb5RYvr4ovrvMdfwjO-KDk_]--></g></svg>