<svg xmlns="http://www.w3.org/2000/svg" xmlns:xlink="http://www.w3.org/1999/xlink" contentStyleType="text/css" data-diagram-type="SEQUENCE" height="650px" preserveAspectRatio="none" style="width:1170px;height:650px;background:#FFFFFF;" version="1.1" viewBox="0 0 1170 650" width="1170px" zoomAndPan="magnify"><title>Alur Proses Pelacakan Pengiriman (Cek Resi)</title><defs/><g><text fill="#000000" font-family="sans-serif" font-size="14" font-weight="bold" lengthAdjust="spacing" textLength="355.8242" x="408.5662" y="27.9951">Alur Proses Pelacakan Pengiriman (Cek Resi)</text><g><title>main-app .PHP.</title><rect fill="#FFFFFF" height="409.6641" style="stroke:#181818;stroke-width:1;" width="10" x="633.2466" y="149.7266"/></g><g><title>postgres-db</title><rect fill="#FFFFFF" height="29.1328" style="stroke:#181818;stroke-width:1;" width="10" x="1104.1514" y="236.125"/></g><g><title>postgres-db</title><rect fill="#FFFFFF" height="29.1328" style="stroke:#181818;stroke-width:1;" width="10" x="1104.1514" y="333.6563"/></g><g><title>postgres-db</title><rect fill="#FFFFFF" height="29.1328" style="stroke:#181818;stroke-width:1;" width="10" x="1104.1514" y="407.0547"/></g><rect fill="none" height="272.1328" style="stroke:#000000;stroke-width:1.5;" width="1153.9565" x="10" y="280.2578"/><g><title>Pengunjung .Browser.</title><rect fill="#000000" fill-opacity="0.00000" height="450.7969" width="8" x="96.7485" y="118.5938"/><line style="stroke:#181818;stroke-width:0.5;stroke-dasharray:5,5;" x1="100" x2="100" y1="118.5938" y2="569.3906"/></g><g><title>main-app .PHP.</title><rect fill="#000000" fill-opacity="0.00000" height="450.7969" width="8" x="634.2466" y="118.5938"/><line style="stroke:#181818;stroke-width:0.5;stroke-dasharray:5,5;" x1="637.6616" x2="637.6616" y1="118.5938" y2="569.3906"/></g><g><title>postgres-db</title><rect fill="#000000" fill-opacity="0.00000" height="450.7969" width="8" x="1105.1514" y="118.5938"/><line style="stroke:#181818;stroke-width:0.5;stroke-dasharray:5,5;" x1="1108.3462" x2="1108.3462" y1="118.5938" y2="569.3906"/></g><g class="participant participant-head" data-participant="User"><text fill="#000000" font-family="sans-serif" font-size="14" lengthAdjust="spacing" textLength="155.4971" x="20" y="115.292">Pengunjung (Browser)</text><ellipse cx="100.7485" cy="50.7969" fill="#E2E2F0" rx="8" ry="8" style="stroke:#181818;stroke-width:0.5;"/><path d="M100.7485,58.7969 L100.7485,85.7969 M87.7485,66.7969 L113.7485,66.7969 M100.7485,85.7969 L87.7485,100.7969 M100.7485,85.7969 L113.7485,100.7969" fill="none" style="stroke:#181818;stroke-width:0.5;"/></g><g class="participant participant-tail" data-participant="User"><text fill="#000000" font-family="sans-serif" font-size="14" lengthAdjust="spacing" textLength="155.4971" x="20" y="581.3857">Pengunjung (Browser)</text><ellipse cx="100.7485" cy="593.1875" fill="#E2E2F0" rx="8" ry="8" style="stroke:#181818;stroke-width:0.5;"/><path d="M100.7485,601.1875 L100.7485,628.1875 M87.7485,609.1875 L113.7485,609.1875 M100.7485,628.1875 L87.7485,643.1875 M100.7485,628.1875 L113.7485,643.1875" fill="none" style="stroke:#181818;stroke-width:0.5;"/></g><g class="participant participant-head" data-participant="App"><rect fill="#E2E2F0" height="30.2969" rx="2.5" ry="2.5" style="stroke:#181818;stroke-width:0.5;" width="123.1699" x="576.6616" y="87.2969"/><text fill="#000000" font-family="sans-serif" font-size="14" lengthAdjust="spacing" textLength="109.1699" x="583.6616" y="107.292">main-app (PHP)</text></g><g class="participant participant-tail" data-participant="App"><rect fill="#E2E2F0" height="30.2969" rx="2.5" ry="2.5" style="stroke:#181818;stroke-width:0.5;" width="123.1699" x="576.6616" y="568.3906"/><text fill="#000000" font-family="sans-serif" font-size="14" lengthAdjust="spacing" textLength="109.1699" x="583.6616" y="588.3857">main-app (PHP)</text></g><g class="participant participant-head" data-participant="DB"><text fill="#000000" font-family="sans-serif" font-size="14" lengthAdjust="spacing" textLength="83.6104" x="1064.3462" y="115.292">postgres-db</text><path d="M1091.1514,66.2969 C1091.1514,56.2969 1109.1514,56.2969 1109.1514,56.2969 C1109.1514,56.2969 1127.1514,56.2969 1127.1514,66.2969 L1127.1514,92.2969 C1127.1514,102.2969 1109.1514,102.2969 1109.1514,102.2969 C1109.1514,102.2969 1091.1514,102.2969 1091.1514,92.2969 L1091.1514,66.2969" fill="#E2E2F0" style="stroke:#181818;stroke-width:0.5;"/><path d="M1091.1514,66.2969 C1091.1514,76.2969 1109.1514,76.2969 1109.1514,76.2969 C1109.1514,76.2969 1127.1514,76.2969 1127.1514,66.2969" fill="none" style="stroke:#181818;stroke-width:0.5;"/></g><g class="participant participant-tail" data-participant="DB"><text fill="#000000" font-family="sans-serif" font-size="14" lengthAdjust="spacing" textLength="83.6104" x="1064.3462" y="581.3857">postgres-db</text><path d="M1091.1514,594.6875 C1091.1514,584.6875 1109.1514,584.6875 1109.1514,584.6875 C1109.1514,584.6875 1127.1514,584.6875 1127.1514,594.6875 L1127.1514,620.6875 C1127.1514,630.6875 1109.1514,630.6875 1109.1514,630.6875 C1109.1514,630.6875 1091.1514,630.6875 1091.1514,620.6875 L1091.1514,594.6875" fill="#E2E2F0" style="stroke:#181818;stroke-width:0.5;"/><path d="M1091.1514,594.6875 C1091.1514,604.6875 1109.1514,604.6875 1109.1514,604.6875 C1109.1514,604.6875 1127.1514,604.6875 1127.1514,594.6875" fill="none" style="stroke:#181818;stroke-width:0.5;"/></g><g><title>main-app .PHP.</title><rect fill="#FFFFFF" height="409.6641" style="stroke:#181818;stroke-width:1;" width="10" x="633.2466" y="149.7266"/></g><g><title>postgres-db</title><rect fill="#FFFFFF" height="29.1328" style="stroke:#181818;stroke-width:1;" width="10" x="1104.1514" y="236.125"/></g><g><title>postgres-db</title><rect fill="#FFFFFF" height="29.1328" style="stroke:#181818;stroke-width:1;" width="10" x="1104.1514" y="333.6563"/></g><g><title>postgres-db</title><rect fill="#FFFFFF" height="29.1328" style="stroke:#181818;stroke-width:1;" width="10" x="1104.1514" y="407.0547"/></g><g class="message" data-participant-1="User" data-participant-2="App"><polygon fill="#181818" points="621.2466,145.7266,631.2466,149.7266,621.2466,153.7266,625.2466,149.7266" style="stroke:#181818;stroke-width:1;"/><line style="stroke:#181818;stroke-width:1;" x1="100.7485" x2="627.2466" y1="149.7266" y2="149.7266"/><text fill="#000000" font-family="sans-serif" font-size="13" lengthAdjust="spacing" textLength="208.4063" x="107.7485" y="144.6606">1. GET /track?resi=[nomor_resi]</text></g><g class="message" data-participant-1="App" data-participant-2="App"><line style="stroke:#181818;stroke-width:1;" x1="643.2466" x2="685.2466" y1="178.8594" y2="178.8594"/><line style="stroke:#181818;stroke-width:1;" x1="685.2466" x2="685.2466" y1="178.8594" y2="191.8594"/><line style="stroke:#181818;stroke-width:1;" x1="644.2466" x2="685.2466" y1="191.8594" y2="191.8594"/><polygon fill="#181818" points="654.2466,187.8594,644.2466,191.8594,654.2466,195.8594,650.2466,191.8594" style="stroke:#181818;stroke-width:1;"/><text fill="#000000" font-family="sans-serif" font-size="13" lengthAdjust="spacing" textLength="189.103" x="650.2466" y="173.7935">2. Validasi format nomor resi</text></g><g class="message" data-participant-1="App" data-participant-2="DB"><polygon fill="#181818" points="1092.1514,232.125,1102.1514,236.125,1092.1514,240.125,1096.1514,236.125" style="stroke:#181818;stroke-width:1;"/><line style="stroke:#181818;stroke-width:1;" x1="643.2466" x2="1098.1514" y1="236.125" y2="236.125"/><text fill="#000000" font-family="sans-serif" font-size="13" lengthAdjust="spacing" textLength="314.1709" x="650.2466" y="215.9263">3. Cari data pengiriman berdasarkan nomor resi</text><text fill="#000000" font-family="sans-serif" font-size="13" lengthAdjust="spacing" textLength="441.9048" x="650.2466" y="231.0591">SELECT * FROM shipments WHERE tracking_number = [nomor_resi]</text></g><g class="message" data-participant-1="DB" data-participant-2="App"><polygon fill="#181818" points="654.2466,261.2578,644.2466,265.2578,654.2466,269.2578,650.2466,265.2578" style="stroke:#181818;stroke-width:1;"/><line style="stroke:#181818;stroke-width:1;stroke-dasharray:2,2;" x1="648.2466" x2="1108.1514" y1="265.2578" y2="265.2578"/><text fill="#000000" font-family="sans-serif" font-size="13" lengthAdjust="spacing" textLength="259.1621" x="660.2466" y="260.1919">4. Data pengiriman (termasuk order_id)</text></g><path d="M10,280.2578 L74.4429,280.2578 L74.4429,287.3906 L64.4429,297.3906 L10,297.3906 L10,280.2578" fill="#EEEEEE" style="stroke:#000000;stroke-width:1.5;"/><rect fill="none" height="272.1328" style="stroke:#000000;stroke-width:1.5;" width="1153.9565" x="10" y="280.2578"/><text fill="#000000" font-family="sans-serif" font-size="13" font-weight="bold" lengthAdjust="spacing" textLength="19.4429" x="25" y="293.3247">alt</text><text fill="#000000" font-family="sans-serif" font-size="11" font-weight="bold" lengthAdjust="spacing" textLength="173.0835" x="89.4429" y="292.4683">[jika nomor resi ditemukan]</text><g class="message" data-participant-1="App" data-participant-2="DB"><polygon fill="#181818" points="1092.1514,329.6563,1102.1514,333.6563,1092.1514,337.6563,1096.1514,333.6563" style="stroke:#181818;stroke-width:1;"/><line style="stroke:#181818;stroke-width:1;" x1="643.2466" x2="1098.1514" y1="333.6563" y2="333.6563"/><text fill="#000000" font-family="sans-serif" font-size="13" lengthAdjust="spacing" textLength="200.5796" x="650.2466" y="313.4575">5. Ambil detail pesanan terkait</text><text fill="#000000" font-family="sans-serif" font-size="13" lengthAdjust="spacing" textLength="339.6313" x="650.2466" y="328.5903">SELECT * FROM orders WHERE order_id = [order_id]</text></g><g class="message" data-participant-1="DB" data-participant-2="App"><polygon fill="#181818" points="654.2466,358.7891,644.2466,362.7891,654.2466,366.7891,650.2466,362.7891" style="stroke:#181818;stroke-width:1;"/><line style="stroke:#181818;stroke-width:1;stroke-dasharray:2,2;" x1="648.2466" x2="1108.1514" y1="362.7891" y2="362.7891"/><text fill="#000000" font-family="sans-serif" font-size="13" lengthAdjust="spacing" textLength="107.1421" x="660.2466" y="357.7231">6. Data pesanan</text></g><g class="message" data-participant-1="App" data-participant-2="DB"><polygon fill="#181818" points="1092.1514,403.0547,1102.1514,407.0547,1092.1514,411.0547,1096.1514,407.0547" style="stroke:#181818;stroke-width:1;"/><line style="stroke:#181818;stroke-width:1;" x1="643.2466" x2="1098.1514" y1="407.0547" y2="407.0547"/><text fill="#000000" font-family="sans-serif" font-size="13" lengthAdjust="spacing" textLength="187.3066" x="650.2466" y="386.856">7. Ambil detail item pesanan</text><text fill="#000000" font-family="sans-serif" font-size="13" lengthAdjust="spacing" textLength="375.502" x="650.2466" y="401.9888">SELECT * FROM order_items WHERE order_id = [order_id]</text></g><g class="message" data-participant-1="DB" data-participant-2="App"><polygon fill="#181818" points="654.2466,432.1875,644.2466,436.1875,654.2466,440.1875,650.2466,436.1875" style="stroke:#181818;stroke-width:1;"/><line style="stroke:#181818;stroke-width:1;stroke-dasharray:2,2;" x1="648.2466" x2="1108.1514" y1="436.1875" y2="436.1875"/><text fill="#000000" font-family="sans-serif" font-size="13" lengthAdjust="spacing" textLength="140.645" x="660.2466" y="431.1216">8. Data item pesanan</text></g><path d="M648,449.1875 L648,474.1875 L995,474.1875 L995,459.1875 L985,449.1875 L648,449.1875" fill="#FEFFDD" style="stroke:#181818;stroke-width:0.5;"/><path d="M985,449.1875 L985,459.1875 L995,459.1875 L985,449.1875" fill="#FEFFDD" style="stroke:#181818;stroke-width:0.5;"/><text fill="#000000" font-family="sans-serif" font-size="13" lengthAdjust="spacing" textLength="326.2568" x="654" y="466.2544">(Opsional) Panggil API kurir untuk status real-time</text><g class="message" data-participant-1="App" data-participant-2="User"><polygon fill="#181818" points="111.7485,496.4531,101.7485,500.4531,111.7485,504.4531,107.7485,500.4531" style="stroke:#181818;stroke-width:1;"/><line style="stroke:#181818;stroke-width:1;stroke-dasharray:2,2;" x1="105.7485" x2="632.2466" y1="500.4531" y2="500.4531"/><text fill="#000000" font-family="sans-serif" font-size="13" lengthAdjust="spacing" textLength="486.3066" x="117.7485" y="495.3872">9. Response (Tampilkan halaman status pengiriman dengan semua detail)</text></g><line style="stroke:#000000;stroke-width:1;stroke-dasharray:2,2;" x1="10" x2="1163.9565" y1="509.4531" y2="509.4531"/><text fill="#000000" font-family="sans-serif" font-size="11" font-weight="bold" lengthAdjust="spacing" textLength="208.5542" x="15" y="519.6636">[jika nomor resi tidak ditemukan]</text><g class="message" data-participant-1="App" data-participant-2="User"><polygon fill="#181818" points="111.7485,540.3906,101.7485,544.3906,111.7485,548.3906,107.7485,544.3906" style="stroke:#181818;stroke-width:1;"/><line style="stroke:#181818;stroke-width:1;stroke-dasharray:2,2;" x1="105.7485" x2="632.2466" y1="544.3906" y2="544.3906"/><text fill="#000000" font-family="sans-serif" font-size="13" lengthAdjust="spacing" textLength="508.498" x="117.7485" y="539.3247">Response (Tampilkan halaman dengan pesan "Nomor Resi Tidak Ditemukan")</text></g><!--SRC=[fLJTRzem47_tNt7YfM4QJFlUAdKJ5BPMsjQ8qkrXgz11t72DOrksi_txExi1qWZjPJo0azplwtB72Sm8IuSrtBWce8P6XwQ2YMeSv5BX1Yk-cKjTagEQZqR9RRfkz7sZIo421ILRW3DU-kEux5nMi92UXaBW9XW7WmCBP5Dd_dZfXWD03pTy4XPTe0rPr046DP8UeRMGvHVvGz74Mb5Wm3Lw2GDhV2YTzADYdPxEfa946XXzY9Lm2i_7y7c-X6V1uQRwoALqzbERshXLFDz6K_GRWqp48cBsq1TZ-8wA2lG4TyRL620X8IBtjRCfbxuSmpawWkWCx27-MZg6eujTEM1_wUlvb_dv4fx0fyNLL_1RihNKmSEFY_bY3iahwNAbcvePu0oEMuvfMNwqT_ng3BEUWon8TkxvvHfNIBUYOYWA-OW2LO1xgh3Z40eAicxOjX30dsxMrsEOr6jIKCY0_6EbHyrAB5GXXNwu9BjBjlCG8-tEjqcXwoXUFyhrPfyhIQM2NeY-oxSzbp7F3d_KuYfM_AVFTwtFhjWHi_5E-Zg1Qxb1Xr0PxQKD3Qgdt7hmf0dMv16muDIeov8KjxZYCSqlGLQUcwrH9H9jcDLHkGrWxbeZsPNrPBXY2Fa3EW6hnf5hTzq738tdjurg5AYMdHPodhH4f_1-79VNHdUGBR6sfE8eRr5X7AwMepDk1H_Z0nuUR5lFcoyLu_iZ5dYpggE3Tj3_btWhbTeCWs-9EFxJm38HptR4WsX05w8xzYpp5m00]--></g></svg>