<svg xmlns="http://www.w3.org/2000/svg" xmlns:xlink="http://www.w3.org/1999/xlink" contentStyleType="text/css" data-diagram-type="SEQUENCE" height="711px" preserveAspectRatio="none" style="width:963px;height:711px;background:#FFFFFF;" version="1.1" viewBox="0 0 963 711" width="963px" zoomAndPan="magnify"><title>Alur Proses Pembuatan Akun Administrator Baru</title><defs/><g><text fill="#000000" font-family="sans-serif" font-size="14" font-weight="bold" lengthAdjust="spacing" textLength="386.374" x="290.2629" y="27.9951">Alur Proses Pembuatan Akun Administrator Baru</text><g><title>admin-app .PHP.</title><rect fill="#FFFFFF" height="463.125" style="stroke:#181818;stroke-width:1;" width="10" x="459.7813" y="149.7266"/></g><g><title>postgres-db</title><rect fill="#FFFFFF" height="29.1328" style="stroke:#181818;stroke-width:1;" width="10" x="913.0947" y="278.2578"/></g><g><title>postgres-db</title><rect fill="#FFFFFF" height="243.1953" style="stroke:#181818;stroke-width:1;" width="10" x="913.0947" y="378.6563"/></g><g><title>postgres-db</title><rect fill="#FFFFFF" height="29.1328" style="stroke:#181818;stroke-width:1;" width="10" x="918.0947" y="422.9219"/></g><g><title>postgres-db</title><rect fill="#FFFFFF" height="29.1328" style="stroke:#181818;stroke-width:1;" width="10" x="918.0947" y="496.3203"/></g><g><title>postgres-db</title><rect fill="#FFFFFF" height="29.1328" style="stroke:#181818;stroke-width:1;" width="10" x="918.0947" y="554.5859"/></g><g><title>Owner</title><rect fill="#000000" fill-opacity="0.00000" height="512.2578" width="8" x="26.856" y="118.5938"/><line style="stroke:#181818;stroke-width:0.5;stroke-dasharray:5,5;" x1="30" x2="30" y1="118.5938" y2="630.8516"/></g><g><title>admin-app .PHP.</title><rect fill="#000000" fill-opacity="0.00000" height="512.2578" width="8" x="460.7813" y="118.5938"/><line style="stroke:#181818;stroke-width:0.5;stroke-dasharray:5,5;" x1="464.7529" x2="464.7529" y1="118.5938" y2="630.8516"/></g><g><title>postgres-db</title><rect fill="#000000" fill-opacity="0.00000" height="512.2578" width="8" x="914.0947" y="118.5938"/><line style="stroke:#181818;stroke-width:0.5;stroke-dasharray:5,5;" x1="917.2896" x2="917.2896" y1="118.5938" y2="630.8516"/></g><g class="participant participant-head" data-participant="Owner"><text fill="#000000" font-family="sans-serif" font-size="14" lengthAdjust="spacing" textLength="45.7119" x="5" y="115.292">Owner</text><ellipse cx="30.856" cy="50.7969" fill="#E2E2F0" rx="8" ry="8" style="stroke:#181818;stroke-width:0.5;"/><path d="M30.856,58.7969 L30.856,85.7969 M17.856,66.7969 L43.856,66.7969 M30.856,85.7969 L17.856,100.7969 M30.856,85.7969 L43.856,100.7969" fill="none" style="stroke:#181818;stroke-width:0.5;"/></g><g class="participant participant-tail" data-participant="Owner"><text fill="#000000" font-family="sans-serif" font-size="14" lengthAdjust="spacing" textLength="45.7119" x="5" y="642.8467">Owner</text><ellipse cx="30.856" cy="654.6484" fill="#E2E2F0" rx="8" ry="8" style="stroke:#181818;stroke-width:0.5;"/><path d="M30.856,662.6484 L30.856,689.6484 M17.856,670.6484 L43.856,670.6484 M30.856,689.6484 L17.856,704.6484 M30.856,689.6484 L43.856,704.6484" fill="none" style="stroke:#181818;stroke-width:0.5;"/></g><g class="participant participant-head" data-participant="App"><rect fill="#E2E2F0" height="30.2969" rx="2.5" ry="2.5" style="stroke:#181818;stroke-width:0.5;" width="132.0566" x="398.7529" y="87.2969"/><text fill="#000000" font-family="sans-serif" font-size="14" lengthAdjust="spacing" textLength="118.0566" x="405.7529" y="107.292">admin-app (PHP)</text></g><g class="participant participant-tail" data-participant="App"><rect fill="#E2E2F0" height="30.2969" rx="2.5" ry="2.5" style="stroke:#181818;stroke-width:0.5;" width="132.0566" x="398.7529" y="629.8516"/><text fill="#000000" font-family="sans-serif" font-size="14" lengthAdjust="spacing" textLength="118.0566" x="405.7529" y="649.8467">admin-app (PHP)</text></g><g class="participant participant-head" data-participant="DB"><text fill="#000000" font-family="sans-serif" font-size="14" lengthAdjust="spacing" textLength="83.6104" x="873.2896" y="115.292">postgres-db</text><path d="M900.0947,66.2969 C900.0947,56.2969 918.0947,56.2969 918.0947,56.2969 C918.0947,56.2969 936.0947,56.2969 936.0947,66.2969 L936.0947,92.2969 C936.0947,102.2969 918.0947,102.2969 918.0947,102.2969 C918.0947,102.2969 900.0947,102.2969 900.0947,92.2969 L900.0947,66.2969" fill="#E2E2F0" style="stroke:#181818;stroke-width:0.5;"/><path d="M900.0947,66.2969 C900.0947,76.2969 918.0947,76.2969 918.0947,76.2969 C918.0947,76.2969 936.0947,76.2969 936.0947,66.2969" fill="none" style="stroke:#181818;stroke-width:0.5;"/></g><g class="participant participant-tail" data-participant="DB"><text fill="#000000" font-family="sans-serif" font-size="14" lengthAdjust="spacing" textLength="83.6104" x="873.2896" y="642.8467">postgres-db</text><path d="M900.0947,656.1484 C900.0947,646.1484 918.0947,646.1484 918.0947,646.1484 C918.0947,646.1484 936.0947,646.1484 936.0947,656.1484 L936.0947,682.1484 C936.0947,692.1484 918.0947,692.1484 918.0947,692.1484 C918.0947,692.1484 900.0947,692.1484 900.0947,682.1484 L900.0947,656.1484" fill="#E2E2F0" style="stroke:#181818;stroke-width:0.5;"/><path d="M900.0947,656.1484 C900.0947,666.1484 918.0947,666.1484 918.0947,666.1484 C918.0947,666.1484 936.0947,666.1484 936.0947,656.1484" fill="none" style="stroke:#181818;stroke-width:0.5;"/></g><g><title>admin-app .PHP.</title><rect fill="#FFFFFF" height="463.125" style="stroke:#181818;stroke-width:1;" width="10" x="459.7813" y="149.7266"/></g><g><title>postgres-db</title><rect fill="#FFFFFF" height="29.1328" style="stroke:#181818;stroke-width:1;" width="10" x="913.0947" y="278.2578"/></g><g><title>postgres-db</title><rect fill="#FFFFFF" height="243.1953" style="stroke:#181818;stroke-width:1;" width="10" x="913.0947" y="378.6563"/></g><g><title>postgres-db</title><rect fill="#FFFFFF" height="29.1328" style="stroke:#181818;stroke-width:1;" width="10" x="918.0947" y="422.9219"/></g><g><title>postgres-db</title><rect fill="#FFFFFF" height="29.1328" style="stroke:#181818;stroke-width:1;" width="10" x="918.0947" y="496.3203"/></g><g><title>postgres-db</title><rect fill="#FFFFFF" height="29.1328" style="stroke:#181818;stroke-width:1;" width="10" x="918.0947" y="554.5859"/></g><g class="message" data-participant-1="Owner" data-participant-2="App"><polygon fill="#181818" points="447.7813,145.7266,457.7813,149.7266,447.7813,153.7266,451.7813,149.7266" style="stroke:#181818;stroke-width:1;"/><line style="stroke:#181818;stroke-width:1;" x1="30.856" x2="453.7813" y1="149.7266" y2="149.7266"/><text fill="#000000" font-family="sans-serif" font-size="13" lengthAdjust="spacing" textLength="409.9253" x="37.856" y="144.6606">1. POST /owner/administrators/create (nama, email, password)</text></g><g class="message" data-participant-1="App" data-participant-2="App"><line style="stroke:#181818;stroke-width:1;" x1="469.7813" x2="511.7813" y1="178.8594" y2="178.8594"/><line style="stroke:#181818;stroke-width:1;" x1="511.7813" x2="511.7813" y1="178.8594" y2="191.8594"/><line style="stroke:#181818;stroke-width:1;" x1="470.7813" x2="511.7813" y1="191.8594" y2="191.8594"/><polygon fill="#181818" points="480.7813,187.8594,470.7813,191.8594,480.7813,195.8594,476.7813,191.8594" style="stroke:#181818;stroke-width:1;"/><text fill="#000000" font-family="sans-serif" font-size="13" lengthAdjust="spacing" textLength="235.625" x="476.7813" y="173.7935">2. Verifikasi sesi &amp; hak akses Owner</text></g><g class="message" data-participant-1="App" data-participant-2="App"><line style="stroke:#181818;stroke-width:1;" x1="469.7813" x2="511.7813" y1="220.9922" y2="220.9922"/><line style="stroke:#181818;stroke-width:1;" x1="511.7813" x2="511.7813" y1="220.9922" y2="233.9922"/><line style="stroke:#181818;stroke-width:1;" x1="470.7813" x2="511.7813" y1="233.9922" y2="233.9922"/><polygon fill="#181818" points="480.7813,229.9922,470.7813,233.9922,480.7813,237.9922,476.7813,233.9922" style="stroke:#181818;stroke-width:1;"/><text fill="#000000" font-family="sans-serif" font-size="13" lengthAdjust="spacing" textLength="323.2607" x="476.7813" y="215.9263">3. Validasi data input (email unik, password kuat)</text></g><g class="message" data-participant-1="App" data-participant-2="DB"><polygon fill="#181818" points="901.0947,274.2578,911.0947,278.2578,901.0947,282.2578,905.0947,278.2578" style="stroke:#181818;stroke-width:1;"/><line style="stroke:#181818;stroke-width:1;" x1="469.7813" x2="907.0947" y1="278.2578" y2="278.2578"/><text fill="#000000" font-family="sans-serif" font-size="13" lengthAdjust="spacing" textLength="167.064" x="476.7813" y="258.0591">4. Periksa keunikan email</text><text fill="#000000" font-family="sans-serif" font-size="13" lengthAdjust="spacing" textLength="354.9165" x="476.7813" y="273.1919">SELECT COUNT(*) FROM users WHERE email = [email]</text></g><g class="message" data-participant-1="DB" data-participant-2="App"><polygon fill="#181818" points="480.7813,303.3906,470.7813,307.3906,480.7813,311.3906,476.7813,307.3906" style="stroke:#181818;stroke-width:1;"/><line style="stroke:#181818;stroke-width:1;stroke-dasharray:2,2;" x1="474.7813" x2="917.0947" y1="307.3906" y2="307.3906"/><text fill="#000000" font-family="sans-serif" font-size="13" lengthAdjust="spacing" textLength="128.5845" x="486.7813" y="302.3247">5. Hasil (Count = 0)</text></g><g class="message" data-participant-1="App" data-participant-2="App"><line style="stroke:#181818;stroke-width:1;" x1="469.7813" x2="511.7813" y1="336.5234" y2="336.5234"/><line style="stroke:#181818;stroke-width:1;" x1="511.7813" x2="511.7813" y1="336.5234" y2="349.5234"/><line style="stroke:#181818;stroke-width:1;" x1="470.7813" x2="511.7813" y1="349.5234" y2="349.5234"/><polygon fill="#181818" points="480.7813,345.5234,470.7813,349.5234,480.7813,353.5234,476.7813,349.5234" style="stroke:#181818;stroke-width:1;"/><text fill="#000000" font-family="sans-serif" font-size="13" lengthAdjust="spacing" textLength="229.3091" x="476.7813" y="331.4575">6. Hash password (password_hash)</text></g><g class="message" data-participant-1="App" data-participant-2="DB"><polygon fill="#181818" points="901.0947,374.6563,911.0947,378.6563,901.0947,382.6563,905.0947,378.6563" style="stroke:#181818;stroke-width:1;"/><line style="stroke:#181818;stroke-width:1;" x1="469.7813" x2="907.0947" y1="378.6563" y2="378.6563"/><text fill="#000000" font-family="sans-serif" font-size="13" lengthAdjust="spacing" textLength="156.2729" x="476.7813" y="373.5903">7. START TRANSACTION</text></g><g class="message" data-participant-1="App" data-participant-2="DB"><polygon fill="#181818" points="906.0947,418.9219,916.0947,422.9219,906.0947,426.9219,910.0947,422.9219" style="stroke:#181818;stroke-width:1;"/><line style="stroke:#181818;stroke-width:1;" x1="469.7813" x2="912.0947" y1="422.9219" y2="422.9219"/><text fill="#000000" font-family="sans-serif" font-size="13" lengthAdjust="spacing" textLength="165.3184" x="476.7813" y="402.7231">8. Buat Pengguna (users)</text><text fill="#000000" font-family="sans-serif" font-size="13" lengthAdjust="spacing" textLength="419.3135" x="476.7813" y="417.856">INSERT INTO users (email, password_hash, role='administrator')</text></g><g class="message" data-participant-1="DB" data-participant-2="App"><polygon fill="#181818" points="480.7813,448.0547,470.7813,452.0547,480.7813,456.0547,476.7813,452.0547" style="stroke:#181818;stroke-width:1;"/><line style="stroke:#181818;stroke-width:1;stroke-dasharray:2,2;" x1="474.7813" x2="912.0947" y1="452.0547" y2="452.0547"/><text fill="#000000" font-family="sans-serif" font-size="13" lengthAdjust="spacing" textLength="63.2544" x="486.7813" y="446.9888">9. user_id</text></g><g class="message" data-participant-1="App" data-participant-2="DB"><polygon fill="#181818" points="906.0947,492.3203,916.0947,496.3203,906.0947,500.3203,910.0947,496.3203" style="stroke:#181818;stroke-width:1;"/><line style="stroke:#181818;stroke-width:1;" x1="469.7813" x2="912.0947" y1="496.3203" y2="496.3203"/><text fill="#000000" font-family="sans-serif" font-size="13" lengthAdjust="spacing" textLength="258.5083" x="476.7813" y="476.1216">10. Buat Profil Pengguna (user_profiles)</text><text fill="#000000" font-family="sans-serif" font-size="13" lengthAdjust="spacing" textLength="302.6372" x="476.7813" y="491.2544">INSERT INTO user_profiles (user_id, full_name)</text></g><g class="message" data-participant-1="DB" data-participant-2="App"><polygon fill="#181818" points="480.7813,521.4531,470.7813,525.4531,480.7813,529.4531,476.7813,525.4531" style="stroke:#181818;stroke-width:1;"/><line style="stroke:#181818;stroke-width:1;stroke-dasharray:2,2;" x1="474.7813" x2="912.0947" y1="525.4531" y2="525.4531"/><text fill="#000000" font-family="sans-serif" font-size="13" lengthAdjust="spacing" textLength="177.106" x="486.7813" y="520.3872">11. Konfirmasi profil dibuat</text></g><g class="message" data-participant-1="App" data-participant-2="DB"><polygon fill="#181818" points="906.0947,550.5859,916.0947,554.5859,906.0947,558.5859,910.0947,554.5859" style="stroke:#181818;stroke-width:1;"/><line style="stroke:#181818;stroke-width:1;" x1="469.7813" x2="912.0947" y1="554.5859" y2="554.5859"/><text fill="#000000" font-family="sans-serif" font-size="13" lengthAdjust="spacing" textLength="176.0015" x="476.7813" y="549.52">12. COMMIT TRANSACTION</text></g><g class="message" data-participant-1="DB" data-participant-2="App"><polygon fill="#181818" points="480.7813,579.7188,470.7813,583.7188,480.7813,587.7188,476.7813,583.7188" style="stroke:#181818;stroke-width:1;"/><line style="stroke:#181818;stroke-width:1;stroke-dasharray:2,2;" x1="474.7813" x2="912.0947" y1="583.7188" y2="583.7188"/><text fill="#000000" font-family="sans-serif" font-size="13" lengthAdjust="spacing" textLength="136.646" x="486.7813" y="578.6528">13. Transaksi Sukses</text></g><g class="message" data-participant-1="App" data-participant-2="Owner"><polygon fill="#181818" points="41.856,608.8516,31.856,612.8516,41.856,616.8516,37.856,612.8516" style="stroke:#181818;stroke-width:1;"/><line style="stroke:#181818;stroke-width:1;stroke-dasharray:2,2;" x1="35.856" x2="463.7813" y1="612.8516" y2="612.8516"/><text fill="#000000" font-family="sans-serif" font-size="13" lengthAdjust="spacing" textLength="372.417" x="47.856" y="607.7856">14. Response (Redirect ke halaman daftar administrator)</text></g><!--SRC=[VLDTZzem47pFhrZnK98Ambs_M-agXOyAr4AY9DS-z2gq40DM4YUodTxVxzgvWyiLxisoPsTdrhDzc7BSIopXLZOQ1JH2Dpa4HICXl1TCmfALcmOr17aZ8CXABhZI4dKb7KTpNR0M7CbACGLHYoQY__4mHjau3cxDkMVPUu2gxUFKA3NVyXg5XXwQkY7MDRZHFF8iBAXh9oFg3Ie6lRfIUY-P6cOR-peTEquhUFZLGE4BNFiGXKaAeyhSZ_2f5ZNQIeQQWIkmn06m4danW1gLkgzavXcL_Ay1cBQE8Jpoll7X9vDyntDK7CWrXrTmm1mmDoDexNHBtb895Zmp1SO3S54t6bpRbcREyrDlo6c0tf5WEgRwTsI5MkOA8MS6JWEsjNSYcVsOJLAOXBUhr7tjmRSuN4AZc5JmQpwBPoqERk2tFVmvEQEH4VdmAFAz3tCIM80xgIW6L7BbEHbxYk-w-c0B3YVbxkDfVQ3xPnu- -f2aGPn26WUh99YaYt3bd2Etw4y-Z4ti8YRs-qOWkDQJToSMgsH6B8jL6ZxuT9_zdkq-05aLxARV-VQ-Tzd-Pz_IhNbsmRJLTNtrA4nMEvfLLz-wjhVidCxZsmEKPmFODKMnfWIo5tHTKuw_LsB7PMdYqx90nisUlQYKSZe9byl5vObt-r18Kub2KOmv98q9yrb-gcWtZMeec35JTILe9zsOPLoohQQCqZuKj5Y2qhxJAA7p2vrK4UK_]--></g></svg>