<svg xmlns="http://www.w3.org/2000/svg" xmlns:xlink="http://www.w3.org/1999/xlink" contentStyleType="text/css" data-diagram-type="SEQUENCE" height="711px" preserveAspectRatio="none" style="width:1066px;height:711px;background:#FFFFFF;" version="1.1" viewBox="0 0 1066 711" width="1066px" zoomAndPan="magnify"><title>Alur Proses Penambahan Akun Pegawai Baru</title><defs/><g><text fill="#000000" font-family="sans-serif" font-size="14" font-weight="bold" lengthAdjust="spacing" textLength="355.8994" x="357.0417" y="27.9951">Alur Proses Penambahan Akun Pegawai Baru</text><g><title>main-app .PHP.</title><rect fill="#FFFFFF" height="463.125" style="stroke:#181818;stroke-width:1;" width="10" x="414.5894" y="149.7266"/></g><g><title>postgres-db</title><rect fill="#FFFFFF" height="29.1328" style="stroke:#181818;stroke-width:1;" width="10" x="1016.1777" y="278.2578"/></g><g><title>postgres-db</title><rect fill="#FFFFFF" height="243.1953" style="stroke:#181818;stroke-width:1;" width="10" x="1016.1777" y="378.6563"/></g><g><title>postgres-db</title><rect fill="#FFFFFF" height="29.1328" style="stroke:#181818;stroke-width:1;" width="10" x="1021.1777" y="422.9219"/></g><g><title>postgres-db</title><rect fill="#FFFFFF" height="29.1328" style="stroke:#181818;stroke-width:1;" width="10" x="1021.1777" y="496.3203"/></g><g><title>postgres-db</title><rect fill="#FFFFFF" height="29.1328" style="stroke:#181818;stroke-width:1;" width="10" x="1021.1777" y="554.5859"/></g><g><title>User Pemilik</title><rect fill="#000000" fill-opacity="0.00000" height="512.2578" width="8" x="47.415" y="118.5938"/><line style="stroke:#181818;stroke-width:0.5;stroke-dasharray:5,5;" x1="51" x2="51" y1="118.5938" y2="630.8516"/></g><g><title>main-app .PHP.</title><rect fill="#000000" fill-opacity="0.00000" height="512.2578" width="8" x="415.5894" y="118.5938"/><line style="stroke:#181818;stroke-width:0.5;stroke-dasharray:5,5;" x1="419.0044" x2="419.0044" y1="118.5938" y2="630.8516"/></g><g><title>postgres-db</title><rect fill="#000000" fill-opacity="0.00000" height="512.2578" width="8" x="1017.1777" y="118.5938"/><line style="stroke:#181818;stroke-width:0.5;stroke-dasharray:5,5;" x1="1020.3726" x2="1020.3726" y1="118.5938" y2="630.8516"/></g><g class="participant participant-head" data-participant="User"><text fill="#000000" font-family="sans-serif" font-size="14" lengthAdjust="spacing" textLength="86.8301" x="5" y="115.292">User Pemilik</text><ellipse cx="51.415" cy="50.7969" fill="#E2E2F0" rx="8" ry="8" style="stroke:#181818;stroke-width:0.5;"/><path d="M51.415,58.7969 L51.415,85.7969 M38.415,66.7969 L64.415,66.7969 M51.415,85.7969 L38.415,100.7969 M51.415,85.7969 L64.415,100.7969" fill="none" style="stroke:#181818;stroke-width:0.5;"/></g><g class="participant participant-tail" data-participant="User"><text fill="#000000" font-family="sans-serif" font-size="14" lengthAdjust="spacing" textLength="86.8301" x="5" y="642.8467">User Pemilik</text><ellipse cx="51.415" cy="654.6484" fill="#E2E2F0" rx="8" ry="8" style="stroke:#181818;stroke-width:0.5;"/><path d="M51.415,662.6484 L51.415,689.6484 M38.415,670.6484 L64.415,670.6484 M51.415,689.6484 L38.415,704.6484 M51.415,689.6484 L64.415,704.6484" fill="none" style="stroke:#181818;stroke-width:0.5;"/></g><g class="participant participant-head" data-participant="App"><rect fill="#E2E2F0" height="30.2969" rx="2.5" ry="2.5" style="stroke:#181818;stroke-width:0.5;" width="123.1699" x="358.0044" y="87.2969"/><text fill="#000000" font-family="sans-serif" font-size="14" lengthAdjust="spacing" textLength="109.1699" x="365.0044" y="107.292">main-app (PHP)</text></g><g class="participant participant-tail" data-participant="App"><rect fill="#E2E2F0" height="30.2969" rx="2.5" ry="2.5" style="stroke:#181818;stroke-width:0.5;" width="123.1699" x="358.0044" y="629.8516"/><text fill="#000000" font-family="sans-serif" font-size="14" lengthAdjust="spacing" textLength="109.1699" x="365.0044" y="649.8467">main-app (PHP)</text></g><g class="participant participant-head" data-participant="DB"><text fill="#000000" font-family="sans-serif" font-size="14" lengthAdjust="spacing" textLength="83.6104" x="976.3726" y="115.292">postgres-db</text><path d="M1003.1777,66.2969 C1003.1777,56.2969 1021.1777,56.2969 1021.1777,56.2969 C1021.1777,56.2969 1039.1777,56.2969 1039.1777,66.2969 L1039.1777,92.2969 C1039.1777,102.2969 1021.1777,102.2969 1021.1777,102.2969 C1021.1777,102.2969 1003.1777,102.2969 1003.1777,92.2969 L1003.1777,66.2969" fill="#E2E2F0" style="stroke:#181818;stroke-width:0.5;"/><path d="M1003.1777,66.2969 C1003.1777,76.2969 1021.1777,76.2969 1021.1777,76.2969 C1021.1777,76.2969 1039.1777,76.2969 1039.1777,66.2969" fill="none" style="stroke:#181818;stroke-width:0.5;"/></g><g class="participant participant-tail" data-participant="DB"><text fill="#000000" font-family="sans-serif" font-size="14" lengthAdjust="spacing" textLength="83.6104" x="976.3726" y="642.8467">postgres-db</text><path d="M1003.1777,656.1484 C1003.1777,646.1484 1021.1777,646.1484 1021.1777,646.1484 C1021.1777,646.1484 1039.1777,646.1484 1039.1777,656.1484 L1039.1777,682.1484 C1039.1777,692.1484 1021.1777,692.1484 1021.1777,692.1484 C1021.1777,692.1484 1003.1777,692.1484 1003.1777,682.1484 L1003.1777,656.1484" fill="#E2E2F0" style="stroke:#181818;stroke-width:0.5;"/><path d="M1003.1777,656.1484 C1003.1777,666.1484 1021.1777,666.1484 1021.1777,666.1484 C1021.1777,666.1484 1039.1777,666.1484 1039.1777,656.1484" fill="none" style="stroke:#181818;stroke-width:0.5;"/></g><g><title>main-app .PHP.</title><rect fill="#FFFFFF" height="463.125" style="stroke:#181818;stroke-width:1;" width="10" x="414.5894" y="149.7266"/></g><g><title>postgres-db</title><rect fill="#FFFFFF" height="29.1328" style="stroke:#181818;stroke-width:1;" width="10" x="1016.1777" y="278.2578"/></g><g><title>postgres-db</title><rect fill="#FFFFFF" height="243.1953" style="stroke:#181818;stroke-width:1;" width="10" x="1016.1777" y="378.6563"/></g><g><title>postgres-db</title><rect fill="#FFFFFF" height="29.1328" style="stroke:#181818;stroke-width:1;" width="10" x="1021.1777" y="422.9219"/></g><g><title>postgres-db</title><rect fill="#FFFFFF" height="29.1328" style="stroke:#181818;stroke-width:1;" width="10" x="1021.1777" y="496.3203"/></g><g><title>postgres-db</title><rect fill="#FFFFFF" height="29.1328" style="stroke:#181818;stroke-width:1;" width="10" x="1021.1777" y="554.5859"/></g><g class="message" data-participant-1="User" data-participant-2="App"><polygon fill="#181818" points="402.5894,145.7266,412.5894,149.7266,402.5894,153.7266,406.5894,149.7266" style="stroke:#181818;stroke-width:1;"/><line style="stroke:#181818;stroke-width:1;" x1="51.415" x2="408.5894" y1="149.7266" y2="149.7266"/><text fill="#000000" font-family="sans-serif" font-size="13" lengthAdjust="spacing" textLength="341.6245" x="58.415" y="144.6606">1. POST /employees/create (nama, email, password)</text></g><g class="message" data-participant-1="App" data-participant-2="App"><line style="stroke:#181818;stroke-width:1;" x1="424.5894" x2="466.5894" y1="178.8594" y2="178.8594"/><line style="stroke:#181818;stroke-width:1;" x1="466.5894" x2="466.5894" y1="178.8594" y2="191.8594"/><line style="stroke:#181818;stroke-width:1;" x1="425.5894" x2="466.5894" y1="191.8594" y2="191.8594"/><polygon fill="#181818" points="435.5894,187.8594,425.5894,191.8594,435.5894,195.8594,431.5894,191.8594" style="stroke:#181818;stroke-width:1;"/><text fill="#000000" font-family="sans-serif" font-size="13" lengthAdjust="spacing" textLength="285.689" x="431.5894" y="173.7935">2. Validasi data (email unik, password kuat)</text></g><g class="message" data-participant-1="App" data-participant-2="App"><line style="stroke:#181818;stroke-width:1;" x1="424.5894" x2="466.5894" y1="220.9922" y2="220.9922"/><line style="stroke:#181818;stroke-width:1;" x1="466.5894" x2="466.5894" y1="220.9922" y2="233.9922"/><line style="stroke:#181818;stroke-width:1;" x1="425.5894" x2="466.5894" y1="233.9922" y2="233.9922"/><polygon fill="#181818" points="435.5894,229.9922,425.5894,233.9922,435.5894,237.9922,431.5894,233.9922" style="stroke:#181818;stroke-width:1;"/><text fill="#000000" font-family="sans-serif" font-size="13" lengthAdjust="spacing" textLength="252.5859" x="431.5894" y="215.9263">3. Ambil store_id dari sesi User Pemilik</text></g><g class="message" data-participant-1="App" data-participant-2="DB"><polygon fill="#181818" points="1004.1777,274.2578,1014.1777,278.2578,1004.1777,282.2578,1008.1777,278.2578" style="stroke:#181818;stroke-width:1;"/><line style="stroke:#181818;stroke-width:1;" x1="424.5894" x2="1010.1777" y1="278.2578" y2="278.2578"/><text fill="#000000" font-family="sans-serif" font-size="13" lengthAdjust="spacing" textLength="167.064" x="431.5894" y="258.0591">4. Periksa keunikan email</text><text fill="#000000" font-family="sans-serif" font-size="13" lengthAdjust="spacing" textLength="354.9165" x="431.5894" y="273.1919">SELECT COUNT(*) FROM users WHERE email = [email]</text></g><g class="message" data-participant-1="DB" data-participant-2="App"><polygon fill="#181818" points="435.5894,303.3906,425.5894,307.3906,435.5894,311.3906,431.5894,307.3906" style="stroke:#181818;stroke-width:1;"/><line style="stroke:#181818;stroke-width:1;stroke-dasharray:2,2;" x1="429.5894" x2="1020.1777" y1="307.3906" y2="307.3906"/><text fill="#000000" font-family="sans-serif" font-size="13" lengthAdjust="spacing" textLength="128.5845" x="441.5894" y="302.3247">5. Hasil (Count = 0)</text></g><g class="message" data-participant-1="App" data-participant-2="App"><line style="stroke:#181818;stroke-width:1;" x1="424.5894" x2="466.5894" y1="336.5234" y2="336.5234"/><line style="stroke:#181818;stroke-width:1;" x1="466.5894" x2="466.5894" y1="336.5234" y2="349.5234"/><line style="stroke:#181818;stroke-width:1;" x1="425.5894" x2="466.5894" y1="349.5234" y2="349.5234"/><polygon fill="#181818" points="435.5894,345.5234,425.5894,349.5234,435.5894,353.5234,431.5894,349.5234" style="stroke:#181818;stroke-width:1;"/><text fill="#000000" font-family="sans-serif" font-size="13" lengthAdjust="spacing" textLength="229.3091" x="431.5894" y="331.4575">6. Hash password (password_hash)</text></g><g class="message" data-participant-1="App" data-participant-2="DB"><polygon fill="#181818" points="1004.1777,374.6563,1014.1777,378.6563,1004.1777,382.6563,1008.1777,378.6563" style="stroke:#181818;stroke-width:1;"/><line style="stroke:#181818;stroke-width:1;" x1="424.5894" x2="1010.1777" y1="378.6563" y2="378.6563"/><text fill="#000000" font-family="sans-serif" font-size="13" lengthAdjust="spacing" textLength="156.2729" x="431.5894" y="373.5903">7. START TRANSACTION</text></g><g class="message" data-participant-1="App" data-participant-2="DB"><polygon fill="#181818" points="1009.1777,418.9219,1019.1777,422.9219,1009.1777,426.9219,1013.1777,422.9219" style="stroke:#181818;stroke-width:1;"/><line style="stroke:#181818;stroke-width:1;" x1="424.5894" x2="1015.1777" y1="422.9219" y2="422.9219"/><text fill="#000000" font-family="sans-serif" font-size="13" lengthAdjust="spacing" textLength="165.3184" x="431.5894" y="402.7231">8. Buat Pengguna (users)</text><text fill="#000000" font-family="sans-serif" font-size="13" lengthAdjust="spacing" textLength="567.5884" x="431.5894" y="417.856">INSERT INTO users (email, password_hash, role='store_employee', store_id=[store_id])</text></g><g class="message" data-participant-1="DB" data-participant-2="App"><polygon fill="#181818" points="435.5894,448.0547,425.5894,452.0547,435.5894,456.0547,431.5894,452.0547" style="stroke:#181818;stroke-width:1;"/><line style="stroke:#181818;stroke-width:1;stroke-dasharray:2,2;" x1="429.5894" x2="1015.1777" y1="452.0547" y2="452.0547"/><text fill="#000000" font-family="sans-serif" font-size="13" lengthAdjust="spacing" textLength="63.2544" x="441.5894" y="446.9888">9. user_id</text></g><g class="message" data-participant-1="App" data-participant-2="DB"><polygon fill="#181818" points="1009.1777,492.3203,1019.1777,496.3203,1009.1777,500.3203,1013.1777,496.3203" style="stroke:#181818;stroke-width:1;"/><line style="stroke:#181818;stroke-width:1;" x1="424.5894" x2="1015.1777" y1="496.3203" y2="496.3203"/><text fill="#000000" font-family="sans-serif" font-size="13" lengthAdjust="spacing" textLength="258.5083" x="431.5894" y="476.1216">10. Buat Profil Pengguna (user_profiles)</text><text fill="#000000" font-family="sans-serif" font-size="13" lengthAdjust="spacing" textLength="302.6372" x="431.5894" y="491.2544">INSERT INTO user_profiles (user_id, full_name)</text></g><g class="message" data-participant-1="DB" data-participant-2="App"><polygon fill="#181818" points="435.5894,521.4531,425.5894,525.4531,435.5894,529.4531,431.5894,525.4531" style="stroke:#181818;stroke-width:1;"/><line style="stroke:#181818;stroke-width:1;stroke-dasharray:2,2;" x1="429.5894" x2="1015.1777" y1="525.4531" y2="525.4531"/><text fill="#000000" font-family="sans-serif" font-size="13" lengthAdjust="spacing" textLength="177.106" x="441.5894" y="520.3872">11. Konfirmasi profil dibuat</text></g><g class="message" data-participant-1="App" data-participant-2="DB"><polygon fill="#181818" points="1009.1777,550.5859,1019.1777,554.5859,1009.1777,558.5859,1013.1777,554.5859" style="stroke:#181818;stroke-width:1;"/><line style="stroke:#181818;stroke-width:1;" x1="424.5894" x2="1015.1777" y1="554.5859" y2="554.5859"/><text fill="#000000" font-family="sans-serif" font-size="13" lengthAdjust="spacing" textLength="176.0015" x="431.5894" y="549.52">12. COMMIT TRANSACTION</text></g><g class="message" data-participant-1="DB" data-participant-2="App"><polygon fill="#181818" points="435.5894,579.7188,425.5894,583.7188,435.5894,587.7188,431.5894,583.7188" style="stroke:#181818;stroke-width:1;"/><line style="stroke:#181818;stroke-width:1;stroke-dasharray:2,2;" x1="429.5894" x2="1015.1777" y1="583.7188" y2="583.7188"/><text fill="#000000" font-family="sans-serif" font-size="13" lengthAdjust="spacing" textLength="136.646" x="441.5894" y="578.6528">13. Transaksi Sukses</text></g><g class="message" data-participant-1="App" data-participant-2="User"><polygon fill="#181818" points="62.415,608.8516,52.415,612.8516,62.415,616.8516,58.415,612.8516" style="stroke:#181818;stroke-width:1;"/><line style="stroke:#181818;stroke-width:1;stroke-dasharray:2,2;" x1="56.415" x2="418.5894" y1="612.8516" y2="612.8516"/><text fill="#000000" font-family="sans-serif" font-size="13" lengthAdjust="spacing" textLength="339.1743" x="68.415" y="607.7856">14. Response (Redirect ke halaman daftar pegawai)</text></g><!--SRC=[VLJRRjf057ptLnpnWbs14tfl9IgPImLAmPPjseSaGWUymCgtrUwwKV- -n-i0SGHvMzbpPkRCZjs52SUzn1nMij9OG5NeAWKlgoIi59CGi9ndF8K5Ap3Vu24bJC3s-8GSHYWhoz9SPwoP26IfcABt3PQWNbgznkDMbn8wBzaxWCh8MGAbvbikiD3GoP4NVHG2x60ME0Ra2M4bg763Ya57b4hl9LFzP6FUJaQMPNZxFseaV8U12u4VnN33Sf6L_nXJDrl9K3EmoIFsW958rWE1IZsLCd5gU_nl3QYbh9hbHFRUXT-OyGGLXze4s6QQCkFfcGBI2hNJdlpWWfTl2AfeTxRc2SrB3XGMRyLy4foCQEeZcMUIfmeXPRK81MeK7ufe-ciwZc7ihvQn_Sw1dw6_W8gO5FoPJSDfWuCXt9l3utajoeZ8-oThdroOqK8PsEEIBfz6RXqhOI_nxLq-cu73UL_xU5eVwBdJtk6B2r7iXJ74eRUCl74yzvVM9NA3_kh2YDAh6xJVLmKbR7Po7ehvCfeIotmP-yzxsg-kpgZtG9OP6tQRd8-NtksTWX_U7q-FplLGlhb6X51NeZ1k1xT7kxBSKO9jrsjXdh9Bxa_ldg4ywS6koh8rbPAzuMj0VRuhYnsNULt2XWKIlY4NRpgbwexznM9-_HxQEbJOM6AXC2MPg4gfgHVvQSBqbqQehI5JeYpeoxH3bd39jfgA2mVCw5ChgF8xZH94ypTebOou_WC0]--></g></svg>