<svg xmlns="http://www.w3.org/2000/svg" xmlns:xlink="http://www.w3.org/1999/xlink" contentStyleType="text/css" data-diagram-type="SEQUENCE" height="982px" preserveAspectRatio="none" style="width:1049px;height:982px;background:#FFFFFF;" version="1.1" viewBox="0 0 1049 982" width="1049px" zoomAndPan="magnify"><title>Alur Proses Pengunjung Mengelola Keranjang Belanja</title><defs/><g><text fill="#000000" font-family="sans-serif" font-size="14" font-weight="bold" lengthAdjust="spacing" textLength="425.3457" x="308.04" y="27.9951">Alur Proses Pengunjung Mengelola Keranjang Belanja</text><g><title>main-app .PHP.</title><rect fill="#FFFFFF" height="129.5313" style="stroke:#181818;stroke-width:1;" width="10" x="562.7935" y="192.8594"/></g><g><title>main-app .PHP.</title><rect fill="#FFFFFF" height="187.7969" style="stroke:#181818;stroke-width:1;" width="10" x="562.7935" y="435.4609"/></g><g><title>main-app .PHP.</title><rect fill="#FFFFFF" height="187.7969" style="stroke:#181818;stroke-width:1;" width="10" x="562.7935" y="695.5234"/></g><g><title>Session Storage</title><rect fill="#FFFFFF" height="29.1328" style="stroke:#181818;stroke-width:1;" width="10" x="969.1045" y="221.9922"/></g><g><title>Session Storage</title><rect fill="#FFFFFF" height="29.1328" style="stroke:#181818;stroke-width:1;" width="10" x="969.1045" y="464.5938"/></g><g><title>Session Storage</title><rect fill="#FFFFFF" height="29.1328" style="stroke:#181818;stroke-width:1;" width="10" x="969.1045" y="564.9922"/></g><g><title>Session Storage</title><rect fill="#FFFFFF" height="29.1328" style="stroke:#181818;stroke-width:1;" width="10" x="969.1045" y="724.6563"/></g><g><title>Session Storage</title><rect fill="#FFFFFF" height="29.1328" style="stroke:#181818;stroke-width:1;" width="10" x="969.1045" y="825.0547"/></g><g><title>Pengunjung .Browser.</title><rect fill="#000000" fill-opacity="0.00000" height="211.7969" width="8" x="81.7485" y="118.5938"/><line style="stroke:#181818;stroke-width:0.5;stroke-dasharray:5,5;" x1="85" x2="85" y1="118.5938" y2="330.3906"/></g><line style="stroke:#181818;stroke-width:0.5;stroke-dasharray:1,4;" x1="85" x2="85" y1="330.3906" y2="371.1953"/><g><title>Pengunjung .Browser.</title><rect fill="#000000" fill-opacity="0.00000" height="530.125" width="8" x="81.7485" y="371.1953"/><line style="stroke:#181818;stroke-width:0.5;stroke-dasharray:5,5;" x1="85" x2="85" y1="371.1953" y2="901.3203"/></g><g><title>main-app .PHP.</title><rect fill="#000000" fill-opacity="0.00000" height="211.7969" width="8" x="563.7935" y="118.5938"/><line style="stroke:#181818;stroke-width:0.5;stroke-dasharray:5,5;" x1="567.2085" x2="567.2085" y1="118.5938" y2="330.3906"/></g><line style="stroke:#181818;stroke-width:0.5;stroke-dasharray:1,4;" x1="567.2085" x2="567.2085" y1="330.3906" y2="371.1953"/><g><title>main-app .PHP.</title><rect fill="#000000" fill-opacity="0.00000" height="530.125" width="8" x="563.7935" y="371.1953"/><line style="stroke:#181818;stroke-width:0.5;stroke-dasharray:5,5;" x1="567.2085" x2="567.2085" y1="371.1953" y2="901.3203"/></g><g><title>Session Storage</title><rect fill="#000000" fill-opacity="0.00000" height="211.7969" width="8" x="970.1045" y="118.5938"/><line style="stroke:#181818;stroke-width:0.5;stroke-dasharray:5,5;" x1="973.7832" x2="973.7832" y1="118.5938" y2="330.3906"/></g><line style="stroke:#181818;stroke-width:0.5;stroke-dasharray:1,4;" x1="973.7832" x2="973.7832" y1="330.3906" y2="371.1953"/><g><title>Session Storage</title><rect fill="#000000" fill-opacity="0.00000" height="530.125" width="8" x="970.1045" y="371.1953"/><line style="stroke:#181818;stroke-width:0.5;stroke-dasharray:5,5;" x1="973.7832" x2="973.7832" y1="371.1953" y2="901.3203"/></g><g class="participant participant-head" data-participant="User"><text fill="#000000" font-family="sans-serif" font-size="14" lengthAdjust="spacing" textLength="155.4971" x="5" y="115.292">Pengunjung (Browser)</text><ellipse cx="85.7485" cy="50.7969" fill="#E2E2F0" rx="8" ry="8" style="stroke:#181818;stroke-width:0.5;"/><path d="M85.7485,58.7969 L85.7485,85.7969 M72.7485,66.7969 L98.7485,66.7969 M85.7485,85.7969 L72.7485,100.7969 M85.7485,85.7969 L98.7485,100.7969" fill="none" style="stroke:#181818;stroke-width:0.5;"/></g><g class="participant participant-tail" data-participant="User"><text fill="#000000" font-family="sans-serif" font-size="14" lengthAdjust="spacing" textLength="155.4971" x="5" y="913.3154">Pengunjung (Browser)</text><ellipse cx="85.7485" cy="925.1172" fill="#E2E2F0" rx="8" ry="8" style="stroke:#181818;stroke-width:0.5;"/><path d="M85.7485,933.1172 L85.7485,960.1172 M72.7485,941.1172 L98.7485,941.1172 M85.7485,960.1172 L72.7485,975.1172 M85.7485,960.1172 L98.7485,975.1172" fill="none" style="stroke:#181818;stroke-width:0.5;"/></g><g class="participant participant-head" data-participant="App"><rect fill="#E2E2F0" height="30.2969" rx="2.5" ry="2.5" style="stroke:#181818;stroke-width:0.5;" width="123.1699" x="506.2085" y="87.2969"/><text fill="#000000" font-family="sans-serif" font-size="14" lengthAdjust="spacing" textLength="109.1699" x="513.2085" y="107.292">main-app (PHP)</text></g><g class="participant participant-tail" data-participant="App"><rect fill="#E2E2F0" height="30.2969" rx="2.5" ry="2.5" style="stroke:#181818;stroke-width:0.5;" width="123.1699" x="506.2085" y="900.3203"/><text fill="#000000" font-family="sans-serif" font-size="14" lengthAdjust="spacing" textLength="109.1699" x="513.2085" y="920.3154">main-app (PHP)</text></g><g class="participant participant-head" data-participant="Session"><rect fill="#E2E2F0" height="30.2969" rx="2.5" ry="2.5" style="stroke:#181818;stroke-width:0.5;" width="126.6426" x="910.7832" y="87.2969"/><text fill="#000000" font-family="sans-serif" font-size="14" lengthAdjust="spacing" textLength="112.6426" x="917.7832" y="107.292">Session Storage</text></g><g class="participant participant-tail" data-participant="Session"><rect fill="#E2E2F0" height="30.2969" rx="2.5" ry="2.5" style="stroke:#181818;stroke-width:0.5;" width="126.6426" x="910.7832" y="900.3203"/><text fill="#000000" font-family="sans-serif" font-size="14" lengthAdjust="spacing" textLength="112.6426" x="917.7832" y="920.3154">Session Storage</text></g><g><title>main-app .PHP.</title><rect fill="#FFFFFF" height="129.5313" style="stroke:#181818;stroke-width:1;" width="10" x="562.7935" y="192.8594"/></g><g><title>main-app .PHP.</title><rect fill="#FFFFFF" height="187.7969" style="stroke:#181818;stroke-width:1;" width="10" x="562.7935" y="435.4609"/></g><g><title>main-app .PHP.</title><rect fill="#FFFFFF" height="187.7969" style="stroke:#181818;stroke-width:1;" width="10" x="562.7935" y="695.5234"/></g><g><title>Session Storage</title><rect fill="#FFFFFF" height="29.1328" style="stroke:#181818;stroke-width:1;" width="10" x="969.1045" y="221.9922"/></g><g><title>Session Storage</title><rect fill="#FFFFFF" height="29.1328" style="stroke:#181818;stroke-width:1;" width="10" x="969.1045" y="464.5938"/></g><g><title>Session Storage</title><rect fill="#FFFFFF" height="29.1328" style="stroke:#181818;stroke-width:1;" width="10" x="969.1045" y="564.9922"/></g><g><title>Session Storage</title><rect fill="#FFFFFF" height="29.1328" style="stroke:#181818;stroke-width:1;" width="10" x="969.1045" y="724.6563"/></g><g><title>Session Storage</title><rect fill="#FFFFFF" height="29.1328" style="stroke:#181818;stroke-width:1;" width="10" x="969.1045" y="825.0547"/></g><rect fill="#EEEEEE" height="3" style="stroke:#EEEEEE;stroke-width:1;" width="1042.4258" x="0" y="149.1602"/><line style="stroke:#000000;stroke-width:1;" x1="0" x2="1042.4258" y1="149.1602" y2="149.1602"/><line style="stroke:#000000;stroke-width:1;" x1="0" x2="1042.4258" y1="152.1602" y2="152.1602"/><rect fill="#EEEEEE" height="23.1328" style="stroke:#000000;stroke-width:2;" width="295.8232" x="373.3013" y="138.5938"/><text fill="#000000" font-family="sans-serif" font-size="13" font-weight="bold" lengthAdjust="spacing" textLength="277.2974" x="379.3013" y="154.6606">Bagian 1: Melihat Halaman Keranjang</text><g class="message" data-participant-1="User" data-participant-2="App"><polygon fill="#181818" points="550.7935,188.8594,560.7935,192.8594,550.7935,196.8594,554.7935,192.8594" style="stroke:#181818;stroke-width:1;"/><line style="stroke:#181818;stroke-width:1;" x1="85.7485" x2="556.7935" y1="192.8594" y2="192.8594"/><text fill="#000000" font-family="sans-serif" font-size="13" lengthAdjust="spacing" textLength="76.832" x="92.7485" y="187.7935">1. GET /cart</text></g><g class="message" data-participant-1="App" data-participant-2="Session"><polygon fill="#181818" points="957.1045,217.9922,967.1045,221.9922,957.1045,225.9922,961.1045,221.9922" style="stroke:#181818;stroke-width:1;"/><line style="stroke:#181818;stroke-width:1;" x1="572.7935" x2="963.1045" y1="221.9922" y2="221.9922"/><text fill="#000000" font-family="sans-serif" font-size="13" lengthAdjust="spacing" textLength="214.8555" x="579.7935" y="216.9263">2. Ambil data keranjang dari sesi</text></g><g class="message" data-participant-1="Session" data-participant-2="App"><polygon fill="#181818" points="583.7935,247.125,573.7935,251.125,583.7935,255.125,579.7935,251.125" style="stroke:#181818;stroke-width:1;"/><line style="stroke:#181818;stroke-width:1;stroke-dasharray:2,2;" x1="577.7935" x2="973.1045" y1="251.125" y2="251.125"/><text fill="#000000" font-family="sans-serif" font-size="13" lengthAdjust="spacing" textLength="215.1475" x="589.7935" y="246.0591">3. Data keranjang (array produk)</text></g><g class="message" data-participant-1="App" data-participant-2="App"><line style="stroke:#181818;stroke-width:1;" x1="572.7935" x2="614.7935" y1="280.2578" y2="280.2578"/><line style="stroke:#181818;stroke-width:1;" x1="614.7935" x2="614.7935" y1="280.2578" y2="293.2578"/><line style="stroke:#181818;stroke-width:1;" x1="573.7935" x2="614.7935" y1="293.2578" y2="293.2578"/><polygon fill="#181818" points="583.7935,289.2578,573.7935,293.2578,583.7935,297.2578,579.7935,293.2578" style="stroke:#181818;stroke-width:1;"/><text fill="#000000" font-family="sans-serif" font-size="13" lengthAdjust="spacing" textLength="286.8379" x="579.7935" y="275.1919">4. Proses data (misal: hitung subtotal, total)</text></g><g class="message" data-participant-1="App" data-participant-2="User"><polygon fill="#181818" points="96.7485,318.3906,86.7485,322.3906,96.7485,326.3906,92.7485,322.3906" style="stroke:#181818;stroke-width:1;"/><line style="stroke:#181818;stroke-width:1;stroke-dasharray:2,2;" x1="90.7485" x2="566.7935" y1="322.3906" y2="322.3906"/><text fill="#000000" font-family="sans-serif" font-size="13" lengthAdjust="spacing" textLength="426.0293" x="102.7485" y="317.3247">5. Response (Tampilkan halaman keranjang dengan semua item)</text></g><text fill="#000000" font-family="sans-serif" font-size="11" lengthAdjust="spacing" textLength="268.2056" x="395.8237" y="354.6011">Pengguna melakukan aksi di halaman keranjang</text><rect fill="#EEEEEE" height="3" style="stroke:#EEEEEE;stroke-width:1;" width="1042.4258" x="0" y="391.7617"/><line style="stroke:#000000;stroke-width:1;" x1="0" x2="1042.4258" y1="391.7617" y2="391.7617"/><line style="stroke:#000000;stroke-width:1;" x1="0" x2="1042.4258" y1="394.7617" y2="394.7617"/><rect fill="#EEEEEE" height="23.1328" style="stroke:#000000;stroke-width:2;" width="282.9121" x="379.7568" y="381.1953"/><text fill="#000000" font-family="sans-serif" font-size="13" font-weight="bold" lengthAdjust="spacing" textLength="264.3862" x="385.7568" y="397.2622">Bagian 2: Memperbarui Jumlah Item</text><g class="message" data-participant-1="User" data-participant-2="App"><polygon fill="#181818" points="550.7935,431.4609,560.7935,435.4609,550.7935,439.4609,554.7935,435.4609" style="stroke:#181818;stroke-width:1;"/><line style="stroke:#181818;stroke-width:1;" x1="85.7485" x2="556.7935" y1="435.4609" y2="435.4609"/><text fill="#000000" font-family="sans-serif" font-size="13" lengthAdjust="spacing" textLength="292.8936" x="92.7485" y="430.395">6. POST /cart/update (item_id, new_quantity)</text></g><g class="message" data-participant-1="App" data-participant-2="Session"><polygon fill="#181818" points="957.1045,460.5938,967.1045,464.5938,957.1045,468.5938,961.1045,464.5938" style="stroke:#181818;stroke-width:1;"/><line style="stroke:#181818;stroke-width:1;" x1="572.7935" x2="963.1045" y1="464.5938" y2="464.5938"/><text fill="#000000" font-family="sans-serif" font-size="13" lengthAdjust="spacing" textLength="214.8555" x="579.7935" y="459.5278">7. Ambil data keranjang dari sesi</text></g><g class="message" data-participant-1="Session" data-participant-2="App"><polygon fill="#181818" points="583.7935,489.7266,573.7935,493.7266,583.7935,497.7266,579.7935,493.7266" style="stroke:#181818;stroke-width:1;"/><line style="stroke:#181818;stroke-width:1;stroke-dasharray:2,2;" x1="577.7935" x2="973.1045" y1="493.7266" y2="493.7266"/><text fill="#000000" font-family="sans-serif" font-size="13" lengthAdjust="spacing" textLength="116.854" x="589.7935" y="488.6606">8. Data keranjang</text></g><g class="message" data-participant-1="App" data-participant-2="App"><line style="stroke:#181818;stroke-width:1;" x1="572.7935" x2="614.7935" y1="522.8594" y2="522.8594"/><line style="stroke:#181818;stroke-width:1;" x1="614.7935" x2="614.7935" y1="522.8594" y2="535.8594"/><line style="stroke:#181818;stroke-width:1;" x1="573.7935" x2="614.7935" y1="535.8594" y2="535.8594"/><polygon fill="#181818" points="583.7935,531.8594,573.7935,535.8594,583.7935,539.8594,579.7935,535.8594" style="stroke:#181818;stroke-width:1;"/><text fill="#000000" font-family="sans-serif" font-size="13" lengthAdjust="spacing" textLength="360.0898" x="579.7935" y="517.7935">9. Cari item di array keranjang &amp; perbarui quantity-nya</text></g><g class="message" data-participant-1="App" data-participant-2="Session"><polygon fill="#181818" points="957.1045,560.9922,967.1045,564.9922,957.1045,568.9922,961.1045,564.9922" style="stroke:#181818;stroke-width:1;"/><line style="stroke:#181818;stroke-width:1;" x1="572.7935" x2="963.1045" y1="564.9922" y2="564.9922"/><text fill="#000000" font-family="sans-serif" font-size="13" lengthAdjust="spacing" textLength="377.311" x="579.7935" y="559.9263">10. Simpan data keranjang yang diperbarui ke dalam sesi</text></g><g class="message" data-participant-1="Session" data-participant-2="App"><polygon fill="#181818" points="583.7935,590.125,573.7935,594.125,583.7935,598.125,579.7935,594.125" style="stroke:#181818;stroke-width:1;"/><line style="stroke:#181818;stroke-width:1;stroke-dasharray:2,2;" x1="577.7935" x2="973.1045" y1="594.125" y2="594.125"/><text fill="#000000" font-family="sans-serif" font-size="13" lengthAdjust="spacing" textLength="186.8623" x="589.7935" y="589.0591">11. Konfirmasi sesi disimpan</text></g><g class="message" data-participant-1="App" data-participant-2="User"><polygon fill="#181818" points="96.7485,619.2578,86.7485,623.2578,96.7485,627.2578,92.7485,623.2578" style="stroke:#181818;stroke-width:1;"/><line style="stroke:#181818;stroke-width:1;stroke-dasharray:2,2;" x1="90.7485" x2="566.7935" y1="623.2578" y2="623.2578"/><text fill="#000000" font-family="sans-serif" font-size="13" lengthAdjust="spacing" textLength="453.0449" x="102.7485" y="618.1919">12. Response (JSON: {success: true, new_subtotal: ..., new_total: ...})</text></g><rect fill="#EEEEEE" height="3" style="stroke:#EEEEEE;stroke-width:1;" width="1042.4258" x="0" y="651.8242"/><line style="stroke:#000000;stroke-width:1;" x1="0" x2="1042.4258" y1="651.8242" y2="651.8242"/><line style="stroke:#000000;stroke-width:1;" x1="0" x2="1042.4258" y1="654.8242" y2="654.8242"/><rect fill="#EEEEEE" height="23.1328" style="stroke:#000000;stroke-width:2;" width="327.9868" x="357.2195" y="641.2578"/><text fill="#000000" font-family="sans-serif" font-size="13" font-weight="bold" lengthAdjust="spacing" textLength="309.4609" x="363.2195" y="657.3247">Bagian 3: Menghapus Item dari Keranjang</text><g class="message" data-participant-1="User" data-participant-2="App"><polygon fill="#181818" points="550.7935,691.5234,560.7935,695.5234,550.7935,699.5234,554.7935,695.5234" style="stroke:#181818;stroke-width:1;"/><line style="stroke:#181818;stroke-width:1;" x1="85.7485" x2="556.7935" y1="695.5234" y2="695.5234"/><text fill="#000000" font-family="sans-serif" font-size="13" lengthAdjust="spacing" textLength="209.1807" x="92.7485" y="690.4575">13. POST /cart/remove (item_id)</text></g><g class="message" data-participant-1="App" data-participant-2="Session"><polygon fill="#181818" points="957.1045,720.6563,967.1045,724.6563,957.1045,728.6563,961.1045,724.6563" style="stroke:#181818;stroke-width:1;"/><line style="stroke:#181818;stroke-width:1;" x1="572.7935" x2="963.1045" y1="724.6563" y2="724.6563"/><text fill="#000000" font-family="sans-serif" font-size="13" lengthAdjust="spacing" textLength="223.1265" x="579.7935" y="719.5903">14. Ambil data keranjang dari sesi</text></g><g class="message" data-participant-1="Session" data-participant-2="App"><polygon fill="#181818" points="583.7935,749.7891,573.7935,753.7891,583.7935,757.7891,579.7935,753.7891" style="stroke:#181818;stroke-width:1;"/><line style="stroke:#181818;stroke-width:1;stroke-dasharray:2,2;" x1="577.7935" x2="973.1045" y1="753.7891" y2="753.7891"/><text fill="#000000" font-family="sans-serif" font-size="13" lengthAdjust="spacing" textLength="125.125" x="589.7935" y="748.7231">15. Data keranjang</text></g><g class="message" data-participant-1="App" data-participant-2="App"><line style="stroke:#181818;stroke-width:1;" x1="572.7935" x2="614.7935" y1="782.9219" y2="782.9219"/><line style="stroke:#181818;stroke-width:1;" x1="614.7935" x2="614.7935" y1="782.9219" y2="795.9219"/><line style="stroke:#181818;stroke-width:1;" x1="573.7935" x2="614.7935" y1="795.9219" y2="795.9219"/><polygon fill="#181818" points="583.7935,791.9219,573.7935,795.9219,583.7935,799.9219,579.7935,795.9219" style="stroke:#181818;stroke-width:1;"/><text fill="#000000" font-family="sans-serif" font-size="13" lengthAdjust="spacing" textLength="236.3486" x="579.7935" y="777.856">16. Hapus item dari array keranjang</text></g><g class="message" data-participant-1="App" data-participant-2="Session"><polygon fill="#181818" points="957.1045,821.0547,967.1045,825.0547,957.1045,829.0547,961.1045,825.0547" style="stroke:#181818;stroke-width:1;"/><line style="stroke:#181818;stroke-width:1;" x1="572.7935" x2="963.1045" y1="825.0547" y2="825.0547"/><text fill="#000000" font-family="sans-serif" font-size="13" lengthAdjust="spacing" textLength="377.311" x="579.7935" y="819.9888">17. Simpan data keranjang yang diperbarui ke dalam sesi</text></g><g class="message" data-participant-1="Session" data-participant-2="App"><polygon fill="#181818" points="583.7935,850.1875,573.7935,854.1875,583.7935,858.1875,579.7935,854.1875" style="stroke:#181818;stroke-width:1;"/><line style="stroke:#181818;stroke-width:1;stroke-dasharray:2,2;" x1="577.7935" x2="973.1045" y1="854.1875" y2="854.1875"/><text fill="#000000" font-family="sans-serif" font-size="13" lengthAdjust="spacing" textLength="186.8623" x="589.7935" y="849.1216">18. Konfirmasi sesi disimpan</text></g><g class="message" data-participant-1="App" data-participant-2="User"><polygon fill="#181818" points="96.7485,879.3203,86.7485,883.3203,96.7485,887.3203,92.7485,883.3203" style="stroke:#181818;stroke-width:1;"/><line style="stroke:#181818;stroke-width:1;stroke-dasharray:2,2;" x1="90.7485" x2="566.7935" y1="883.3203" y2="883.3203"/><text fill="#000000" font-family="sans-serif" font-size="13" lengthAdjust="spacing" textLength="435.4175" x="102.7485" y="878.2544">19. Response (JSON: {success: true, new_total: ..., cart_count: ...})</text></g><!--SRC=[jLLTJzj047pthrZnq2OICNK21Iob4fIg0TGIDV2CDl4rMUmxk_S1Ygh-z-xPSPn0IgXAd-ASTdTcTkRijt16EDKeuKOxYmgSiYw5aynf-2BKL6HvXd0fDAexL5Cu5Pb_2W9BDXDLtL3dHXWOShbJTuwhdkt4YSqrxAoKjqvr_c24Rky06hZXfw10RMb21IeBEn99TR0ee3KS3AkYaw9Ohna9OoXNCEBXE1LbqU8i2FfzECKfiRmePd8PpT3203EKVDHGxFU3mAD3vuC7W1YY43v_keQz2KDvudIFLfJWWI_WkXetXcu89t9C6IHe4TBbr0Gr0I-8cW4riRgvimJiXN2stjv2hN4EXSuJbxQ3H3oPKbEf9ko7jI4bZvOaWraCCx9-rSQDRMunsuNofxrevkvIU0m78NmJfiYL4T2wHbbGblAIPejbhSXY__Z02EaGo0gvngrSKHY6PIhOPmJ9_gVEpyBK42IqOIOth9hLzMR9GkWnQaTmuMI6CpXdh0rMlMUigz72gprN99v6onExfMGNb7Yu_U4uAcJdxMrM7hw6bKUFhTpktN487ps4P-qtL5dVuB-1vJ9gBHqrnmqAedSXZ4ZotNYiOLuAeUMWL7056_5YNH5VYijSVISjqLJhu7cc1Fkpn2PXKNSrOXUZgwyn_3HkCk7w6AnsedAhZchiOr4TDVz_FKrRavjUNBw1PbWuKyMbDExPYzvRYuyMChzluhCrCD7-QoGcElZxo4IS-q4fb9P27yLc4z_3_nUFet-Cn_7Buh6Q3U_PxIJdRzVcSFm6]--></g></svg>