<svg xmlns="http://www.w3.org/2000/svg" xmlns:xlink="http://www.w3.org/1999/xlink" contentStyleType="text/css" data-diagram-type="DESCRIPTION" height="998px" preserveAspectRatio="none" style="width:1350px;height:998px;background:#FFFFFF;" version="1.1" viewBox="0 0 1350 998" width="1350px" zoomAndPan="magnify"><title>EazZy Project - Deployment Architecture</title><defs/><g><g class="title" data-source-line="4"><text fill="#000000" font-family="Verdana" font-size="22" font-weight="bold" lengthAdjust="spacing" textLength="505.3447" x="417.9458" y="35.4209">EazZy Project - Deployment Architecture</text></g><!--cluster Debian Server (Host)--><g class="cluster" data-entity="Debian Server .Host." data-source-line="23" data-uid="ent0003" id="cluster_Debian Server .Host."><polygon fill="#F6F6F6" points="157.2362,67.6094,167.2362,57.6094,1333.2362,57.6094,1333.2362,971.0894,1323.2362,981.0894,157.2362,981.0894,157.2362,67.6094" style="stroke:#333333;stroke-width:1;"/><line style="stroke:#333333;stroke-width:1;" x1="1323.2362" x2="1333.2362" y1="67.6094" y2="57.6094"/><line style="stroke:#333333;stroke-width:1;" x1="157.2362" x2="1323.2362" y1="67.6094" y2="67.6094"/><line style="stroke:#333333;stroke-width:1;" x1="1323.2362" x2="1323.2362" y1="67.6094" y2="981.0894"/><text fill="#000000" font-family="Verdana" font-size="14" font-weight="bold" lengthAdjust="spacing" textLength="166.2637" x="658.1044" y="83.6045">Debian Server (Host)</text></g><!--cluster Host Filesystem--><g class="cluster" data-entity="Host Filesystem" data-source-line="24" data-uid="ent0004" id="cluster_Host Filesystem"><path d="M852.7362,174.6094 L980.1942,174.6094 A3.75,3.75 0 0 1 982.6942,177.1094 L989.6942,196.9063 L1306.7362,196.9063 A2.5,2.5 0 0 1 1309.2362,199.4063 L1309.2362,269.3994 A2.5,2.5 0 0 1 1306.7362,271.8994 L852.7362,271.8994 A2.5,2.5 0 0 1 850.2362,269.3994 L850.2362,177.1094 A2.5,2.5 0 0 1 852.7362,174.6094" fill="#FFFFFF" style="stroke:#000000;stroke-width:1;"/><line style="stroke:#000000;stroke-width:1;" x1="850.2362" x2="989.6942" y1="196.9063" y2="196.9063"/><text fill="#000000" font-family="Verdana" font-size="14" font-weight="bold" lengthAdjust="spacing" textLength="126.458" x="854.2362" y="189.6045">Host Filesystem</text></g><!--cluster Docker Engine--><g class="cluster" data-entity="Docker Engine" data-source-line="29" data-uid="ent0007" id="cluster_Docker Engine"><polygon fill="#F6F6F6" points="181.2362,115.6094,191.2362,105.6094,826.2362,105.6094,826.2362,947.0894,816.2362,957.0894,181.2362,957.0894,181.2362,115.6094" style="stroke:#333333;stroke-width:1;"/><line style="stroke:#333333;stroke-width:1;" x1="816.2362" x2="826.2362" y1="115.6094" y2="105.6094"/><line style="stroke:#333333;stroke-width:1;" x1="181.2362" x2="816.2362" y1="115.6094" y2="115.6094"/><line style="stroke:#333333;stroke-width:1;" x1="816.2362" x2="816.2362" y1="115.6094" y2="957.0894"/><text fill="#000000" font-family="Verdana" font-size="14" font-weight="bold" lengthAdjust="spacing" textLength="113.9346" x="442.7689" y="131.6045">Docker Engine</text></g><!--cluster NginxContainer--><g class="cluster" data-entity="NginxContainer" data-source-line="33" data-uid="ent0010" id="cluster_NginxContainer"><polygon fill="#F6F6F6" points="223.2362,354.8994,233.2362,344.8994,496.2362,344.8994,496.2362,453.1994,486.2362,463.1994,223.2362,463.1994,223.2362,354.8994" style="stroke:#333333;stroke-width:1;"/><line style="stroke:#333333;stroke-width:1;" x1="486.2362" x2="496.2362" y1="354.8994" y2="344.8994"/><line style="stroke:#333333;stroke-width:1;" x1="223.2362" x2="486.2362" y1="354.8994" y2="354.8994"/><line style="stroke:#333333;stroke-width:1;" x1="486.2362" x2="486.2362" y1="354.8994" y2="463.1994"/><text fill="#000000" font-family="Verdana" font-size="14" font-weight="bold" lengthAdjust="spacing" textLength="197.9004" x="256.786" y="370.8945">Container: reverse-proxy</text></g><!--cluster MainAppContainer--><g class="cluster" data-entity="MainAppContainer" data-source-line="37" data-uid="ent0012" id="cluster_MainAppContainer"><polygon fill="#F6F6F6" points="470.2362,538.1994,480.2362,528.1994,707.2362,528.1994,707.2362,636.4994,697.2362,646.4994,470.2362,646.4994,470.2362,538.1994" style="stroke:#333333;stroke-width:1;"/><line style="stroke:#333333;stroke-width:1;" x1="697.2362" x2="707.2362" y1="538.1994" y2="528.1994"/><line style="stroke:#333333;stroke-width:1;" x1="470.2362" x2="697.2362" y1="538.1994" y2="538.1994"/><line style="stroke:#333333;stroke-width:1;" x1="697.2362" x2="697.2362" y1="538.1994" y2="646.4994"/><text fill="#000000" font-family="Verdana" font-size="14" font-weight="bold" lengthAdjust="spacing" textLength="161.7383" x="503.8671" y="554.1945">Container: main-app</text></g><!--cluster DbContainer--><g class="cluster" data-entity="DbContainer" data-source-line="41" data-uid="ent0014" id="cluster_DbContainer"><path d="M362.2362,721.4994 C362.2362,711.4994 461.2362,711.4994 461.2362,711.4994 C461.2362,711.4994 560.2362,711.4994 560.2362,721.4994 L560.2362,829.7894 C560.2362,839.7894 461.2362,839.7894 461.2362,839.7894 C461.2362,839.7894 362.2362,839.7894 362.2362,829.7894 L362.2362,721.4994" fill="#FFFFE0" style="stroke:#000000;stroke-width:1;"/><path d="M362.2362,721.4994 C362.2362,731.4994 461.2362,731.4994 461.2362,731.4994 C461.2362,731.4994 560.2362,731.4994 560.2362,721.4994" fill="none" style="stroke:#000000;stroke-width:1;"/><text fill="#000000" font-family="Verdana" font-size="14" font-weight="bold" lengthAdjust="spacing" textLength="182.9092" x="369.7816" y="746.4945">Container: postgres-db</text></g><!--cluster RedisContainer--><g class="cluster" data-entity="RedisContainer" data-source-line="45" data-uid="ent0016" id="cluster_RedisContainer"><path d="M600.2362,721.4994 C600.2362,711.4994 697.2362,711.4994 697.2362,711.4994 C697.2362,711.4994 794.2362,711.4994 794.2362,721.4994 L794.2362,829.7894 C794.2362,839.7894 697.2362,839.7894 697.2362,839.7894 C697.2362,839.7894 600.2362,839.7894 600.2362,829.7894 L600.2362,721.4994" fill="#FFFFE0" style="stroke:#000000;stroke-width:1;"/><path d="M600.2362,721.4994 C600.2362,731.4994 697.2362,731.4994 697.2362,731.4994 C697.2362,731.4994 794.2362,731.4994 794.2362,721.4994" fill="none" style="stroke:#000000;stroke-width:1;"/><text fill="#000000" font-family="Verdana" font-size="14" font-weight="bold" lengthAdjust="spacing" textLength="178.5068" x="607.9828" y="746.4945">Container: redis-cache</text></g><!--cluster GrafanaContainer--><g class="cluster" data-entity="GrafanaContainer" data-source-line="49" data-uid="ent0018" id="cluster_GrafanaContainer"><polygon fill="#F6F6F6" points="250.2362,171.6094,260.2362,161.6094,474.2362,161.6094,474.2362,269.8994,464.2362,279.8994,250.2362,279.8994,250.2362,171.6094" style="stroke:#333333;stroke-width:1;"/><line style="stroke:#333333;stroke-width:1;" x1="464.2362" x2="474.2362" y1="171.6094" y2="161.6094"/><line style="stroke:#333333;stroke-width:1;" x1="250.2362" x2="464.2362" y1="171.6094" y2="171.6094"/><line style="stroke:#333333;stroke-width:1;" x1="464.2362" x2="464.2362" y1="171.6094" y2="279.8994"/><text fill="#000000" font-family="Verdana" font-size="14" font-weight="bold" lengthAdjust="spacing" textLength="148.9619" x="283.7553" y="187.6045">Container: grafana</text></g><!--cluster PrometheusContainer--><g class="cluster" data-entity="PrometheusContainer" data-source-line="53" data-uid="ent0020" id="cluster_PrometheusContainer"><polygon fill="#F6F6F6" points="536.2362,354.8994,546.2362,344.8994,794.2362,344.8994,794.2362,453.1994,784.2362,463.1994,536.2362,463.1994,536.2362,354.8994" style="stroke:#333333;stroke-width:1;"/><line style="stroke:#333333;stroke-width:1;" x1="784.2362" x2="794.2362" y1="354.8994" y2="344.8994"/><line style="stroke:#333333;stroke-width:1;" x1="536.2362" x2="784.2362" y1="354.8994" y2="354.8994"/><line style="stroke:#333333;stroke-width:1;" x1="784.2362" x2="784.2362" y1="354.8994" y2="463.1994"/><text fill="#000000" font-family="Verdana" font-size="14" font-weight="bold" lengthAdjust="spacing" textLength="182.7178" x="569.8773" y="370.8945">Container: prometheus</text></g><!--entity ProjectFolder--><g class="entity" data-entity="ProjectFolder" data-source-line="25" data-uid="ent0005" id="entity_ProjectFolder"><rect fill="#87CEFA" height="46.2969" rx="2.5" ry="2.5" style="stroke:#333333;stroke-width:1;" width="176.1514" x="866.1562" y="209.6094"/><rect fill="#87CEFA" height="10" style="stroke:#333333;stroke-width:1;" width="15" x="1022.3076" y="214.6094"/><rect fill="#87CEFA" height="2" style="stroke:#333333;stroke-width:1;" width="4" x="1020.3076" y="216.6094"/><rect fill="#87CEFA" height="2" style="stroke:#333333;stroke-width:1;" width="4" x="1020.3076" y="220.6094"/><text fill="#000000" font-family="Verdana" font-size="14" lengthAdjust="spacing" textLength="136.1514" x="881.1562" y="242.6045">[/opt/eazzy-docker]</text></g><!--entity DockerVolumes--><g class="entity" data-entity="DockerVolumes" data-source-line="26" data-uid="ent0006" id="entity_DockerVolumes"><rect fill="#87CEFA" height="46.2969" rx="2.5" ry="2.5" style="stroke:#333333;stroke-width:1;" width="215.8613" x="1077.3062" y="209.6094"/><rect fill="#87CEFA" height="10" style="stroke:#333333;stroke-width:1;" width="15" x="1273.1676" y="214.6094"/><rect fill="#87CEFA" height="2" style="stroke:#333333;stroke-width:1;" width="4" x="1271.1676" y="216.6094"/><rect fill="#87CEFA" height="2" style="stroke:#333333;stroke-width:1;" width="4" x="1271.1676" y="220.6094"/><text fill="#000000" font-family="Verdana" font-size="14" lengthAdjust="spacing" textLength="175.8613" x="1092.3062" y="242.6045">[/var/lib/docker/volumes]</text></g><!--entity FrontendNet--><g class="entity" data-entity="FrontendNet" data-source-line="30" data-uid="ent0008" id="entity_FrontendNet"><rect fill="#87CEFA" height="46.2969" rx="2.5" ry="2.5" style="stroke:#333333;stroke-width:1;" width="138.9365" x="233.7662" y="576.1994"/><rect fill="#87CEFA" height="10" style="stroke:#333333;stroke-width:1;" width="15" x="352.7028" y="581.1994"/><rect fill="#87CEFA" height="2" style="stroke:#333333;stroke-width:1;" width="4" x="350.7028" y="583.1994"/><rect fill="#87CEFA" height="2" style="stroke:#333333;stroke-width:1;" width="4" x="350.7028" y="587.1994"/><text fill="#000000" font-family="Verdana" font-size="14" lengthAdjust="spacing" textLength="98.9365" x="248.7662" y="609.1945">[frontend-net]</text></g><!--entity BackendNet--><g class="entity" data-entity="BackendNet" data-source-line="31" data-uid="ent0009" id="entity_BackendNet"><rect fill="#87CEFA" height="46.2969" rx="2.5" ry="2.5" style="stroke:#333333;stroke-width:1;" width="138.5947" x="249.9362" y="894.7894"/><rect fill="#87CEFA" height="10" style="stroke:#333333;stroke-width:1;" width="15" x="368.531" y="899.7894"/><rect fill="#87CEFA" height="2" style="stroke:#333333;stroke-width:1;" width="4" x="366.531" y="901.7894"/><rect fill="#87CEFA" height="2" style="stroke:#333333;stroke-width:1;" width="4" x="366.531" y="905.7894"/><text fill="#000000" font-family="Verdana" font-size="14" lengthAdjust="spacing" textLength="98.5947" x="264.9362" y="927.7845">[backend-net]</text></g><!--entity [Nginx]--><g class="entity" data-entity=".Nginx." data-source-line="34" data-uid="ent0011" id="entity_.Nginx."><rect fill="#87CEFA" height="46.2969" rx="2.5" ry="2.5" style="stroke:#333333;stroke-width:1;" width="80.4072" x="247.0262" y="392.8994"/><rect fill="#87CEFA" height="10" style="stroke:#333333;stroke-width:1;" width="15" x="307.4335" y="397.8994"/><rect fill="#87CEFA" height="2" style="stroke:#333333;stroke-width:1;" width="4" x="305.4335" y="399.8994"/><rect fill="#87CEFA" height="2" style="stroke:#333333;stroke-width:1;" width="4" x="305.4335" y="403.8994"/><text fill="#000000" font-family="Verdana" font-size="14" lengthAdjust="spacing" textLength="40.4072" x="262.0262" y="425.8945">Nginx</text></g><!--entity [PHP-FPM]--><g class="entity" data-entity=".PHP-FPM." data-source-line="38" data-uid="ent0013" id="entity_.PHP-FPM."><rect fill="#87CEFA" height="46.2969" rx="2.5" ry="2.5" style="stroke:#333333;stroke-width:1;" width="101.0381" x="494.7162" y="576.1994"/><rect fill="#87CEFA" height="10" style="stroke:#333333;stroke-width:1;" width="15" x="575.7543" y="581.1994"/><rect fill="#87CEFA" height="2" style="stroke:#333333;stroke-width:1;" width="4" x="573.7543" y="583.1994"/><rect fill="#87CEFA" height="2" style="stroke:#333333;stroke-width:1;" width="4" x="573.7543" y="587.1994"/><text fill="#000000" font-family="Verdana" font-size="14" lengthAdjust="spacing" textLength="61.0381" x="509.7162" y="609.1945">PHP-FPM</text></g><!--entity [PostgreSQL]--><g class="entity" data-entity=".PostgreSQL." data-source-line="42" data-uid="ent0015" id="entity_.PostgreSQL."><rect fill="#87CEFA" height="46.2969" rx="2.5" ry="2.5" style="stroke:#333333;stroke-width:1;" width="120.7529" x="385.8562" y="769.4994"/><rect fill="#87CEFA" height="10" style="stroke:#333333;stroke-width:1;" width="15" x="486.6092" y="774.4994"/><rect fill="#87CEFA" height="2" style="stroke:#333333;stroke-width:1;" width="4" x="484.6092" y="776.4994"/><rect fill="#87CEFA" height="2" style="stroke:#333333;stroke-width:1;" width="4" x="484.6092" y="780.4994"/><text fill="#000000" font-family="Verdana" font-size="14" lengthAdjust="spacing" textLength="80.7529" x="400.8562" y="802.4945">PostgreSQL</text></g><!--entity [Redis]--><g class="entity" data-entity=".Redis." data-source-line="46" data-uid="ent0017" id="entity_.Redis."><rect fill="#87CEFA" height="46.2969" rx="2.5" ry="2.5" style="stroke:#333333;stroke-width:1;" width="78.4111" x="624.0262" y="769.4994"/><rect fill="#87CEFA" height="10" style="stroke:#333333;stroke-width:1;" width="15" x="682.4374" y="774.4994"/><rect fill="#87CEFA" height="2" style="stroke:#333333;stroke-width:1;" width="4" x="680.4374" y="776.4994"/><rect fill="#87CEFA" height="2" style="stroke:#333333;stroke-width:1;" width="4" x="680.4374" y="780.4994"/><text fill="#000000" font-family="Verdana" font-size="14" lengthAdjust="spacing" textLength="38.4111" x="639.0262" y="802.4945">Redis</text></g><!--entity [Grafana]--><g class="entity" data-entity=".Grafana." data-source-line="50" data-uid="ent0019" id="entity_.Grafana."><rect fill="#87CEFA" height="46.2969" rx="2.5" ry="2.5" style="stroke:#333333;stroke-width:1;" width="96.1436" x="293.1662" y="209.6094"/><rect fill="#87CEFA" height="10" style="stroke:#333333;stroke-width:1;" width="15" x="369.3098" y="214.6094"/><rect fill="#87CEFA" height="2" style="stroke:#333333;stroke-width:1;" width="4" x="367.3098" y="216.6094"/><rect fill="#87CEFA" height="2" style="stroke:#333333;stroke-width:1;" width="4" x="367.3098" y="220.6094"/><text fill="#000000" font-family="Verdana" font-size="14" lengthAdjust="spacing" textLength="56.1436" x="308.1662" y="242.6045">Grafana</text></g><!--entity [Prometheus]--><g class="entity" data-entity=".Prometheus." data-source-line="54" data-uid="ent0021" id="entity_.Prometheus."><rect fill="#87CEFA" height="46.2969" rx="2.5" ry="2.5" style="stroke:#333333;stroke-width:1;" width="124.1572" x="560.1562" y="392.8994"/><rect fill="#87CEFA" height="10" style="stroke:#333333;stroke-width:1;" width="15" x="664.3135" y="397.8994"/><rect fill="#87CEFA" height="2" style="stroke:#333333;stroke-width:1;" width="4" x="662.3135" y="399.8994"/><rect fill="#87CEFA" height="2" style="stroke:#333333;stroke-width:1;" width="4" x="662.3135" y="403.8994"/><text fill="#000000" font-family="Verdana" font-size="14" lengthAdjust="spacing" textLength="84.1572" x="575.1562" y="425.8945">Prometheus</text></g><!--entity Internet--><g class="entity" data-entity="Internet" data-source-line="21" data-uid="ent0002" id="entity_Internet"><path d="M25.088,218.49 C28.1837,213.4559 32.1123,213.1908 35.9197,217.6806 C39.0278,211.5087 43.372,211.6094 47.6137,216.4801 C50.5297,211.1575 54.7975,210.6801 58.3775,215.7954 C62.126,210.871 65.9829,209.7703 69.9703,215.5364 C75.0134,210.273 79.2445,210.4217 82.0869,217.668 C86.1445,212.5005 90.8023,212.775 94.4887,218.1065 C101.8266,220.9459 103.5639,228.302 97.2491,233.5774 C103.0537,239.979 102.8993,245.0627 94.9033,249.4209 C92.9491,255.5815 87.4152,255.9896 83.6664,251.2752 C80.7266,259.5485 76.2594,260.5905 70.1354,254.2168 C69.2031,259.933 64.5096,262.1159 59.6217,258.8435 C55.0236,263.0417 49.7405,262.5018 47.7783,255.9417 C41.2585,260.7772 38.0334,258.1431 35.8261,251.4649 C31.6178,255.9205 26.5506,255.4521 23.8789,249.6714 C14.2209,248.6987 11,241.4752 17.5961,233.9902 C11.4792,225.0079 14.572,219.4329 25.088,218.49" fill="#FFFFFF" style="stroke:#000000;stroke-width:1;"/><text fill="#000000" font-family="Verdana" font-size="14" lengthAdjust="spacing" textLength="55.8359" x="30.3162" y="237.6045">Internet</text></g><!--link Internet to NginxContainer--><g class="link" data-entity-1="Internet" data-entity-2="NginxContainer" data-source-line="62" data-uid="lnk22" id="link_Internet_NginxContainer"><path d="M101.5862,252.7694 C148.1162,272.4794 224.6362,302.8794 293.2362,320.8994 C314.9962,326.6194 326.7762,313.5494 343.2362,328.8994 C346.7725,332.1994 349.7412,335.9916 352.2286,340.1049 C352.8504,341.1332 353.4422,342.1816 354.0052,343.2474 C354.2867,343.7803 351.9042,338.9378 352.1715,339.4791" fill="none" id="Internet-to-NginxContainer" style="stroke:#000000;stroke-width:1;"/><polygon fill="#000000" points="354.8283,344.8588,354.4296,335.018,352.6143,340.3757,347.2566,338.5604,354.8283,344.8588" style="stroke:#000000;stroke-width:1;"/><text fill="#000000" font-family="Verdana" font-size="13" lengthAdjust="spacing" textLength="132.1265" x="294.2362" y="316.9663">HTTPS (Port 80/443)</text></g><!--link NginxContainer to MainAppContainer--><g class="link" data-entity-1="NginxContainer" data-entity-2="MainAppContainer" data-source-line="65" data-uid="lnk23" id="link_NginxContainer_MainAppContainer"><path d="M380.7117,463.5886 C381.3503,464.7904 382.0083,465.9932 382.6863,467.1939 C385.398,471.9966 388.4276,476.765 391.7959,481.3031 C398.5325,490.3794 406.6237,498.5344 416.2362,504.1994 C435.0062,515.2694 595.5262,498.1994 612.2362,512.1994 C615.935,515.2969 619.0111,518.9364 621.5618,522.9377 C622.1994,523.938 622.8043,524.9609 623.3778,526.0036 C623.6645,526.525 623.9435,527.0513 624.2147,527.5822 C624.2826,527.7149 621.6595,522.485 621.7263,522.6183" fill="none" id="NginxContainer-to-MainAppContainer" style="stroke:#000000;stroke-width:1;"/><polygon fill="#000000" points="624.4168,527.9812,623.9564,518.1431,622.1747,523.5121,616.8058,521.7304,624.4168,527.9812" style="stroke:#000000;stroke-width:1;"/><text fill="#000000" font-family="Verdana" font-size="13" lengthAdjust="spacing" textLength="198.7769" x="417.2362" y="500.2663">fastcgi_pass (via backend-net)</text></g><!--link MainAppContainer to DbContainer--><g class="link" data-entity-1="MainAppContainer" data-entity-2="DbContainer" data-source-line="66" data-uid="lnk24" id="link_MainAppContainer_DbContainer"><path d="M624.2683,646.5069 C624.1776,646.7064 624.0858,646.9053 623.9928,647.1036 C623.807,647.5001 623.6166,647.8943 623.4216,648.2859 C623.0317,649.0689 622.6233,649.8414 622.1957,650.6014 C621.3405,652.1212 620.4081,653.5909 619.392,654.9946 C617.3598,657.802 614.9925,660.3456 612.2362,662.4994 C598.9062,672.9094 471.8762,658.2294 460.2362,670.4994 C455.0362,675.9794 455.2462,681.8194 460.2362,687.4994 C478.5762,708.3594 501.8462,676.6194 522.2362,695.4994 C526.1762,699.1481 529.4494,703.3547 532.1601,707.9265 C532.8378,709.0695 530.7388,704.8982 531.3478,706.0839" fill="none" id="MainAppContainer-to-DbContainer" style="stroke:#000000;stroke-width:1;"/><polygon fill="#000000" points="534.0893,711.4209,533.5351,701.5877,531.8047,706.9734,526.419,705.243,534.0893,711.4209" style="stroke:#000000;stroke-width:1;"/><text fill="#000000" font-family="Verdana" font-size="13" lengthAdjust="spacing" textLength="144.8154" x="461.2362" y="683.5663">SQL (via backend-net)</text></g><!--link MainAppContainer to RedisContainer--><g class="link" data-entity-1="MainAppContainer" data-entity-2="RedisContainer" data-source-line="67" data-uid="lnk25" id="link_MainAppContainer_RedisContainer"><path d="M682.6018,646.55 C682.8996,646.8714 683.1973,647.1939 683.4949,647.5177 C684.6852,648.8125 685.8733,650.1258 687.0563,651.4565 C689.4222,654.1179 691.7679,656.8486 694.0709,659.6402 C703.2831,670.8063 711.8137,682.9444 718.2362,695.4994 C720.6437,700.2044 722.7614,705.1797 724.6241,710.2909 C724.7405,710.6103 722.8382,705.2797 722.9527,705.6002" fill="none" id="MainAppContainer-to-RedisContainer" style="stroke:#000000;stroke-width:1;"/><polygon fill="#000000" points="724.9704,711.2508,725.7109,701.4298,723.289,706.542,718.1768,704.1201,724.9704,711.2508" style="stroke:#000000;stroke-width:1;"/><text fill="#000000" font-family="Verdana" font-size="13" lengthAdjust="spacing" textLength="159.5166" x="713.2362" y="683.5663">Cache (via backend-net)</text></g><!--link PrometheusContainer to MainAppContainer--><g class="link" data-entity-1="PrometheusContainer" data-entity-2="MainAppContainer" data-source-line="68" data-uid="lnk26" id="link_PrometheusContainer_MainAppContainer"><path d="M711.7405,463.4935 C711.5569,463.8929 711.3691,464.2902 711.1768,464.685 C710.7923,465.4746 710.3901,466.2546 709.9695,467.0231 C709.1282,468.5601 708.2132,470.051 707.2181,471.4805 C705.2279,474.3395 702.9175,476.9531 700.2362,479.1994 C677.5862,498.1794 654.1262,465.3494 634.2362,487.1994 C626.0487,496.1919 621.7094,507.49 619.82,519.4142 C619.5838,520.9047 619.3859,522.4051 619.2236,523.9119 C619.1424,524.6653 619.0701,525.4203 619.0064,526.1766 C618.9745,526.5547 618.9448,526.9331 618.9172,527.3118 C618.9033,527.5011 619.2938,521.7041 619.281,521.8936" fill="none" id="PrometheusContainer-to-MainAppContainer" style="stroke:#000000;stroke-width:1;"/><polygon fill="#000000" points="618.8773,527.88,623.4738,519.1695,619.2137,522.8913,615.4919,518.6312,618.8773,527.88" style="stroke:#000000;stroke-width:1;"/><text fill="#000000" font-family="Verdana" font-size="13" lengthAdjust="spacing" textLength="215.3696" x="635.2362" y="500.2663">Scrape Metrics (via backend-net)</text></g><!--link GrafanaContainer to PrometheusContainer--><g class="link" data-entity-1="GrafanaContainer" data-entity-2="PrometheusContainer" data-source-line="69" data-uid="lnk27" id="link_GrafanaContainer_PrometheusContainer"><path d="M429.6646,279.9344 C429.6916,280.2325 429.7199,280.5308 429.7494,280.8292 C429.8085,281.4259 429.8728,282.0231 429.9423,282.6204 C430.499,287.3985 431.3982,292.1815 432.7523,296.7895 C435.4606,306.0056 439.9887,314.5219 447.2362,320.8994 C468.3462,339.4794 678.5862,310.9394 700.2362,328.8994 C703.9487,331.9806 707.0353,335.608 709.5937,339.6004 C710.2334,340.5985 710.84,341.6194 711.4151,342.6603 C711.7027,343.1807 711.9824,343.7062 712.2544,344.2363 C712.3224,344.3688 709.6906,339.1431 709.7576,339.2762" fill="none" id="GrafanaContainer-to-PrometheusContainer" style="stroke:#000000;stroke-width:1;"/><polygon fill="#000000" points="712.457,344.6347,711.9803,334.7974,710.2075,340.1693,704.8356,338.3965,712.457,344.6347" style="stroke:#000000;stroke-width:1;"/><text fill="#000000" font-family="Verdana" font-size="13" lengthAdjust="spacing" textLength="193.7686" x="448.2362" y="316.9663">Query Data (via backend-net)</text></g><!--link NginxContainer to FrontendNet--><g class="link" data-entity-1="NginxContainer" data-entity-2="FrontendNet" data-source-line="72" data-uid="lnk28" id="link_NginxContainer_FrontendNet"><path d="M354.5292,463.4847 C354.4819,463.585 354.4344,463.6851 354.3867,463.7852 C354.2911,463.9853 354.1946,464.1849 354.097,464.384 C353.7066,465.1802 353.2998,465.9678 352.8757,466.7449 C352.0277,468.299 351.1108,469.8111 350.1196,471.2664 C348.1372,474.177 345.8575,476.8606 343.2362,479.1994 C329.7062,491.2694 314.7262,473.1794 303.2362,487.1994 C282.9262,511.9694 288.9562,551.3494 295.7062,575.9794" fill="none" id="NginxContainer-FrontendNet" style="stroke:#000000;stroke-width:1;"/></g><!--link NginxContainer to BackendNet--><g class="link" data-entity-1="NginxContainer" data-entity-2="BackendNet" data-source-line="73" data-uid="lnk29" id="link_NginxContainer_BackendNet"><path d="M379.1809,463.4736 C379.273,463.7863 379.3651,464.0998 379.457,464.4141 C380.9277,469.4427 382.3711,474.6709 383.7234,479.9927 C386.4281,490.6363 388.7687,501.6544 390.2362,512.1994 C399.4362,578.3594 435.1762,613.0694 390.2362,662.4994 C377.6162,676.3694 322.0962,660.4894 306.2362,670.4994 C295.2762,677.4094 294.6962,683.0094 291.2362,695.4994 C271.1462,768.0094 272.8862,791.8194 291.2362,864.7894 C293.8162,875.0594 298.8562,885.4994 303.9462,894.3294" fill="none" id="NginxContainer-BackendNet" style="stroke:#000000;stroke-width:1;"/></g><!--link MainAppContainer to BackendNet--><g class="link" data-entity-1="MainAppContainer" data-entity-2="BackendNet" data-source-line="74" data-uid="lnk30" id="link_MainAppContainer_BackendNet"><path d="M624.2808,646.525 C624.19,646.7243 624.0982,646.9231 624.0052,647.1213 C623.8192,647.5177 623.6287,647.9117 623.4337,648.303 C623.0435,649.0856 622.6348,649.8577 622.2068,650.6171 C621.3509,652.1359 620.4178,653.6043 619.4006,655.0065 C617.3664,657.8109 614.9962,660.3506 612.2362,662.4994 C597.8362,673.6994 466.1862,667.2394 448.2362,670.4994 C412.4162,676.9894 394.8762,668.6994 370.2362,695.4994 C318.2962,751.9794 315.8362,850.4594 317.6562,894.5194" fill="none" id="MainAppContainer-BackendNet" style="stroke:#000000;stroke-width:1;"/></g><!--link DbContainer to BackendNet--><g class="link" data-entity-1="DbContainer" data-entity-2="BackendNet" data-source-line="75" data-uid="lnk31" id="link_DbContainer_BackendNet"><path d="M533.0095,839.9697 C532.9159,840.1719 532.8213,840.3736 532.7258,840.5748 C532.3436,841.3798 531.9461,842.1774 531.5327,842.9659 C530.7058,844.5428 529.8152,846.083 528.8558,847.5726 C526.9372,850.5517 524.7437,853.3281 522.2362,855.7894 C486.7662,890.5994 432.2562,905.6994 388.6462,912.1994" fill="none" id="DbContainer-BackendNet" style="stroke:#000000;stroke-width:1;"/></g><!--link RedisContainer to BackendNet--><g class="link" data-entity-1="RedisContainer" data-entity-2="BackendNet" data-source-line="76" data-uid="lnk32" id="link_RedisContainer_BackendNet"><path d="M729.8458,839.9751 C729.6572,840.3755 729.4645,840.7738 729.2675,841.1697 C728.8734,841.9616 728.4623,842.7443 728.0334,843.5157 C727.1757,845.0587 726.2468,846.5569 725.241,847.9954 C723.2294,850.8725 720.91,853.5106 718.2362,855.7894 C669.8262,897.0394 489.4962,910.5394 388.6462,914.8994" fill="none" id="RedisContainer-BackendNet" style="stroke:#000000;stroke-width:1;"/></g><!--link GrafanaContainer to BackendNet--><g class="link" data-entity-1="GrafanaContainer" data-entity-2="BackendNet" data-source-line="77" data-uid="lnk33" id="link_GrafanaContainer_BackendNet"><path d="M418.5943,280.114 C418.3568,280.5141 418.1156,280.9121 417.8706,281.3078 C417.3807,282.0991 416.8758,282.881 416.3555,283.6517 C415.3149,285.1931 414.2128,286.6894 413.0457,288.1255 C410.7115,290.9978 408.1175,293.6294 405.2362,295.8994 C343.4162,344.6194 291.6262,278.4194 231.2362,328.8994 C199.7762,355.1994 198.2362,374.0494 198.2362,415.0494 C198.2362,415.0494 198.2362,415.0494 198.2362,793.6394 C198.2362,838.7794 240.0562,873.4594 274.5262,894.3794" fill="none" id="GrafanaContainer-BackendNet" style="stroke:#000000;stroke-width:1;"/></g><!--link PrometheusContainer to BackendNet--><g class="link" data-entity-1="PrometheusContainer" data-entity-2="BackendNet" data-source-line="78" data-uid="lnk34" id="link_PrometheusContainer_BackendNet"><path d="M711.974,463.3123 C711.9285,463.4122 711.8826,463.5119 711.8365,463.6115 C711.6521,464.0098 711.4633,464.4058 711.2701,464.7994 C710.8835,465.5865 710.479,466.3636 710.0557,467.1288 C709.2092,468.6593 708.2876,470.142 707.2846,471.5617 C705.2784,474.4011 702.9462,476.9881 700.2362,479.1994 C685.7062,491.0594 634.7162,484.0594 616.2362,487.1994 C585.0962,492.4894 578.3162,498.5894 547.2362,504.1994 C532.0462,506.9394 490.6962,503.0994 478.2362,512.1994 C419.0162,555.4294 467.6262,616.8694 410.2362,662.4994 C396.0462,673.7794 387.5862,665.2594 370.2362,670.4994 C342.1862,678.9594 325.5562,671.1694 309.2362,695.4994 C288.2762,726.7394 305.6762,827.3394 309.2362,864.7894 C310.1662,874.6094 312.0662,885.3294 313.9662,894.4894" fill="none" id="PrometheusContainer-BackendNet" style="stroke:#000000;stroke-width:1;"/></g><!--link ProjectFolder to NginxContainer--><g class="link" data-entity-1="ProjectFolder" data-entity-2="NginxContainer" data-source-line="81" data-uid="lnk35" id="link_ProjectFolder_NginxContainer"><path d="M888.7262,256.3694 C826.9662,276.7094 731.4362,305.6594 646.2362,320.8994 C601.4762,328.9094 588.1662,317.1594 544.2362,328.8994 C533.645,331.7306 522.9197,335.1695 512.2537,339.0237 C506.9206,340.9508 507.1737,340.7542 501.8945,342.8649" fill="none" id="ProjectFolder-to-NginxContainer" style="stroke:#000000;stroke-width:1;stroke-dasharray:7,7;"/><polygon fill="#000000" points="496.3233,345.0923,506.1651,345.4654,500.966,343.2361,503.1952,338.037,496.3233,345.0923" style="stroke:#000000;stroke-width:1;"/><text fill="#000000" font-family="Verdana" font-size="13" lengthAdjust="spacing" textLength="92.8789" x="724.2362" y="316.9663">mounts config</text></g><!--link ProjectFolder to MainAppContainer--><g class="link" data-entity-1="ProjectFolder" data-entity-2="MainAppContainer" data-source-line="82" data-uid="lnk36" id="link_ProjectFolder_MainAppContainer"><path d="M935.7762,256.1894 C921.5162,274.6294 902.4062,302.0094 891.2362,328.8994 C860.7262,402.3494 905.7262,442.7394 855.2362,504.1994 C821.4962,545.2694 766.7037,568.7194 719.7562,581.9444 C716.822,582.7709 713.9184,583.5576 711.0526,584.306 C710.3361,584.4932 709.622,584.6779 708.9103,584.8603 C708.5545,584.9515 714.0148,583.5657 713.6602,583.6557" fill="none" id="ProjectFolder-to-MainAppContainer" style="stroke:#000000;stroke-width:1;stroke-dasharray:7,7;"/><polygon fill="#000000" points="707.8447,585.1321,717.5523,586.7945,712.691,583.9018,715.5837,579.0405,707.8447,585.1321" style="stroke:#000000;stroke-width:1;"/><text fill="#000000" font-family="Verdana" font-size="13" lengthAdjust="spacing" textLength="84.4492" x="892.2362" y="420.6163">mounts code</text></g><!--link DockerVolumes to DbContainer--><g class="link" data-entity-1="DockerVolumes" data-entity-2="DbContainer" data-source-line="83" data-uid="lnk37" id="link_DockerVolumes_DbContainer"><path d="M1165.3762,256.1094 C1127.7762,299.0394 1044.7362,396.7794 986.2362,487.1994 C931.6362,571.5894 966.4662,634.2194 881.2362,687.4994 C855.4962,703.5794 634.8762,680.9694 608.2362,695.4994 C597.0362,701.6044 587.3512,710.5275 579.1139,720.5119 C574.9952,725.5041 571.2385,730.7616 567.8352,736.0648 C566.1336,738.7164 564.5203,741.3794 562.9944,744.0264 C562.2314,745.3499 561.4903,746.6694 560.7708,747.9814 C560.6809,748.1455 563.4625,743.0409 563.3733,743.2047" fill="none" id="DockerVolumes-to-DbContainer" style="stroke:#000000;stroke-width:1;stroke-dasharray:7,7;"/><polygon fill="#000000" points="560.5021,748.4731,568.3212,742.4847,562.8947,744.0828,561.2966,738.6564,560.5021,748.4731" style="stroke:#000000;stroke-width:1;"/><text fill="#000000" font-family="Verdana" font-size="13" lengthAdjust="spacing" textLength="134.6719" x="987.2362" y="500.2663">mounts data volume</text></g><!--link DockerVolumes to RedisContainer--><g class="link" data-entity-1="DockerVolumes" data-entity-2="RedisContainer" data-source-line="84" data-uid="lnk38" id="link_DockerVolumes_RedisContainer"><path d="M1183.9462,256.1194 C1180.5162,303.6994 1168.6262,417.7094 1130.2362,504.1994 C1089.1862,596.6794 1075.1362,625.4194 995.2362,687.4994 C947.3312,724.7144 884.3237,750.5244 832.685,767.1406 C819.7753,771.2947 807.5762,774.8741 796.5012,777.9135 C795.809,778.1035 800.9111,776.7174 800.2278,776.9032" fill="none" id="DockerVolumes-to-RedisContainer" style="stroke:#000000;stroke-width:1;stroke-dasharray:7,7;"/><polygon fill="#000000" points="794.4379,778.4771,804.172,779.9761,799.2628,777.1655,802.0734,772.2563,794.4379,778.4771" style="stroke:#000000;stroke-width:1;"/><text fill="#000000" font-family="Verdana" font-size="13" lengthAdjust="spacing" textLength="134.6719" x="1137.2362" y="500.2663">mounts data volume</text></g><!--SRC=[dLRVJzim47xFN-5b3xGFeKoWQU9X4b0wjW4gA-9X4vgSv9fwJMpBTYh2nF- -ivDcIUjEPQdKrBxxxhjVFlU0Z1dD52t866GkgWAu8IKtvP9SqkVl5PagyGiIGmOFe3GZ4yPfJbBAoJqe2IgcRCc6GV36BA008dFAU62OoM437tK9pbIoO0QtImL1e9UCIsfzKBX5UORWtm71HucIfnT2SL3atL7mqb7b8brhdTDacJMgkL3axUIz_JXPB5GAgja_Ta_FJ28AARZrQOUjQvOjp6nPdUSbx6KnfOR6LEzs3fzB6qkGvA9CIVYP6y08JKYe9kj54BW0mp7439Cz0xN270okX3R3i34z5pbwGaAxYON9GLVQGB4Ms-TlUE6FaP1c1FJvkOfIaIn1FJh6fa0JPymFN54robaygc6ZbSZB0dGD7xkzXthBmJ4o-shyTs9ooJF6OPTdSoKmR9v667XjTTBit68cV8WOize3dDSRLhy5r1vSe2LiIb2ds5wOH0sHLEAfSh1RTEkfrUYujqde51_3LlxI_jfDL-0xeb8wfXjSd4cv3zVqQXfDfZV_PclRhCieiHCo1JfAuxeuyLvyDMfsT_qVb0fIfgE49WjmbD_iUXzMf_ZAZEAWcbDE7T6d-lS-L8tgAycmImh0iLRgzJbfbdlbjDNUOdsnP_-0H94TYNF66OxLgp8kUOO77NUjy2nd2bSsu_Yb6CbBgeBrS42jZvkjUufpuFv-EYE3gL26V3WQdPmS3qDhxAieIiwM57bg2pZ1LuoIBsZOaTQ7DDYmQ4cskXPfvbIR96C_9TMQ3AoXpcb4nYsCDTJjHBI1lROtTAEZ47rXkys7zzLeLnYpH549v0QCOeataAqEiwPy56ZjhWHLaR6jbySI5g6jS9lr0TL2CwpAS3lplG6uBUrCEq_Akk9ktlkIZRJsXPxGks9_ddj3k1DnVJbWOmAlM27HBYTJ-sy2Roi-37eN43ayzBLsWHUeqNZ2-9nbeGVYgt0BIY4CUlUKWsoqPAFjZbnzm_b0sytemVq1]--></g></svg>