<svg xmlns="http://www.w3.org/2000/svg" xmlns:xlink="http://www.w3.org/1999/xlink" contentStyleType="text/css" data-diagram-type="DESCRIPTION" height="587px" preserveAspectRatio="none" style="width:5138px;height:587px;background:#FFFFFF;" version="1.1" viewBox="0 0 5138 587" width="5138px" zoomAndPan="magnify"><title>EazZy Project Use Cases</title><defs/><g><g class="title" data-source-line="4"><text fill="#000000" font-family="sans-serif" font-size="14" font-weight="bold" lengthAdjust="spacing" textLength="192.2061" x="2465.897" y="22.9951">EazZy Project Use Cases</text></g><!--cluster EazZy Project System--><g class="cluster" data-entity="EazZy Project System" data-source-line="14" data-uid="ent0007" id="cluster_EazZy Project System"><rect fill="none" height="174.09" rx="2.5" ry="2.5" style="stroke:#181818;stroke-width:1;" width="5125" x="7" y="407.6869"/><text fill="#000000" font-family="sans-serif" font-size="14" font-weight="bold" lengthAdjust="spacing" textLength="170.5703" x="2484.2148" y="422.682">EazZy Project System</text></g><!--cluster Fungsionalitas Publik--><g class="cluster" data-entity="Fungsionalitas Publik" data-source-line="17" data-uid="ent0008" id="cluster_Fungsionalitas Publik"><path d="M2240.5,451.1969 L2411.2842,451.1969 A3.75,3.75 0 0 1 2413.7842,453.6969 L2420.7842,473.4938 L4046.5,473.4938 A2.5,2.5 0 0 1 4049,475.9938 L4049,554.7669 A2.5,2.5 0 0 1 4046.5,557.2669 L2240.5,557.2669 A2.5,2.5 0 0 1 2238,554.7669 L2238,453.6969 A2.5,2.5 0 0 1 2240.5,451.1969" fill="none" style="stroke:#000000;stroke-width:1.5;"/><line style="stroke:#000000;stroke-width:1.5;" x1="2238" x2="2420.7842" y1="473.4938" y2="473.4938"/><text fill="#000000" font-family="sans-serif" font-size="14" font-weight="bold" lengthAdjust="spacing" textLength="169.7842" x="2242" y="466.192">Fungsionalitas Publik</text></g><!--cluster Manajemen Produk & Pesanan--><g class="cluster" data-entity="Manajemen Produk . Pesanan" data-source-line="28" data-uid="ent0017" id="cluster_Manajemen Produk . Pesanan"><path d="M782.5,450.6869 L1024.4668,450.6869 A3.75,3.75 0 0 1 1026.9668,453.1869 L1033.9668,472.9838 L2211.5,472.9838 A2.5,2.5 0 0 1 2214,475.4838 L2214,555.2769 A2.5,2.5 0 0 1 2211.5,557.7769 L782.5,557.7769 A2.5,2.5 0 0 1 780,555.2769 L780,453.1869 A2.5,2.5 0 0 1 782.5,450.6869" fill="none" style="stroke:#000000;stroke-width:1.5;"/><line style="stroke:#000000;stroke-width:1.5;" x1="780" x2="1033.9668" y1="472.9838" y2="472.9838"/><text fill="#000000" font-family="sans-serif" font-size="14" font-weight="bold" lengthAdjust="spacing" textLength="240.9668" x="784" y="465.682">Manajemen Produk &amp; Pesanan</text></g><!--cluster Administrasi Toko--><g class="cluster" data-entity="Administrasi Toko" data-source-line="37" data-uid="ent0024" id="cluster_Administrasi Toko"><path d="M33.5,454.5369 L176.9883,454.5369 A3.75,3.75 0 0 1 179.4883,457.0369 L186.4883,476.8338 L753.5,476.8338 A2.5,2.5 0 0 1 756,479.3338 L756,551.4269 A2.5,2.5 0 0 1 753.5,553.9269 L33.5,553.9269 A2.5,2.5 0 0 1 31,551.4269 L31,457.0369 A2.5,2.5 0 0 1 33.5,454.5369" fill="none" style="stroke:#000000;stroke-width:1.5;"/><line style="stroke:#000000;stroke-width:1.5;" x1="31" x2="186.4883" y1="476.8338" y2="476.8338"/><text fill="#000000" font-family="sans-serif" font-size="14" font-weight="bold" lengthAdjust="spacing" textLength="142.4883" x="35" y="469.532">Administrasi Toko</text></g><!--cluster Administrasi Sistem--><g class="cluster" data-entity="Administrasi Sistem" data-source-line="43" data-uid="ent0028" id="cluster_Administrasi Sistem"><path d="M4365.5,453.5269 L4524.8818,453.5269 A3.75,3.75 0 0 1 4527.3818,456.0269 L4534.3818,475.8238 L5105.5,475.8238 A2.5,2.5 0 0 1 5108,478.3238 L5108,552.4369 A2.5,2.5 0 0 1 5105.5,554.9369 L4365.5,554.9369 A2.5,2.5 0 0 1 4363,552.4369 L4363,456.0269 A2.5,2.5 0 0 1 4365.5,453.5269" fill="none" style="stroke:#000000;stroke-width:1.5;"/><line style="stroke:#000000;stroke-width:1.5;" x1="4363" x2="4534.3818" y1="475.8238" y2="475.8238"/><text fill="#000000" font-family="sans-serif" font-size="14" font-weight="bold" lengthAdjust="spacing" textLength="158.3818" x="4367" y="468.522">Administrasi Sistem</text></g><!--cluster Kepemilikan Sistem--><g class="cluster" data-entity="Kepemilikan Sistem" data-source-line="49" data-uid="ent0032" id="cluster_Kepemilikan Sistem"><path d="M4075.5,453.0169 L4232.9336,453.0169 A3.75,3.75 0 0 1 4235.4336,455.5169 L4242.4336,475.3138 L4336.5,475.3138 A2.5,2.5 0 0 1 4339,477.8138 L4339,552.9469 A2.5,2.5 0 0 1 4336.5,555.4469 L4075.5,555.4469 A2.5,2.5 0 0 1 4073,552.9469 L4073,455.5169 A2.5,2.5 0 0 1 4075.5,453.0169" fill="none" style="stroke:#000000;stroke-width:1.5;"/><line style="stroke:#000000;stroke-width:1.5;" x1="4073" x2="4242.4336" y1="475.3138" y2="475.3138"/><text fill="#000000" font-family="sans-serif" font-size="14" font-weight="bold" lengthAdjust="spacing" textLength="156.4336" x="4077" y="468.012">Kepemilikan Sistem</text></g><!--entity UC1--><g class="entity" data-entity="UC1" data-source-line="18" data-uid="ent0009" id="entity_UC1"><ellipse cx="2342.9956" cy="513.722" fill="#F1F1F1" rx="88.6256" ry="20.1251" style="stroke:#181818;stroke-width:0.5;"/><text fill="#000000" font-family="sans-serif" font-size="14" lengthAdjust="spacing" textLength="150.623" x="2267.6841" y="518.3704">Melihat Landing Page</text></g><!--entity UC2--><g class="entity" data-entity="UC2" data-source-line="19" data-uid="ent0010" id="entity_UC2"><ellipse cx="2560.0004" cy="513.7309" fill="#F1F1F1" rx="93.7204" ry="21.1441" style="stroke:#181818;stroke-width:0.5;"/><text fill="#000000" font-family="sans-serif" font-size="14" lengthAdjust="spacing" textLength="162.1143" x="2478.9432" y="518.3794">Melihat Katalog Produk</text></g><!--entity UC3--><g class="entity" data-entity="UC3" data-source-line="20" data-uid="ent0011" id="entity_UC3"><ellipse cx="2760.0027" cy="513.7314" fill="#F1F1F1" rx="70.8727" ry="16.5745" style="stroke:#181818;stroke-width:0.5;"/><text fill="#000000" font-family="sans-serif" font-size="14" lengthAdjust="spacing" textLength="108.5684" x="2705.7185" y="518.3798">Mencari Produk</text></g><!--entity UC4--><g class="entity" data-entity="UC4" data-source-line="21" data-uid="ent0012" id="entity_UC4"><ellipse cx="2954.0033" cy="513.7235" fill="#F1F1F1" rx="88.4333" ry="20.0867" style="stroke:#181818;stroke-width:0.5;"/><text fill="#000000" font-family="sans-serif" font-size="14" lengthAdjust="spacing" textLength="150.1855" x="2878.9105" y="518.372">Melihat Detail Produk</text></g><!--entity UC5--><g class="entity" data-entity="UC5" data-source-line="22" data-uid="ent0013" id="entity_UC5"><ellipse cx="3202.9957" cy="513.728" fill="#F1F1F1" rx="125.6557" ry="27.5311" style="stroke:#181818;stroke-width:0.5;"/><text fill="#000000" font-family="sans-serif" font-size="14" lengthAdjust="spacing" textLength="231.3828" x="3087.3043" y="518.3765">Menggunakan Keranjang Belanja</text></g><!--entity UC6--><g class="entity" data-entity="UC6" data-source-line="23" data-uid="ent0014" id="entity_UC6"><ellipse cx="3471.9985" cy="513.7266" fill="#F1F1F1" rx="108.5985" ry="24.1197" style="stroke:#181818;stroke-width:0.5;"/><text fill="#000000" font-family="sans-serif" font-size="14" lengthAdjust="spacing" textLength="194.8447" x="3374.5761" y="518.375">Melihat Panduan Pembelian</text></g><!--entity UC7--><g class="entity" data-entity="UC7" data-source-line="24" data-uid="ent0015" id="entity_UC7"><ellipse cx="3734.9985" cy="513.7226" fill="#F1F1F1" rx="119.0285" ry="26.2057" style="stroke:#181818;stroke-width:0.5;"/><text fill="#000000" font-family="sans-serif" font-size="14" lengthAdjust="spacing" textLength="217.2803" x="3626.3583" y="518.371">Melacak Pengiriman (Cek Resi)</text></g><!--entity UC8--><g class="entity" data-entity="UC8" data-source-line="25" data-uid="ent0016" id="entity_UC8"><ellipse cx="3960.9989" cy="513.7227" fill="#F1F1F1" rx="72.0289" ry="16.8058" style="stroke:#181818;stroke-width:0.5;"/><text fill="#000000" font-family="sans-serif" font-size="14" lengthAdjust="spacing" textLength="111.4463" x="3905.2758" y="518.3711">Login ke Sistem</text></g><!--entity UC9--><g class="entity" data-entity="UC9" data-source-line="29" data-uid="ent0018" id="entity_UC9"><ellipse cx="877.9997" cy="513.7248" fill="#F1F1F1" rx="82.1397" ry="18.8279" style="stroke:#181818;stroke-width:0.5;"/><text fill="#000000" font-family="sans-serif" font-size="14" lengthAdjust="spacing" textLength="135.6934" x="810.1531" y="518.3733">Mengelola Pesanan</text></g><!--entity UC10--><g class="entity" data-entity="UC10" data-source-line="30" data-uid="ent0019" id="entity_UC10"><ellipse cx="1122.9984" cy="513.7226" fill="#F1F1F1" rx="128.2284" ry="28.0457" style="stroke:#181818;stroke-width:0.5;"/><text fill="#000000" font-family="sans-serif" font-size="14" lengthAdjust="spacing" textLength="236.8311" x="1004.5829" y="518.371">Melihat Laporan Penjualan &amp; Stok</text></g><!--entity UC11--><g class="entity" data-entity="UC11" data-source-line="31" data-uid="ent0020" id="entity_UC11"><ellipse cx="1387.9965" cy="513.7242" fill="#F1F1F1" rx="102.2365" ry="22.8473" style="stroke:#181818;stroke-width:0.5;"/><text fill="#000000" font-family="sans-serif" font-size="14" lengthAdjust="spacing" textLength="180.9746" x="1297.5092" y="518.3726">Mengelola Produk (CRUD)</text></g><!--entity UC12--><g class="entity" data-entity="UC12" data-source-line="32" data-uid="ent0021" id="entity_UC12"><ellipse cx="1628.0049" cy="513.7279" fill="#F1F1F1" rx="102.3549" ry="22.871" style="stroke:#181818;stroke-width:0.5;"/><text fill="#000000" font-family="sans-serif" font-size="14" lengthAdjust="spacing" textLength="181.2344" x="1537.3877" y="518.3763">Mengelola Kategori &amp; Tag</text></g><!--entity UC13--><g class="entity" data-entity="UC13" data-source-line="33" data-uid="ent0022" id="entity_UC13"><ellipse cx="1865.0047" cy="513.7318" fill="#F1F1F1" rx="99.3747" ry="22.2749" style="stroke:#181818;stroke-width:0.5;"/><text fill="#000000" font-family="sans-serif" font-size="14" lengthAdjust="spacing" textLength="174.6787" x="1777.6654" y="518.3803">Mengelola Inventori/Stok</text></g><!--entity UC14--><g class="entity" data-entity="UC14" data-source-line="34" data-uid="ent0023" id="entity_UC14"><ellipse cx="2098.9981" cy="513.7305" fill="#F1F1F1" rx="99.4181" ry="22.2836" style="stroke:#181818;stroke-width:0.5;"/><text fill="#000000" font-family="sans-serif" font-size="14" lengthAdjust="spacing" textLength="174.7744" x="2011.6109" y="518.3789">Mengelola Varian Produk</text></g><!--entity UC15--><g class="entity" data-entity="UC15" data-source-line="38" data-uid="ent0025" id="entity_UC15"><ellipse cx="155.9975" cy="513.7304" fill="#F1F1F1" rx="108.9675" ry="24.1935" style="stroke:#181818;stroke-width:0.5;"/><text fill="#000000" font-family="sans-serif" font-size="14" lengthAdjust="spacing" textLength="195.6445" x="58.1753" y="518.3788">Mengelola Pengaturan Toko</text></g><!--entity UC16--><g class="entity" data-entity="UC16" data-source-line="39" data-uid="ent0026" id="entity_UC16"><ellipse cx="403.0042" cy="513.7257" fill="#F1F1F1" rx="103.2442" ry="23.0488" style="stroke:#181818;stroke-width:0.5;"/><text fill="#000000" font-family="sans-serif" font-size="14" lengthAdjust="spacing" textLength="183.1826" x="311.4129" y="518.3741">Mengelola Halaman Statis</text></g><!--entity UC17--><g class="entity" data-entity="UC17" data-source-line="40" data-uid="ent0027" id="entity_UC17"><ellipse cx="641.0019" cy="513.7293" fill="#F1F1F1" rx="99.4119" ry="22.2824" style="stroke:#181818;stroke-width:0.5;"/><text fill="#000000" font-family="sans-serif" font-size="14" lengthAdjust="spacing" textLength="174.7607" x="553.6215" y="518.3777">Mengelola Akun Pegawai</text></g><!--entity UC18--><g class="entity" data-entity="UC18" data-source-line="44" data-uid="ent0029" id="entity_UC18"><ellipse cx="4491.0015" cy="513.7252" fill="#F1F1F1" rx="112.4415" ry="24.8883" style="stroke:#181818;stroke-width:0.5;"/><text fill="#000000" font-family="sans-serif" font-size="14" lengthAdjust="spacing" textLength="203.1504" x="4389.4263" y="518.3736">Mengelola Akun User Pemilik</text></g><!--entity UC19--><g class="entity" data-entity="UC19" data-source-line="45" data-uid="ent0030" id="entity_UC19"><ellipse cx="4734.0049" cy="513.7239" fill="#F1F1F1" rx="95.0849" ry="21.417" style="stroke:#181818;stroke-width:0.5;"/><text fill="#000000" font-family="sans-serif" font-size="14" lengthAdjust="spacing" textLength="165.1631" x="4651.4234" y="518.3723">Melihat Laporan Sistem</text></g><!--entity UC20--><g class="entity" data-entity="UC20" data-source-line="46" data-uid="ent0031" id="entity_UC20"><ellipse cx="4978.0041" cy="513.7277" fill="#F1F1F1" rx="114.0041" ry="25.2008" style="stroke:#181818;stroke-width:0.5;"/><text fill="#000000" font-family="sans-serif" font-size="14" lengthAdjust="spacing" textLength="206.5137" x="4874.7472" y="518.3761">Mengelola Pengaturan Global</text></g><!--entity UC21--><g class="entity" data-entity="UC21" data-source-line="50" data-uid="ent0033" id="entity_UC21"><ellipse cx="4206.0016" cy="513.7292" fill="#F1F1F1" rx="116.5616" ry="25.7123" style="stroke:#181818;stroke-width:0.5;"/><text fill="#000000" font-family="sans-serif" font-size="14" lengthAdjust="spacing" textLength="212.0029" x="4100.0001" y="518.3776">Mengelola Akun Administrator</text></g><!--entity Pengunjung--><g class="entity" data-entity="Pengunjung" data-source-line="7" data-uid="ent0002" id="entity_Pengunjung"><ellipse cx="2954.002" cy="51.2969" fill="#F1F1F1" rx="8" ry="8" style="stroke:#181818;stroke-width:0.5;"/><path d="M2954.002,59.2969 L2954.002,86.2969 M2941.002,67.2969 L2967.002,67.2969 M2954.002,86.2969 L2941.002,101.2969 M2954.002,86.2969 L2967.002,101.2969" fill="none" style="stroke:#181818;stroke-width:0.5;"/><text fill="#000000" font-family="sans-serif" font-size="14" lengthAdjust="spacing" textLength="83.084" x="2912.46" y="115.792">Pengunjung</text></g><!--entity Pegawai--><g class="entity" data-entity="Pegawai" data-source-line="8" data-uid="ent0003" id="entity_Pegawai"><ellipse cx="1448.0004" cy="187.5869" fill="#F1F1F1" rx="8" ry="8" style="stroke:#181818;stroke-width:0.5;"/><path d="M1448.0004,195.5869 L1448.0004,222.5869 M1435.0004,203.5869 L1461.0004,203.5869 M1448.0004,222.5869 L1435.0004,237.5869 M1448.0004,222.5869 L1461.0004,237.5869" fill="none" style="stroke:#181818;stroke-width:0.5;"/><text fill="#000000" font-family="sans-serif" font-size="14" lengthAdjust="spacing" textLength="94.8008" x="1400.6" y="252.082">User Pegawai</text></g><!--entity Pemilik--><g class="entity" data-entity="Pemilik" data-source-line="9" data-uid="ent0004" id="entity_Pemilik"><ellipse cx="521.995" cy="323.8869" fill="#F1F1F1" rx="8" ry="8" style="stroke:#181818;stroke-width:0.5;"/><path d="M521.995,331.8869 L521.995,358.8869 M508.995,339.8869 L534.995,339.8869 M521.995,358.8869 L508.995,373.8869 M521.995,358.8869 L534.995,373.8869" fill="none" style="stroke:#181818;stroke-width:0.5;"/><text fill="#000000" font-family="sans-serif" font-size="14" lengthAdjust="spacing" textLength="86.8301" x="478.58" y="388.382">User Pemilik</text></g><!--entity Administrator--><g class="entity" data-entity="Administrator" data-source-line="10" data-uid="ent0005" id="entity_Administrator"><ellipse cx="4612.0013" cy="187.5869" fill="#F1F1F1" rx="8" ry="8" style="stroke:#181818;stroke-width:0.5;"/><path d="M4612.0013,195.5869 L4612.0013,222.5869 M4599.0013,203.5869 L4625.0013,203.5869 M4612.0013,222.5869 L4599.0013,237.5869 M4612.0013,222.5869 L4625.0013,237.5869" fill="none" style="stroke:#181818;stroke-width:0.5;"/><text fill="#000000" font-family="sans-serif" font-size="14" lengthAdjust="spacing" textLength="95.6826" x="4564.16" y="252.082">Administrator</text></g><!--entity Owner--><g class="entity" data-entity="Owner" data-source-line="11" data-uid="ent0006" id="entity_Owner"><ellipse cx="4331.996" cy="323.8869" fill="#F1F1F1" rx="8" ry="8" style="stroke:#181818;stroke-width:0.5;"/><path d="M4331.996,331.8869 L4331.996,358.8869 M4318.996,339.8869 L4344.996,339.8869 M4331.996,358.8869 L4318.996,373.8869 M4331.996,358.8869 L4344.996,373.8869" fill="none" style="stroke:#181818;stroke-width:0.5;"/><text fill="#000000" font-family="sans-serif" font-size="14" lengthAdjust="spacing" textLength="45.7119" x="4309.14" y="388.382">Owner</text></g><!--link Pengunjung to UC1--><g class="link" data-entity-1="Pengunjung" data-entity-2="UC1" data-source-line="55" data-uid="lnk34" id="link_Pengunjung_UC1"><path d="M2912.22,103.2369 C2822.42,150.0369 2606.41,268.2069 2449,399.6869 C2413.48,429.3469 2381.6688,465.5673 2362.1088,489.1673" fill="none" id="Pengunjung-to-UC1" style="stroke:#181818;stroke-width:1;"/><polygon fill="#181818" points="2358.28,493.7869,2367.1029,489.41,2361.4706,489.9372,2360.9434,484.305,2358.28,493.7869" style="stroke:#181818;stroke-width:1;"/></g><!--link Pengunjung to UC2--><g class="link" data-entity-1="Pengunjung" data-entity-2="UC2" data-source-line="56" data-uid="lnk35" id="link_Pengunjung_UC2"><path d="M2919.72,119.4169 C2839.03,207.6469 2643.3295,421.6195 2582.1495,488.5095" fill="none" id="Pengunjung-to-UC2" style="stroke:#181818;stroke-width:1;"/><polygon fill="#181818" points="2578.1,492.9369,2587.1258,488.9954,2581.4745,489.2474,2581.2226,483.5961,2578.1,492.9369" style="stroke:#181818;stroke-width:1;"/></g><!--link Pengunjung to UC3--><g class="link" data-entity-1="Pengunjung" data-entity-2="UC3" data-source-line="57" data-uid="lnk36" id="link_Pengunjung_UC3"><path d="M2937.12,119.4169 C2896.56,209.4869 2797.374,429.7562 2769.584,491.4562" fill="none" id="Pengunjung-to-UC3" style="stroke:#181818;stroke-width:1;"/><polygon fill="#181818" points="2767.12,496.9269,2774.4632,490.3635,2769.1734,492.368,2767.1689,487.0781,2767.12,496.9269" style="stroke:#181818;stroke-width:1;"/></g><!--link Pengunjung to UC4--><g class="link" data-entity-1="Pengunjung" data-entity-2="UC4" data-source-line="58" data-uid="lnk37" id="link_Pengunjung_UC4"><path d="M2954,119.4169 C2954,207.8469 2954,421.0569 2954,487.3969" fill="none" id="Pengunjung-to-UC4" style="stroke:#181818;stroke-width:1;"/><polygon fill="#181818" points="2954,493.3969,2958,484.3969,2954,488.3969,2950,484.3969,2954,493.3969" style="stroke:#181818;stroke-width:1;"/></g><!--link Pengunjung to UC5--><g class="link" data-entity-1="Pengunjung" data-entity-2="UC5" data-source-line="59" data-uid="lnk38" id="link_Pengunjung_UC5"><path d="M2975.66,119.4169 C3025,204.7769 3141.7671,406.8024 3184.5171,480.7524" fill="none" id="Pengunjung-to-UC5" style="stroke:#181818;stroke-width:1;"/><polygon fill="#181818" points="3187.52,485.9469,3186.4786,476.1532,3185.0176,481.6181,3179.5527,480.1571,3187.52,485.9469" style="stroke:#181818;stroke-width:1;"/></g><!--link Pengunjung to UC6--><g class="link" data-entity-1="Pengunjung" data-entity-2="UC6" data-source-line="60" data-uid="lnk39" id="link_Pengunjung_UC6"><path d="M2995.76,114.6669 C3068.02,171.5469 3220.69,292.8069 3346,399.6869 C3381.78,430.1969 3417.6296,462.6698 3442.8096,485.7798" fill="none" id="Pengunjung-to-UC6" style="stroke:#181818;stroke-width:1;"/><polygon fill="#181818" points="3447.23,489.8369,3443.304,480.8043,3443.5463,486.456,3437.8946,486.6983,3447.23,489.8369" style="stroke:#181818;stroke-width:1;"/></g><!--link Pengunjung to UC7--><g class="link" data-entity-1="Pengunjung" data-entity-2="UC7" data-source-line="61" data-uid="lnk40" id="link_Pengunjung_UC7"><path d="M2995.71,98.5369 C3100.92,141.2069 3383.93,261.2069 3598,399.6869 C3639.17,426.3169 3677.6242,459.4257 3704.2042,483.7557" fill="none" id="Pengunjung-to-UC7" style="stroke:#181818;stroke-width:1;"/><polygon fill="#181818" points="3708.63,487.8069,3704.692,478.7796,3704.9418,484.4309,3699.2905,484.6807,3708.63,487.8069" style="stroke:#181818;stroke-width:1;"/></g><!--link Pengunjung to UC8--><g class="link" data-entity-1="Pengunjung" data-entity-2="UC8" data-source-line="62" data-uid="lnk41" id="link_Pengunjung_UC8"><path d="M2996.04,87.4869 C3133.97,107.4269 3580.63,185.9969 3872,399.6869 C3908.66,426.5669 3935.1783,467.1717 3949.1783,491.4017" fill="none" id="Pengunjung-to-UC8" style="stroke:#181818;stroke-width:1;"/><polygon fill="#181818" points="3952.18,496.5969,3951.1408,486.803,3949.6786,492.2676,3944.214,490.8053,3952.18,496.5969" style="stroke:#181818;stroke-width:1;"/></g><!--link Pegawai to UC9--><g class="link" data-entity-1="Pegawai" data-entity-2="UC9" data-source-line="64" data-uid="lnk42" id="link_Pegawai_UC9"><path d="M1400.27,228.5269 C1310.91,249.4569 1114.94,303.3569 977,399.6869 C939.14,426.1269 909.6754,465.0796 893.0154,489.6696" fill="none" id="Pegawai-to-UC9" style="stroke:#181818;stroke-width:1;"/><polygon fill="#181818" points="889.65,494.6369,898.0096,489.4295,892.4545,490.4975,891.3866,484.9423,889.65,494.6369" style="stroke:#181818;stroke-width:1;"/></g><!--link Pegawai to UC10--><g class="link" data-entity-1="Pegawai" data-entity-2="UC10" data-source-line="65" data-uid="lnk43" id="link_Pegawai_UC10"><path d="M1406.51,255.8369 C1339.77,316.3069 1214.6562,429.678 1156.6962,482.198" fill="none" id="Pegawai-to-UC10" style="stroke:#181818;stroke-width:1;"/><polygon fill="#181818" points="1152.25,486.2269,1161.6051,483.1477,1155.9551,482.8695,1156.2333,477.2195,1152.25,486.2269" style="stroke:#181818;stroke-width:1;"/></g><!--link Pegawai to UC11--><g class="link" data-entity-1="Pegawai" data-entity-2="UC11" data-source-line="66" data-uid="lnk44" id="link_Pegawai_UC11"><path d="M1440.34,255.8369 C1427.67,318.0169 1403.9374,434.4976 1393.7274,484.6276" fill="none" id="Pegawai-to-UC11" style="stroke:#181818;stroke-width:1;"/><polygon fill="#181818" points="1392.53,490.5069,1398.2457,482.4862,1393.5279,485.6075,1390.4066,480.8896,1392.53,490.5069" style="stroke:#181818;stroke-width:1;"/></g><!--link Pegawai to UC12--><g class="link" data-entity-1="Pegawai" data-entity-2="UC12" data-source-line="67" data-uid="lnk45" id="link_Pegawai_UC12"><path d="M1470.98,255.8369 C1509.08,318.1669 1581.0209,435.8674 1611.5209,485.7674" fill="none" id="Pegawai-to-UC12" style="stroke:#181818;stroke-width:1;"/><polygon fill="#181818" points="1614.65,490.8869,1613.3693,481.1216,1612.0424,486.6207,1606.5434,485.2938,1614.65,490.8869" style="stroke:#181818;stroke-width:1;"/></g><!--link Pegawai to UC13--><g class="link" data-entity-1="Pegawai" data-entity-2="UC13" data-source-line="68" data-uid="lnk46" id="link_Pegawai_UC13"><path d="M1495.84,242.8369 C1556.89,275.1669 1664.56,335.4469 1748,399.6869 C1785.38,428.4569 1819.6967,463.4006 1841.8767,487.2806" fill="none" id="Pegawai-to-UC13" style="stroke:#181818;stroke-width:1;"/><polygon fill="#181818" points="1845.96,491.6769,1842.7659,482.3603,1842.5573,488.0133,1836.9043,487.8047,1845.96,491.6769" style="stroke:#181818;stroke-width:1;"/></g><!--link Pegawai to UC14--><g class="link" data-entity-1="Pegawai" data-entity-2="UC14" data-source-line="69" data-uid="lnk47" id="link_Pegawai_UC14"><path d="M1495.62,227.0669 C1592.76,246.6069 1818.39,299.8469 1982,399.6869 C2022.99,424.6969 2057.2842,461.7315 2078.2942,486.8915" fill="none" id="Pegawai-to-UC14" style="stroke:#181818;stroke-width:1;"/><polygon fill="#181818" points="2082.14,491.4969,2079.4416,482.0249,2078.9352,487.659,2073.301,487.1526,2082.14,491.4969" style="stroke:#181818;stroke-width:1;"/></g><!--link Pemilik to UC15--><g class="link" data-entity-1="Pemilik" data-entity-2="UC15" data-source-line="71" data-uid="lnk48" id="link_Pemilik_UC15"><path d="M478.17,355.7469 C428.28,358.6769 345.49,368.3369 282,399.6869 C237.73,421.5469 201.2159,458.8509 178.6559,485.0409" fill="none" id="Pemilik-to-UC15" style="stroke:#181818;stroke-width:1;"/><polygon fill="#181818" points="174.74,489.5869,183.6445,485.3785,178.0032,485.7986,177.5832,480.1573,174.74,489.5869" style="stroke:#181818;stroke-width:1;"/></g><!--link Pemilik to UC16--><g class="link" data-entity-1="Pemilik" data-entity-2="UC16" data-source-line="72" data-uid="lnk49" id="link_Pemilik_UC16"><path d="M493.8,392.0269 C470.71,422.7269 442.4281,460.323 423.2281,485.833" fill="none" id="Pemilik-to-UC16" style="stroke:#181818;stroke-width:1;"/><polygon fill="#181818" points="419.62,490.6269,428.2281,485.8414,422.6268,486.632,421.8362,481.0306,419.62,490.6269" style="stroke:#181818;stroke-width:1;"/></g><!--link Pemilik to UC17--><g class="link" data-entity-1="Pemilik" data-entity-2="UC17" data-source-line="73" data-uid="lnk50" id="link_Pemilik_UC17"><path d="M550.2,392.0269 C573.57,423.0869 602.3325,461.3325 621.4525,486.7425" fill="none" id="Pemilik-to-UC17" style="stroke:#181818;stroke-width:1;"/><polygon fill="#181818" points="625.06,491.5369,622.8449,481.9403,622.0537,487.5416,616.4525,486.7504,625.06,491.5369" style="stroke:#181818;stroke-width:1;"/></g><!--link Administrator to UC18--><g class="link" data-entity-1="Administrator" data-entity-2="UC18" data-source-line="75" data-uid="lnk51" id="link_Administrator_UC18"><path d="M4596.55,255.8369 C4571.32,317.2369 4524.2607,431.7872 4503.1907,483.0572" fill="none" id="Administrator-to-UC18" style="stroke:#181818;stroke-width:1;"/><polygon fill="#181818" points="4500.91,488.6069,4508.0308,481.8029,4502.8106,483.9822,4500.6313,478.762,4500.91,488.6069" style="stroke:#181818;stroke-width:1;"/></g><!--link Administrator to UC19--><g class="link" data-entity-1="Administrator" data-entity-2="UC19" data-source-line="76" data-uid="lnk52" id="link_Administrator_UC19"><path d="M4627.58,255.8369 C4653.59,318.6369 4702.7432,437.2839 4723.1132,486.4439" fill="none" id="Administrator-to-UC19" style="stroke:#181818;stroke-width:1;"/><polygon fill="#181818" points="4725.41,491.9869,4725.6601,482.1412,4723.496,487.3677,4718.2695,485.2036,4725.41,491.9869" style="stroke:#181818;stroke-width:1;"/></g><!--link Administrator to UC20--><g class="link" data-entity-1="Administrator" data-entity-2="UC20" data-source-line="77" data-uid="lnk53" id="link_Administrator_UC20"><path d="M4660.31,254.3269 C4708.24,290.4069 4783.52,347.8469 4847,399.6869 C4883.76,429.7069 4920.5556,461.7519 4946.7756,484.9419" fill="none" id="Administrator-to-UC20" style="stroke:#181818;stroke-width:1;"/><polygon fill="#181818" points="4951.27,488.9169,4947.1784,479.9581,4947.5247,485.6044,4941.8784,485.9506,4951.27,488.9169" style="stroke:#181818;stroke-width:1;"/></g><!--link Owner to UC21--><g class="link" data-entity-1="Owner" data-entity-2="UC21" data-source-line="79" data-uid="lnk54" id="link_Owner_UC21"><path d="M4308.89,383.5569 C4285.02,413.5269 4251.9084,455.0939 4229.3884,483.3639" fill="none" id="Owner-to-UC21" style="stroke:#181818;stroke-width:1;"/><polygon fill="#181818" points="4225.65,488.0569,4234.3863,483.5097,4228.7654,484.1461,4228.129,478.5251,4225.65,488.0569" style="stroke:#181818;stroke-width:1;"/></g><!--reverse link Pengunjung to Pegawai--><g class="link" data-entity-1="Pengunjung" data-entity-2="Pegawai" data-source-line="83" data-uid="lnk55" id="link_Pengunjung_Pegawai"><path d="M2894.2211,87.2751 C2679.8511,106.3851 1723.97,191.6269 1495.89,211.9669" fill="none" id="Pengunjung-backto-Pegawai" style="stroke:#181818;stroke-width:1;"/><polygon fill="none" points="2912.15,85.6769,2893.6883,81.2988,2894.7539,93.2514,2912.15,85.6769" style="stroke:#181818;stroke-width:1;"/></g><!--reverse link Pegawai to Pemilik--><g class="link" data-entity-1="Pegawai" data-entity-2="Pemilik" data-source-line="84" data-uid="lnk56" id="link_Pegawai_Pemilik"><path d="M1382.3464,227.7603 C1221.6164,251.0703 720.21,323.7869 565.74,346.1969" fill="none" id="Pegawai-backto-Pemilik" style="stroke:#181818;stroke-width:1;"/><polygon fill="none" points="1400.16,225.1769,1381.4852,221.8224,1383.2075,233.6982,1400.16,225.1769" style="stroke:#181818;stroke-width:1;"/></g><!--reverse link Administrator to Owner--><g class="link" data-entity-1="Administrator" data-entity-2="Owner" data-source-line="85" data-uid="lnk57" id="link_Administrator_Owner"><path d="M4547.6396,249.1099 C4486.8096,278.2799 4400.8,319.5369 4355.18,341.4169" fill="none" id="Administrator-backto-Owner" style="stroke:#181818;stroke-width:1;"/><polygon fill="none" points="4563.87,241.3269,4545.0453,243.6998,4550.234,254.52,4563.87,241.3269" style="stroke:#181818;stroke-width:1;"/></g><!--SRC=[ZLPDSzem4BtxL-nmoCU1QGo4X9bEPrAIffqaKoQ47dfRZ2A4ZSH8SXcIvhztBSk0iO5oCc_txUhjhhK-XQ55RK6zmY11QKTFZn2f2Gk2KnWo2mXMs8J1gz9Wfmmc0hd6UP2ZT_ZsUmK3hMOiiZ0o3FfecCd8j-nLI0OOMQKDB8MT0YOYixfOKO9Qs5NWx31WagTobahkWGR5oc2EInGDG5CyxzZd8X6njxjdRx-Pp8KKncgaVnxxkPHCRnqjasDMnh8vZ5Kg9wXNWIOTA3b9QvIr3PrZ0zw30EXt2lTQfGj8INBaH0bf5ImmYf5xYKfpbE8DhL3IaRmL6jz8g26K2cApewTZf-BTUMK_2fj5XSOJIyGKBJoYd0Z9OK1y9tVK3_TxFw35HF7iy9CqzlwjEdyPKHlAVktzSM-PHP6KtJkrOJcr4sEKyC0qoXcL5Bwo97lojClzMGQaDIKgTNHC44fFwTPICCBOpO_GOawiipwBuPaPSUvfLrNQe-92GinWAFAkEiThv_WHb7lrX19dRCwabmqdbCqGAFSqJ7AMg0GtNYvuxr1l5qexlVG681M9KWojAWeSNXpCaX_ghFyykYqKX-4X1Wq7uugwVW8lo0jAwn3bX_p3QBor-BHzhlOXoY-QAvJbKGaxjHNUlAj6m8kArT72IeuspKgMU-V1BmznlbDTi-cWoyuAKr2wXoWtSIfBDn0HheuBA4Rg_MZioXL62QwFZqbfPiFUVrRgFb5ZJ8ghuA9MnmDRvAVPod9SHkcgBHA4Fi77xYe0kYMBInCqlRxPxMYcOc62pHA0PlCBd96wyngmLGUswy1E7NXP1tRhmAiwyFey2FnG553lV1S9BwfGM8LQLQXTXJeke-lB6dCYob2t2f60eDITjOLKr1jwUmmjKXIu1Rf6ID2cjq9E6UrpbD5ELs7Cx9BHxPb_213ZXTOkQgsMi52qD4qs4TagdYlDW3DAWGbebR3jwd_-ssokFm6A2damt_lbOpkJN_YKyqvEAbyu_m00]--></g></svg>